M48
;DRILL file {KiCad 4.0.7} date Thursday, February 08, 2018 'PMt' 08:29:24 PM
;FORMAT={-:-/ absolute / inch / decimal}
FMAT,2
INCH,TZ
T1C0.031
T2C0.040
%
G90
G05
M72
T1
X2.8008Y-2.1486
X2.8008Y-3.0482
X2.9008Y-2.1486
X2.9008Y-3.0482
X3.0008Y-2.1486
X3.0008Y-3.0482
X3.1008Y-2.1486
X3.1008Y-3.0482
X3.2008Y-2.1486
X3.2008Y-3.0482
X3.3008Y-2.1486
X3.3008Y-3.0482
X3.4008Y-2.1486
X3.4008Y-3.0482
X3.5008Y-2.1486
X3.5008Y-3.0482
X3.6008Y-2.1486
X3.6008Y-3.0482
X3.7008Y-2.1486
X3.7008Y-3.0482
X3.8008Y-2.1486
X3.8008Y-3.0482
X3.9008Y-2.1486
X3.9008Y-3.0482
X4.0008Y-2.1486
X4.0008Y-3.0482
X4.1008Y-2.1486
X4.1008Y-3.0482
X4.2008Y-2.1486
X4.2008Y-3.0482
X4.3008Y-2.1486
X4.3008Y-3.0482
X4.4008Y-2.1486
X4.4008Y-3.0482
X4.5008Y-2.1486
X4.5008Y-3.0482
X4.6008Y-2.1486
X4.6008Y-3.0482
T2
X2.825Y-2.55
X2.925Y-2.55
X3.025Y-2.55
X3.025Y-2.65
X3.125Y-2.55
X3.125Y-2.65
X3.225Y-2.55
X3.225Y-2.65
X3.325Y-2.55
X3.325Y-2.65
X3.425Y-2.55
X3.425Y-2.65
X3.525Y-2.55
X3.525Y-2.65
X3.625Y-2.55
X3.625Y-2.65
X3.725Y-2.55
X3.725Y-2.65
X3.825Y-2.55
X3.825Y-2.65
X3.925Y-2.55
X4.025Y-2.55
T0
M30
