G04 #@! TF.FileFunction,Legend,Bot*
%FSLAX46Y46*%
G04 Gerber Fmt 4.6, Leading zero omitted, Abs format (unit mm)*
G04 Created by KiCad (PCBNEW 4.0.7) date 05/03/18 08:09:56*
%MOMM*%
%LPD*%
G01*
G04 APERTURE LIST*
%ADD10C,0.100000*%
%ADD11C,0.200000*%
%ADD12C,0.150000*%
G04 APERTURE END LIST*
D10*
D11*
X108547619Y-66447619D02*
X107738095Y-66447619D01*
X107642857Y-66400000D01*
X107595238Y-66352381D01*
X107547619Y-66257143D01*
X107547619Y-66066666D01*
X107595238Y-65971428D01*
X107642857Y-65923809D01*
X107738095Y-65876190D01*
X108547619Y-65876190D01*
X107547619Y-64923809D02*
X107547619Y-65400000D01*
X108547619Y-65400000D01*
X107547619Y-64590476D02*
X108547619Y-64590476D01*
X107547619Y-64019047D01*
X108547619Y-64019047D01*
X108452381Y-63590476D02*
X108500000Y-63542857D01*
X108547619Y-63447619D01*
X108547619Y-63209523D01*
X108500000Y-63114285D01*
X108452381Y-63066666D01*
X108357143Y-63019047D01*
X108261905Y-63019047D01*
X108119048Y-63066666D01*
X107547619Y-63638095D01*
X107547619Y-63019047D01*
X108547619Y-62400000D02*
X108547619Y-62304761D01*
X108500000Y-62209523D01*
X108452381Y-62161904D01*
X108357143Y-62114285D01*
X108166667Y-62066666D01*
X107928571Y-62066666D01*
X107738095Y-62114285D01*
X107642857Y-62161904D01*
X107595238Y-62209523D01*
X107547619Y-62304761D01*
X107547619Y-62400000D01*
X107595238Y-62495238D01*
X107642857Y-62542857D01*
X107738095Y-62590476D01*
X107928571Y-62638095D01*
X108166667Y-62638095D01*
X108357143Y-62590476D01*
X108452381Y-62542857D01*
X108500000Y-62495238D01*
X108547619Y-62400000D01*
X108547619Y-61447619D02*
X108547619Y-61352380D01*
X108500000Y-61257142D01*
X108452381Y-61209523D01*
X108357143Y-61161904D01*
X108166667Y-61114285D01*
X107928571Y-61114285D01*
X107738095Y-61161904D01*
X107642857Y-61209523D01*
X107595238Y-61257142D01*
X107547619Y-61352380D01*
X107547619Y-61447619D01*
X107595238Y-61542857D01*
X107642857Y-61590476D01*
X107738095Y-61638095D01*
X107928571Y-61685714D01*
X108166667Y-61685714D01*
X108357143Y-61638095D01*
X108452381Y-61590476D01*
X108500000Y-61542857D01*
X108547619Y-61447619D01*
X108547619Y-60780952D02*
X108547619Y-60161904D01*
X108166667Y-60495238D01*
X108166667Y-60352380D01*
X108119048Y-60257142D01*
X108071429Y-60209523D01*
X107976190Y-60161904D01*
X107738095Y-60161904D01*
X107642857Y-60209523D01*
X107595238Y-60257142D01*
X107547619Y-60352380D01*
X107547619Y-60638095D01*
X107595238Y-60733333D01*
X107642857Y-60780952D01*
X107833333Y-59780952D02*
X107833333Y-59304761D01*
X107547619Y-59876190D02*
X108547619Y-59542857D01*
X107547619Y-59209523D01*
X112398127Y-58470800D02*
G75*
G03X112398127Y-58470800I-104727J0D01*
G01*
X112590699Y-58470800D02*
G75*
G03X112590699Y-58470800I-297299J0D01*
G01*
X96252694Y-58574819D02*
X96252694Y-57558819D01*
X96010789Y-57558819D01*
X95865647Y-57607200D01*
X95768885Y-57703962D01*
X95720504Y-57800724D01*
X95672123Y-57994248D01*
X95672123Y-58139390D01*
X95720504Y-58332914D01*
X95768885Y-58429676D01*
X95865647Y-58526438D01*
X96010789Y-58574819D01*
X96252694Y-58574819D01*
X95236694Y-58574819D02*
X95236694Y-57897486D01*
X95236694Y-57558819D02*
X95285075Y-57607200D01*
X95236694Y-57655581D01*
X95188313Y-57607200D01*
X95236694Y-57558819D01*
X95236694Y-57655581D01*
X94801265Y-58526438D02*
X94704503Y-58574819D01*
X94510979Y-58574819D01*
X94414218Y-58526438D01*
X94365837Y-58429676D01*
X94365837Y-58381295D01*
X94414218Y-58284533D01*
X94510979Y-58236152D01*
X94656122Y-58236152D01*
X94752884Y-58187771D01*
X94801265Y-58091010D01*
X94801265Y-58042629D01*
X94752884Y-57945867D01*
X94656122Y-57897486D01*
X94510979Y-57897486D01*
X94414218Y-57945867D01*
X93930408Y-57897486D02*
X93930408Y-58913486D01*
X93930408Y-57945867D02*
X93833646Y-57897486D01*
X93640123Y-57897486D01*
X93543361Y-57945867D01*
X93494980Y-57994248D01*
X93446599Y-58091010D01*
X93446599Y-58381295D01*
X93494980Y-58478057D01*
X93543361Y-58526438D01*
X93640123Y-58574819D01*
X93833646Y-58574819D01*
X93930408Y-58526438D01*
X92866027Y-58574819D02*
X92962789Y-58526438D01*
X93011170Y-58429676D01*
X93011170Y-57558819D01*
X92043552Y-58574819D02*
X92043552Y-58042629D01*
X92091933Y-57945867D01*
X92188695Y-57897486D01*
X92382218Y-57897486D01*
X92478980Y-57945867D01*
X92043552Y-58526438D02*
X92140314Y-58574819D01*
X92382218Y-58574819D01*
X92478980Y-58526438D01*
X92527361Y-58429676D01*
X92527361Y-58332914D01*
X92478980Y-58236152D01*
X92382218Y-58187771D01*
X92140314Y-58187771D01*
X92043552Y-58139390D01*
X91656504Y-57897486D02*
X91414599Y-58574819D01*
X91172695Y-57897486D02*
X91414599Y-58574819D01*
X91511361Y-58816724D01*
X91559742Y-58865105D01*
X91656504Y-58913486D01*
X90011552Y-58574819D02*
X90011552Y-57558819D01*
X90011552Y-58042629D02*
X89430981Y-58042629D01*
X89430981Y-58574819D02*
X89430981Y-57558819D01*
X88560124Y-58526438D02*
X88656886Y-58574819D01*
X88850409Y-58574819D01*
X88947171Y-58526438D01*
X88995552Y-58429676D01*
X88995552Y-58042629D01*
X88947171Y-57945867D01*
X88850409Y-57897486D01*
X88656886Y-57897486D01*
X88560124Y-57945867D01*
X88511743Y-58042629D01*
X88511743Y-58139390D01*
X88995552Y-58236152D01*
X87640886Y-58574819D02*
X87640886Y-58042629D01*
X87689267Y-57945867D01*
X87786029Y-57897486D01*
X87979552Y-57897486D01*
X88076314Y-57945867D01*
X87640886Y-58526438D02*
X87737648Y-58574819D01*
X87979552Y-58574819D01*
X88076314Y-58526438D01*
X88124695Y-58429676D01*
X88124695Y-58332914D01*
X88076314Y-58236152D01*
X87979552Y-58187771D01*
X87737648Y-58187771D01*
X87640886Y-58139390D01*
X86721648Y-58574819D02*
X86721648Y-57558819D01*
X86721648Y-58526438D02*
X86818410Y-58574819D01*
X87011933Y-58574819D01*
X87108695Y-58526438D01*
X87157076Y-58478057D01*
X87205457Y-58381295D01*
X87205457Y-58091010D01*
X87157076Y-57994248D01*
X87108695Y-57945867D01*
X87011933Y-57897486D01*
X86818410Y-57897486D01*
X86721648Y-57945867D01*
X85850791Y-58526438D02*
X85947553Y-58574819D01*
X86141076Y-58574819D01*
X86237838Y-58526438D01*
X86286219Y-58429676D01*
X86286219Y-58042629D01*
X86237838Y-57945867D01*
X86141076Y-57897486D01*
X85947553Y-57897486D01*
X85850791Y-57945867D01*
X85802410Y-58042629D01*
X85802410Y-58139390D01*
X86286219Y-58236152D01*
X85366981Y-58574819D02*
X85366981Y-57897486D01*
X85366981Y-58091010D02*
X85318600Y-57994248D01*
X85270219Y-57945867D01*
X85173457Y-57897486D01*
X85076696Y-57897486D01*
X84109077Y-57558819D02*
X83528506Y-57558819D01*
X83818791Y-58574819D02*
X83818791Y-57558819D01*
X83189839Y-58574819D02*
X83189839Y-57558819D01*
X82754411Y-58574819D02*
X82754411Y-58042629D01*
X82802792Y-57945867D01*
X82899554Y-57897486D01*
X83044696Y-57897486D01*
X83141458Y-57945867D01*
X83189839Y-57994248D01*
X82270601Y-58574819D02*
X82270601Y-57897486D01*
X82270601Y-57558819D02*
X82318982Y-57607200D01*
X82270601Y-57655581D01*
X82222220Y-57607200D01*
X82270601Y-57558819D01*
X82270601Y-57655581D01*
X81835172Y-58526438D02*
X81738410Y-58574819D01*
X81544886Y-58574819D01*
X81448125Y-58526438D01*
X81399744Y-58429676D01*
X81399744Y-58381295D01*
X81448125Y-58284533D01*
X81544886Y-58236152D01*
X81690029Y-58236152D01*
X81786791Y-58187771D01*
X81835172Y-58091010D01*
X81835172Y-58042629D01*
X81786791Y-57945867D01*
X81690029Y-57897486D01*
X81544886Y-57897486D01*
X81448125Y-57945867D01*
X80238601Y-58526438D02*
X80093458Y-58574819D01*
X79851554Y-58574819D01*
X79754792Y-58526438D01*
X79706411Y-58478057D01*
X79658030Y-58381295D01*
X79658030Y-58284533D01*
X79706411Y-58187771D01*
X79754792Y-58139390D01*
X79851554Y-58091010D01*
X80045077Y-58042629D01*
X80141839Y-57994248D01*
X80190220Y-57945867D01*
X80238601Y-57849105D01*
X80238601Y-57752343D01*
X80190220Y-57655581D01*
X80141839Y-57607200D01*
X80045077Y-57558819D01*
X79803173Y-57558819D01*
X79658030Y-57607200D01*
X79222601Y-58574819D02*
X79222601Y-57897486D01*
X79222601Y-57558819D02*
X79270982Y-57607200D01*
X79222601Y-57655581D01*
X79174220Y-57607200D01*
X79222601Y-57558819D01*
X79222601Y-57655581D01*
X78303363Y-58574819D02*
X78303363Y-57558819D01*
X78303363Y-58526438D02*
X78400125Y-58574819D01*
X78593648Y-58574819D01*
X78690410Y-58526438D01*
X78738791Y-58478057D01*
X78787172Y-58381295D01*
X78787172Y-58091010D01*
X78738791Y-57994248D01*
X78690410Y-57945867D01*
X78593648Y-57897486D01*
X78400125Y-57897486D01*
X78303363Y-57945867D01*
X77432506Y-58526438D02*
X77529268Y-58574819D01*
X77722791Y-58574819D01*
X77819553Y-58526438D01*
X77867934Y-58429676D01*
X77867934Y-58042629D01*
X77819553Y-57945867D01*
X77722791Y-57897486D01*
X77529268Y-57897486D01*
X77432506Y-57945867D01*
X77384125Y-58042629D01*
X77384125Y-58139390D01*
X77867934Y-58236152D01*
D12*
X100965000Y-63500000D02*
X70485000Y-63500000D01*
X70485000Y-63500000D02*
X70485000Y-66040000D01*
X70485000Y-66040000D02*
X100965000Y-66040000D01*
X103785000Y-66320000D02*
X102235000Y-66320000D01*
X100965000Y-66040000D02*
X100965000Y-63500000D01*
X102235000Y-63220000D02*
X103785000Y-63220000D01*
X103785000Y-63220000D02*
X103785000Y-66320000D01*
X95885000Y-68580000D02*
X75565000Y-68580000D01*
X75565000Y-68580000D02*
X75565000Y-66040000D01*
X75565000Y-66040000D02*
X95885000Y-66040000D01*
X98705000Y-68860000D02*
X97155000Y-68860000D01*
X95885000Y-68580000D02*
X95885000Y-66040000D01*
X97155000Y-65760000D02*
X98705000Y-65760000D01*
X98705000Y-65760000D02*
X98705000Y-68860000D01*
X110075000Y-57825000D02*
X110075000Y-57850000D01*
X105925000Y-57825000D02*
X105925000Y-57930000D01*
X105925000Y-67975000D02*
X105925000Y-67870000D01*
X110075000Y-67975000D02*
X110075000Y-67870000D01*
X110075000Y-57825000D02*
X105925000Y-57825000D01*
X110075000Y-67975000D02*
X105925000Y-67975000D01*
X110075000Y-57850000D02*
X111450000Y-57850000D01*
M02*
