G04 #@! TF.FileFunction,Soldermask,Top*
%FSLAX46Y46*%
G04 Gerber Fmt 4.6, Leading zero omitted, Abs format (unit mm)*
G04 Created by KiCad (PCBNEW 4.0.7) date 02/08/18 15:47:49*
%MOMM*%
%LPD*%
G01*
G04 APERTURE LIST*
%ADD10C,0.100000*%
%ADD11R,2.127200X2.432000*%
%ADD12O,2.127200X2.432000*%
%ADD13R,1.700000X1.900000*%
%ADD14O,1.600000X2.400000*%
G04 APERTURE END LIST*
D10*
D11*
X102235000Y-64770000D03*
D12*
X99695000Y-64770000D03*
X97155000Y-64770000D03*
X94615000Y-64770000D03*
X92075000Y-64770000D03*
X89535000Y-64770000D03*
X86995000Y-64770000D03*
X84455000Y-64770000D03*
X81915000Y-64770000D03*
X79375000Y-64770000D03*
X76835000Y-64770000D03*
X74295000Y-64770000D03*
X71755000Y-64770000D03*
D11*
X97155000Y-67310000D03*
D12*
X94615000Y-67310000D03*
X92075000Y-67310000D03*
X89535000Y-67310000D03*
X86995000Y-67310000D03*
X84455000Y-67310000D03*
X81915000Y-67310000D03*
X79375000Y-67310000D03*
X76835000Y-67310000D03*
D13*
X97155000Y-73740000D03*
X97155000Y-71040000D03*
X94615000Y-73740000D03*
X94615000Y-71040000D03*
X92075000Y-73740000D03*
X92075000Y-71040000D03*
X89535000Y-73740000D03*
X89535000Y-71040000D03*
X86995000Y-73740000D03*
X86995000Y-71040000D03*
X84455000Y-73740000D03*
X84455000Y-71040000D03*
X81915000Y-73740000D03*
X81915000Y-71040000D03*
X79375000Y-73740000D03*
X79375000Y-71040000D03*
X76835000Y-73740000D03*
X76835000Y-71040000D03*
X97155000Y-58340000D03*
X97155000Y-61040000D03*
X94615000Y-58340000D03*
X94615000Y-61040000D03*
X92075000Y-58340000D03*
X92075000Y-61040000D03*
X89535000Y-58340000D03*
X89535000Y-61040000D03*
X81915000Y-58340000D03*
X81915000Y-61040000D03*
X79375000Y-58340000D03*
X79375000Y-61040000D03*
X76835000Y-58340000D03*
X76835000Y-61040000D03*
D14*
X71140000Y-54575000D03*
X71140000Y-77425000D03*
X73680000Y-54575000D03*
X73680000Y-77425000D03*
X76220000Y-54575000D03*
X76220000Y-77425000D03*
X78760000Y-54575000D03*
X78760000Y-77425000D03*
X81300000Y-54575000D03*
X81300000Y-77425000D03*
X83840000Y-54575000D03*
X83840000Y-77425000D03*
X86380000Y-54575000D03*
X86380000Y-77425000D03*
X88920000Y-54575000D03*
X88920000Y-77425000D03*
X91460000Y-54575000D03*
X91460000Y-77425000D03*
X94000000Y-54575000D03*
X94000000Y-77425000D03*
X96540000Y-54575000D03*
X96540000Y-77425000D03*
X99080000Y-54575000D03*
X99080000Y-77425000D03*
X101620000Y-54575000D03*
X101620000Y-77425000D03*
X104160000Y-54575000D03*
X104160000Y-77425000D03*
X106700000Y-54575000D03*
X106700000Y-77425000D03*
X109240000Y-54575000D03*
X109240000Y-77425000D03*
X111780000Y-54575000D03*
X111780000Y-77425000D03*
X114320000Y-54575000D03*
X114320000Y-77425000D03*
X116860000Y-54575000D03*
X116860000Y-77425000D03*
M02*
