M48
INCH,TZ
T1C0.031
T2C0.040
%
G90
G05
T1
X28008Y-21486
X28008Y-30482
X29008Y-21486
X29008Y-30482
X30008Y-21486
X30008Y-30482
X31008Y-21486
X31008Y-30482
X32008Y-21486
X32008Y-30482
X33008Y-21486
X33008Y-30482
X34008Y-21486
X34008Y-30482
X35008Y-21486
X35008Y-30482
X36008Y-21486
X36008Y-30482
X37008Y-21486
X37008Y-30482
X38008Y-21486
X38008Y-30482
X39008Y-21486
X39008Y-30482
X40008Y-21486
X40008Y-30482
X41008Y-21486
X41008Y-30482
X42008Y-21486
X42008Y-30482
X43008Y-21486
X43008Y-30482
X44008Y-21486
X44008Y-30482
X45008Y-21486
X45008Y-30482
X46008Y-21486
X46008Y-30482
T2
X28250Y-25500
X29250Y-25500
X30250Y-25500
X30250Y-26500
X31250Y-25500
X31250Y-26500
X32250Y-25500
X32250Y-26500
X33250Y-25500
X33250Y-26500
X34250Y-25500
X34250Y-26500
X35250Y-25500
X35250Y-26500
X36250Y-25500
X36250Y-26500
X37250Y-25500
X37250Y-26500
X38250Y-25500
X38250Y-26500
X39250Y-25500
X40250Y-25500
T0
M30
