G04 #@! TF.FileFunction,Legend,Top*
%FSLAX46Y46*%
G04 Gerber Fmt 4.6, Leading zero omitted, Abs format (unit mm)*
G04 Created by KiCad (PCBNEW 4.0.7) date 02/08/18 15:47:49*
%MOMM*%
%LPD*%
G01*
G04 APERTURE LIST*
%ADD10C,0.100000*%
%ADD11C,0.200000*%
%ADD12C,0.120000*%
G04 APERTURE END LIST*
D10*
D11*
X71574181Y-75885705D02*
X70574181Y-75885705D01*
X70574181Y-75504752D01*
X70621800Y-75409514D01*
X70669419Y-75361895D01*
X70764657Y-75314276D01*
X70907514Y-75314276D01*
X71002752Y-75361895D01*
X71050371Y-75409514D01*
X71097990Y-75504752D01*
X71097990Y-75885705D01*
X71574181Y-74885705D02*
X70907514Y-74885705D01*
X70574181Y-74885705D02*
X70621800Y-74933324D01*
X70669419Y-74885705D01*
X70621800Y-74838086D01*
X70574181Y-74885705D01*
X70669419Y-74885705D01*
X70907514Y-74409515D02*
X71574181Y-74409515D01*
X71002752Y-74409515D02*
X70955133Y-74361896D01*
X70907514Y-74266658D01*
X70907514Y-74123800D01*
X70955133Y-74028562D01*
X71050371Y-73980943D01*
X71574181Y-73980943D01*
X71574181Y-72219038D02*
X71574181Y-72790467D01*
X71574181Y-72504753D02*
X70574181Y-72504753D01*
X70717038Y-72599991D01*
X70812276Y-72695229D01*
X70859895Y-72790467D01*
X72750371Y-75885705D02*
X72750371Y-75552371D01*
X73274181Y-75409514D02*
X73274181Y-75885705D01*
X72274181Y-75885705D01*
X72274181Y-75409514D01*
X73226562Y-75028562D02*
X73274181Y-74885705D01*
X73274181Y-74647609D01*
X73226562Y-74552371D01*
X73178943Y-74504752D01*
X73083705Y-74457133D01*
X72988467Y-74457133D01*
X72893229Y-74504752D01*
X72845610Y-74552371D01*
X72797990Y-74647609D01*
X72750371Y-74838086D01*
X72702752Y-74933324D01*
X72655133Y-74980943D01*
X72559895Y-75028562D01*
X72464657Y-75028562D01*
X72369419Y-74980943D01*
X72321800Y-74933324D01*
X72274181Y-74838086D01*
X72274181Y-74599990D01*
X72321800Y-74457133D01*
X73274181Y-74028562D02*
X72274181Y-74028562D01*
X72274181Y-73647609D01*
X72321800Y-73552371D01*
X72369419Y-73504752D01*
X72464657Y-73457133D01*
X72607514Y-73457133D01*
X72702752Y-73504752D01*
X72750371Y-73552371D01*
X72797990Y-73647609D01*
X72797990Y-74028562D01*
X72274181Y-73123800D02*
X72274181Y-72504752D01*
X72655133Y-72838086D01*
X72655133Y-72695228D01*
X72702752Y-72599990D01*
X72750371Y-72552371D01*
X72845610Y-72504752D01*
X73083705Y-72504752D01*
X73178943Y-72552371D01*
X73226562Y-72599990D01*
X73274181Y-72695228D01*
X73274181Y-72980943D01*
X73226562Y-73076181D01*
X73178943Y-73123800D01*
X72369419Y-72123800D02*
X72321800Y-72076181D01*
X72274181Y-71980943D01*
X72274181Y-71742847D01*
X72321800Y-71647609D01*
X72369419Y-71599990D01*
X72464657Y-71552371D01*
X72559895Y-71552371D01*
X72702752Y-71599990D01*
X73274181Y-72171419D01*
X73274181Y-71552371D01*
X72750371Y-70028561D02*
X72797990Y-69885704D01*
X72845610Y-69838085D01*
X72940848Y-69790466D01*
X73083705Y-69790466D01*
X73178943Y-69838085D01*
X73226562Y-69885704D01*
X73274181Y-69980942D01*
X73274181Y-70361895D01*
X72274181Y-70361895D01*
X72274181Y-70028561D01*
X72321800Y-69933323D01*
X72369419Y-69885704D01*
X72464657Y-69838085D01*
X72559895Y-69838085D01*
X72655133Y-69885704D01*
X72702752Y-69933323D01*
X72750371Y-70028561D01*
X72750371Y-70361895D01*
X73274181Y-69219038D02*
X73226562Y-69314276D01*
X73178943Y-69361895D01*
X73083705Y-69409514D01*
X72797990Y-69409514D01*
X72702752Y-69361895D01*
X72655133Y-69314276D01*
X72607514Y-69219038D01*
X72607514Y-69076180D01*
X72655133Y-68980942D01*
X72702752Y-68933323D01*
X72797990Y-68885704D01*
X73083705Y-68885704D01*
X73178943Y-68933323D01*
X73226562Y-68980942D01*
X73274181Y-69076180D01*
X73274181Y-69219038D01*
X73274181Y-68028561D02*
X72750371Y-68028561D01*
X72655133Y-68076180D01*
X72607514Y-68171418D01*
X72607514Y-68361895D01*
X72655133Y-68457133D01*
X73226562Y-68028561D02*
X73274181Y-68123799D01*
X73274181Y-68361895D01*
X73226562Y-68457133D01*
X73131324Y-68504752D01*
X73036086Y-68504752D01*
X72940848Y-68457133D01*
X72893229Y-68361895D01*
X72893229Y-68123799D01*
X72845610Y-68028561D01*
X73274181Y-67552371D02*
X72607514Y-67552371D01*
X72797990Y-67552371D02*
X72702752Y-67504752D01*
X72655133Y-67457133D01*
X72607514Y-67361895D01*
X72607514Y-67266656D01*
X73274181Y-66504751D02*
X72274181Y-66504751D01*
X73226562Y-66504751D02*
X73274181Y-66599989D01*
X73274181Y-66790466D01*
X73226562Y-66885704D01*
X73178943Y-66933323D01*
X73083705Y-66980942D01*
X72797990Y-66980942D01*
X72702752Y-66933323D01*
X72655133Y-66885704D01*
X72607514Y-66790466D01*
X72607514Y-66599989D01*
X72655133Y-66504751D01*
X73974181Y-75695229D02*
X73974181Y-75504752D01*
X74021800Y-75409514D01*
X74117038Y-75314276D01*
X74307514Y-75266657D01*
X74640848Y-75266657D01*
X74831324Y-75314276D01*
X74926562Y-75409514D01*
X74974181Y-75504752D01*
X74974181Y-75695229D01*
X74926562Y-75790467D01*
X74831324Y-75885705D01*
X74640848Y-75933324D01*
X74307514Y-75933324D01*
X74117038Y-75885705D01*
X74021800Y-75790467D01*
X73974181Y-75695229D01*
X74307514Y-74838086D02*
X74974181Y-74838086D01*
X74402752Y-74838086D02*
X74355133Y-74790467D01*
X74307514Y-74695229D01*
X74307514Y-74552371D01*
X74355133Y-74457133D01*
X74450371Y-74409514D01*
X74974181Y-74409514D01*
X73974181Y-73314276D02*
X73974181Y-72742847D01*
X74974181Y-73028562D02*
X73974181Y-73028562D01*
X74974181Y-72409514D02*
X73974181Y-72409514D01*
X74974181Y-71980942D02*
X74450371Y-71980942D01*
X74355133Y-72028561D01*
X74307514Y-72123799D01*
X74307514Y-72266657D01*
X74355133Y-72361895D01*
X74402752Y-72409514D01*
X74974181Y-71504752D02*
X74307514Y-71504752D01*
X73974181Y-71504752D02*
X74021800Y-71552371D01*
X74069419Y-71504752D01*
X74021800Y-71457133D01*
X73974181Y-71504752D01*
X74069419Y-71504752D01*
X74926562Y-71076181D02*
X74974181Y-70980943D01*
X74974181Y-70790467D01*
X74926562Y-70695228D01*
X74831324Y-70647609D01*
X74783705Y-70647609D01*
X74688467Y-70695228D01*
X74640848Y-70790467D01*
X74640848Y-70933324D01*
X74593229Y-71028562D01*
X74497990Y-71076181D01*
X74450371Y-71076181D01*
X74355133Y-71028562D01*
X74307514Y-70933324D01*
X74307514Y-70790467D01*
X74355133Y-70695228D01*
X74926562Y-69504752D02*
X74974181Y-69361895D01*
X74974181Y-69123799D01*
X74926562Y-69028561D01*
X74878943Y-68980942D01*
X74783705Y-68933323D01*
X74688467Y-68933323D01*
X74593229Y-68980942D01*
X74545610Y-69028561D01*
X74497990Y-69123799D01*
X74450371Y-69314276D01*
X74402752Y-69409514D01*
X74355133Y-69457133D01*
X74259895Y-69504752D01*
X74164657Y-69504752D01*
X74069419Y-69457133D01*
X74021800Y-69409514D01*
X73974181Y-69314276D01*
X73974181Y-69076180D01*
X74021800Y-68933323D01*
X74974181Y-68504752D02*
X74307514Y-68504752D01*
X73974181Y-68504752D02*
X74021800Y-68552371D01*
X74069419Y-68504752D01*
X74021800Y-68457133D01*
X73974181Y-68504752D01*
X74069419Y-68504752D01*
X74974181Y-67599990D02*
X73974181Y-67599990D01*
X74926562Y-67599990D02*
X74974181Y-67695228D01*
X74974181Y-67885705D01*
X74926562Y-67980943D01*
X74878943Y-68028562D01*
X74783705Y-68076181D01*
X74497990Y-68076181D01*
X74402752Y-68028562D01*
X74355133Y-67980943D01*
X74307514Y-67885705D01*
X74307514Y-67695228D01*
X74355133Y-67599990D01*
X74926562Y-66742847D02*
X74974181Y-66838085D01*
X74974181Y-67028562D01*
X74926562Y-67123800D01*
X74831324Y-67171419D01*
X74450371Y-67171419D01*
X74355133Y-67123800D01*
X74307514Y-67028562D01*
X74307514Y-66838085D01*
X74355133Y-66742847D01*
X74450371Y-66695228D01*
X74545610Y-66695228D01*
X74640848Y-67171419D01*
X106693695Y-72807465D02*
X105393695Y-72807465D01*
X106322267Y-72374132D01*
X105393695Y-71940799D01*
X106693695Y-71940799D01*
X106693695Y-70764608D02*
X106012743Y-70764608D01*
X105888933Y-70826513D01*
X105827029Y-70950323D01*
X105827029Y-71197942D01*
X105888933Y-71321751D01*
X106631790Y-70764608D02*
X106693695Y-70888418D01*
X106693695Y-71197942D01*
X106631790Y-71321751D01*
X106507981Y-71383656D01*
X106384171Y-71383656D01*
X106260362Y-71321751D01*
X106198457Y-71197942D01*
X106198457Y-70888418D01*
X106136552Y-70764608D01*
X105827029Y-70145561D02*
X106693695Y-70145561D01*
X105950838Y-70145561D02*
X105888933Y-70083656D01*
X105827029Y-69959847D01*
X105827029Y-69774133D01*
X105888933Y-69650323D01*
X106012743Y-69588418D01*
X106693695Y-69588418D01*
X106693695Y-68969371D02*
X105827029Y-68969371D01*
X105393695Y-68969371D02*
X105455600Y-69031276D01*
X105517505Y-68969371D01*
X105455600Y-68907466D01*
X105393695Y-68969371D01*
X105517505Y-68969371D01*
X106693695Y-67793180D02*
X106012743Y-67793180D01*
X105888933Y-67855085D01*
X105827029Y-67978895D01*
X105827029Y-68226514D01*
X105888933Y-68350323D01*
X106631790Y-67793180D02*
X106693695Y-67916990D01*
X106693695Y-68226514D01*
X106631790Y-68350323D01*
X106507981Y-68412228D01*
X106384171Y-68412228D01*
X106260362Y-68350323D01*
X106198457Y-68226514D01*
X106198457Y-67916990D01*
X106136552Y-67793180D01*
X106631790Y-66616990D02*
X106693695Y-66740800D01*
X106693695Y-66988419D01*
X106631790Y-67112228D01*
X106569886Y-67174133D01*
X106446076Y-67236038D01*
X106074648Y-67236038D01*
X105950838Y-67174133D01*
X105888933Y-67112228D01*
X105827029Y-66988419D01*
X105827029Y-66740800D01*
X105888933Y-66616990D01*
X106693695Y-65502704D02*
X106012743Y-65502704D01*
X105888933Y-65564609D01*
X105827029Y-65688419D01*
X105827029Y-65936038D01*
X105888933Y-66059847D01*
X106631790Y-65502704D02*
X106693695Y-65626514D01*
X106693695Y-65936038D01*
X106631790Y-66059847D01*
X106507981Y-66121752D01*
X106384171Y-66121752D01*
X106260362Y-66059847D01*
X106198457Y-65936038D01*
X106198457Y-65626514D01*
X106136552Y-65502704D01*
X106693695Y-64697943D02*
X106631790Y-64821752D01*
X106507981Y-64883657D01*
X105393695Y-64883657D01*
X106693695Y-62593182D02*
X106693695Y-63212229D01*
X105393695Y-63212229D01*
X106693695Y-61602705D02*
X106012743Y-61602705D01*
X105888933Y-61664610D01*
X105827029Y-61788420D01*
X105827029Y-62036039D01*
X105888933Y-62159848D01*
X106631790Y-61602705D02*
X106693695Y-61726515D01*
X106693695Y-62036039D01*
X106631790Y-62159848D01*
X106507981Y-62221753D01*
X106384171Y-62221753D01*
X106260362Y-62159848D01*
X106198457Y-62036039D01*
X106198457Y-61726515D01*
X106136552Y-61602705D01*
X106693695Y-60983658D02*
X105393695Y-60983658D01*
X105888933Y-60983658D02*
X105827029Y-60859849D01*
X105827029Y-60612230D01*
X105888933Y-60488420D01*
X105950838Y-60426515D01*
X106074648Y-60364611D01*
X106446076Y-60364611D01*
X106569886Y-60426515D01*
X106631790Y-60488420D01*
X106693695Y-60612230D01*
X106693695Y-60859849D01*
X106631790Y-60983658D01*
X106631790Y-59869373D02*
X106693695Y-59745563D01*
X106693695Y-59497944D01*
X106631790Y-59374135D01*
X106507981Y-59312230D01*
X106446076Y-59312230D01*
X106322267Y-59374135D01*
X106260362Y-59497944D01*
X106260362Y-59683659D01*
X106198457Y-59807468D01*
X106074648Y-59869373D01*
X106012743Y-59869373D01*
X105888933Y-59807468D01*
X105827029Y-59683659D01*
X105827029Y-59497944D01*
X105888933Y-59374135D01*
X108781790Y-74355084D02*
X108843695Y-74169370D01*
X108843695Y-73859846D01*
X108781790Y-73736036D01*
X108719886Y-73674132D01*
X108596076Y-73612227D01*
X108472267Y-73612227D01*
X108348457Y-73674132D01*
X108286552Y-73736036D01*
X108224648Y-73859846D01*
X108162743Y-74107465D01*
X108100838Y-74231274D01*
X108038933Y-74293179D01*
X107915124Y-74355084D01*
X107791314Y-74355084D01*
X107667505Y-74293179D01*
X107605600Y-74231274D01*
X107543695Y-74107465D01*
X107543695Y-73797941D01*
X107605600Y-73612227D01*
X107977029Y-72497941D02*
X108843695Y-72497941D01*
X107977029Y-73055084D02*
X108657981Y-73055084D01*
X108781790Y-72993179D01*
X108843695Y-72869370D01*
X108843695Y-72683656D01*
X108781790Y-72559846D01*
X108719886Y-72497941D01*
X107977029Y-71878894D02*
X109277029Y-71878894D01*
X108038933Y-71878894D02*
X107977029Y-71755085D01*
X107977029Y-71507466D01*
X108038933Y-71383656D01*
X108100838Y-71321751D01*
X108224648Y-71259847D01*
X108596076Y-71259847D01*
X108719886Y-71321751D01*
X108781790Y-71383656D01*
X108843695Y-71507466D01*
X108843695Y-71755085D01*
X108781790Y-71878894D01*
X108781790Y-70207466D02*
X108843695Y-70331276D01*
X108843695Y-70578895D01*
X108781790Y-70702704D01*
X108657981Y-70764609D01*
X108162743Y-70764609D01*
X108038933Y-70702704D01*
X107977029Y-70578895D01*
X107977029Y-70331276D01*
X108038933Y-70207466D01*
X108162743Y-70145561D01*
X108286552Y-70145561D01*
X108410362Y-70764609D01*
X108843695Y-69588418D02*
X107977029Y-69588418D01*
X108224648Y-69588418D02*
X108100838Y-69526513D01*
X108038933Y-69464609D01*
X107977029Y-69340799D01*
X107977029Y-69216990D01*
X107543695Y-67916990D02*
X107543695Y-67050323D01*
X108843695Y-67607466D01*
X108781790Y-65626514D02*
X108843695Y-65440800D01*
X108843695Y-65131276D01*
X108781790Y-65007466D01*
X108719886Y-64945562D01*
X108596076Y-64883657D01*
X108472267Y-64883657D01*
X108348457Y-64945562D01*
X108286552Y-65007466D01*
X108224648Y-65131276D01*
X108162743Y-65378895D01*
X108100838Y-65502704D01*
X108038933Y-65564609D01*
X107915124Y-65626514D01*
X107791314Y-65626514D01*
X107667505Y-65564609D01*
X107605600Y-65502704D01*
X107543695Y-65378895D01*
X107543695Y-65069371D01*
X107605600Y-64883657D01*
X108781790Y-63831276D02*
X108843695Y-63955086D01*
X108843695Y-64202705D01*
X108781790Y-64326514D01*
X108657981Y-64388419D01*
X108162743Y-64388419D01*
X108038933Y-64326514D01*
X107977029Y-64202705D01*
X107977029Y-63955086D01*
X108038933Y-63831276D01*
X108162743Y-63769371D01*
X108286552Y-63769371D01*
X108410362Y-64388419D01*
X107977029Y-62655085D02*
X109029410Y-62655085D01*
X109153219Y-62716990D01*
X109215124Y-62778895D01*
X109277029Y-62902704D01*
X109277029Y-63088419D01*
X109215124Y-63212228D01*
X108781790Y-62655085D02*
X108843695Y-62778895D01*
X108843695Y-63026514D01*
X108781790Y-63150323D01*
X108719886Y-63212228D01*
X108596076Y-63274133D01*
X108224648Y-63274133D01*
X108100838Y-63212228D01*
X108038933Y-63150323D01*
X107977029Y-63026514D01*
X107977029Y-62778895D01*
X108038933Y-62655085D01*
X108843695Y-62036038D02*
X107977029Y-62036038D01*
X108100838Y-62036038D02*
X108038933Y-61974133D01*
X107977029Y-61850324D01*
X107977029Y-61664610D01*
X108038933Y-61540800D01*
X108162743Y-61478895D01*
X108843695Y-61478895D01*
X108162743Y-61478895D02*
X108038933Y-61416991D01*
X107977029Y-61293181D01*
X107977029Y-61107467D01*
X108038933Y-60983657D01*
X108162743Y-60921752D01*
X108843695Y-60921752D01*
X108781790Y-59807467D02*
X108843695Y-59931277D01*
X108843695Y-60178896D01*
X108781790Y-60302705D01*
X108657981Y-60364610D01*
X108162743Y-60364610D01*
X108038933Y-60302705D01*
X107977029Y-60178896D01*
X107977029Y-59931277D01*
X108038933Y-59807467D01*
X108162743Y-59745562D01*
X108286552Y-59745562D01*
X108410362Y-60364610D01*
X107977029Y-59188419D02*
X108843695Y-59188419D01*
X108100838Y-59188419D02*
X108038933Y-59126514D01*
X107977029Y-59002705D01*
X107977029Y-58816991D01*
X108038933Y-58693181D01*
X108162743Y-58631276D01*
X108843695Y-58631276D01*
X107977029Y-58197943D02*
X107977029Y-57702705D01*
X107543695Y-58012229D02*
X108657981Y-58012229D01*
X108781790Y-57950324D01*
X108843695Y-57826515D01*
X108843695Y-57702705D01*
X110869886Y-69866989D02*
X110931790Y-69928894D01*
X110993695Y-70114608D01*
X110993695Y-70238418D01*
X110931790Y-70424132D01*
X110807981Y-70547941D01*
X110684171Y-70609846D01*
X110436552Y-70671751D01*
X110250838Y-70671751D01*
X110003219Y-70609846D01*
X109879410Y-70547941D01*
X109755600Y-70424132D01*
X109693695Y-70238418D01*
X109693695Y-70114608D01*
X109755600Y-69928894D01*
X109817505Y-69866989D01*
X110993695Y-69124132D02*
X110931790Y-69247941D01*
X110869886Y-69309846D01*
X110746076Y-69371751D01*
X110374648Y-69371751D01*
X110250838Y-69309846D01*
X110188933Y-69247941D01*
X110127029Y-69124132D01*
X110127029Y-68938418D01*
X110188933Y-68814608D01*
X110250838Y-68752703D01*
X110374648Y-68690799D01*
X110746076Y-68690799D01*
X110869886Y-68752703D01*
X110931790Y-68814608D01*
X110993695Y-68938418D01*
X110993695Y-69124132D01*
X110127029Y-68133656D02*
X110993695Y-68133656D01*
X110250838Y-68133656D02*
X110188933Y-68071751D01*
X110127029Y-67947942D01*
X110127029Y-67762228D01*
X110188933Y-67638418D01*
X110312743Y-67576513D01*
X110993695Y-67576513D01*
X110127029Y-67143180D02*
X110127029Y-66647942D01*
X109693695Y-66957466D02*
X110807981Y-66957466D01*
X110931790Y-66895561D01*
X110993695Y-66771752D01*
X110993695Y-66647942D01*
X110993695Y-66214609D02*
X110127029Y-66214609D01*
X110374648Y-66214609D02*
X110250838Y-66152704D01*
X110188933Y-66090800D01*
X110127029Y-65966990D01*
X110127029Y-65843181D01*
X110993695Y-65224133D02*
X110931790Y-65347942D01*
X110869886Y-65409847D01*
X110746076Y-65471752D01*
X110374648Y-65471752D01*
X110250838Y-65409847D01*
X110188933Y-65347942D01*
X110127029Y-65224133D01*
X110127029Y-65038419D01*
X110188933Y-64914609D01*
X110250838Y-64852704D01*
X110374648Y-64790800D01*
X110746076Y-64790800D01*
X110869886Y-64852704D01*
X110931790Y-64914609D01*
X110993695Y-65038419D01*
X110993695Y-65224133D01*
X110993695Y-64047943D02*
X110931790Y-64171752D01*
X110807981Y-64233657D01*
X109693695Y-64233657D01*
X110993695Y-63366991D02*
X110931790Y-63490800D01*
X110807981Y-63552705D01*
X109693695Y-63552705D01*
X110931790Y-62376515D02*
X110993695Y-62500325D01*
X110993695Y-62747944D01*
X110931790Y-62871753D01*
X110807981Y-62933658D01*
X110312743Y-62933658D01*
X110188933Y-62871753D01*
X110127029Y-62747944D01*
X110127029Y-62500325D01*
X110188933Y-62376515D01*
X110312743Y-62314610D01*
X110436552Y-62314610D01*
X110560362Y-62933658D01*
X110993695Y-61757467D02*
X110127029Y-61757467D01*
X110374648Y-61757467D02*
X110250838Y-61695562D01*
X110188933Y-61633658D01*
X110127029Y-61509848D01*
X110127029Y-61386039D01*
X113143695Y-71166990D02*
X112277029Y-71166990D01*
X112524648Y-71166990D02*
X112400838Y-71105085D01*
X112338933Y-71043181D01*
X112277029Y-70919371D01*
X112277029Y-70795562D01*
X113081790Y-69866990D02*
X113143695Y-69990800D01*
X113143695Y-70238419D01*
X113081790Y-70362228D01*
X112957981Y-70424133D01*
X112462743Y-70424133D01*
X112338933Y-70362228D01*
X112277029Y-70238419D01*
X112277029Y-69990800D01*
X112338933Y-69866990D01*
X112462743Y-69805085D01*
X112586552Y-69805085D01*
X112710362Y-70424133D01*
X113143695Y-69247942D02*
X112277029Y-69247942D01*
X112400838Y-69247942D02*
X112338933Y-69186037D01*
X112277029Y-69062228D01*
X112277029Y-68876514D01*
X112338933Y-68752704D01*
X112462743Y-68690799D01*
X113143695Y-68690799D01*
X112462743Y-68690799D02*
X112338933Y-68628895D01*
X112277029Y-68505085D01*
X112277029Y-68319371D01*
X112338933Y-68195561D01*
X112462743Y-68133656D01*
X113143695Y-68133656D01*
X113143695Y-67514609D02*
X112277029Y-67514609D01*
X111843695Y-67514609D02*
X111905600Y-67576514D01*
X111967505Y-67514609D01*
X111905600Y-67452704D01*
X111843695Y-67514609D01*
X111967505Y-67514609D01*
X113143695Y-67019371D02*
X112277029Y-66338418D01*
X112277029Y-67019371D02*
X113143695Y-66338418D01*
X113081790Y-65347942D02*
X113143695Y-65471752D01*
X113143695Y-65719371D01*
X113081790Y-65843180D01*
X112957981Y-65905085D01*
X112462743Y-65905085D01*
X112338933Y-65843180D01*
X112277029Y-65719371D01*
X112277029Y-65471752D01*
X112338933Y-65347942D01*
X112462743Y-65286037D01*
X112586552Y-65286037D01*
X112710362Y-65905085D01*
X113143695Y-64171751D02*
X111843695Y-64171751D01*
X113081790Y-64171751D02*
X113143695Y-64295561D01*
X113143695Y-64543180D01*
X113081790Y-64666989D01*
X113019886Y-64728894D01*
X112896076Y-64790799D01*
X112524648Y-64790799D01*
X112400838Y-64728894D01*
X112338933Y-64666989D01*
X112277029Y-64543180D01*
X112277029Y-64295561D01*
X112338933Y-64171751D01*
X113143695Y-62562228D02*
X111843695Y-62562228D01*
X112338933Y-62562228D02*
X112277029Y-62438419D01*
X112277029Y-62190800D01*
X112338933Y-62066990D01*
X112400838Y-62005085D01*
X112524648Y-61943181D01*
X112896076Y-61943181D01*
X113019886Y-62005085D01*
X113081790Y-62066990D01*
X113143695Y-62190800D01*
X113143695Y-62438419D01*
X113081790Y-62562228D01*
X112277029Y-61509848D02*
X113143695Y-61200324D01*
X112277029Y-60890800D02*
X113143695Y-61200324D01*
X113453219Y-61324133D01*
X113515124Y-61386038D01*
X113577029Y-61509848D01*
X114674648Y-71105084D02*
X114612743Y-71166989D01*
X114550838Y-71290799D01*
X114550838Y-71414608D01*
X114612743Y-71538418D01*
X114674648Y-71600322D01*
X114798457Y-71662227D01*
X114922267Y-71662227D01*
X115046076Y-71600322D01*
X115107981Y-71538418D01*
X115169886Y-71414608D01*
X115169886Y-71290799D01*
X115107981Y-71166989D01*
X115046076Y-71105084D01*
X114550838Y-71105084D02*
X115046076Y-71105084D01*
X115107981Y-71043180D01*
X115107981Y-70981275D01*
X115046076Y-70857465D01*
X114922267Y-70795560D01*
X114612743Y-70795560D01*
X114427029Y-70919370D01*
X114303219Y-71105084D01*
X114241314Y-71352703D01*
X114303219Y-71600322D01*
X114427029Y-71786037D01*
X114612743Y-71909846D01*
X114860362Y-71971751D01*
X115107981Y-71909846D01*
X115293695Y-71786037D01*
X115417505Y-71600322D01*
X115479410Y-71352703D01*
X115417505Y-71105084D01*
X115293695Y-70919370D01*
X115293695Y-70238417D02*
X113993695Y-70238417D01*
X113993695Y-69928893D01*
X114055600Y-69743179D01*
X114179410Y-69619370D01*
X114303219Y-69557465D01*
X114550838Y-69495560D01*
X114736552Y-69495560D01*
X114984171Y-69557465D01*
X115107981Y-69619370D01*
X115231790Y-69743179D01*
X115293695Y-69928893D01*
X115293695Y-70238417D01*
X115293695Y-68938417D02*
X114427029Y-68938417D01*
X113993695Y-68938417D02*
X114055600Y-69000322D01*
X114117505Y-68938417D01*
X114055600Y-68876512D01*
X113993695Y-68938417D01*
X114117505Y-68938417D01*
X115293695Y-68133655D02*
X115231790Y-68257464D01*
X115107981Y-68319369D01*
X113993695Y-68319369D01*
X115293695Y-67452703D02*
X115231790Y-67576512D01*
X115107981Y-67638417D01*
X113993695Y-67638417D01*
X115293695Y-66771751D02*
X115231790Y-66895560D01*
X115169886Y-66957465D01*
X115046076Y-67019370D01*
X114674648Y-67019370D01*
X114550838Y-66957465D01*
X114488933Y-66895560D01*
X114427029Y-66771751D01*
X114427029Y-66586037D01*
X114488933Y-66462227D01*
X114550838Y-66400322D01*
X114674648Y-66338418D01*
X115046076Y-66338418D01*
X115169886Y-66400322D01*
X115231790Y-66462227D01*
X115293695Y-66586037D01*
X115293695Y-66771751D01*
X114427029Y-65781275D02*
X115293695Y-65781275D01*
X114550838Y-65781275D02*
X114488933Y-65719370D01*
X114427029Y-65595561D01*
X114427029Y-65409847D01*
X114488933Y-65286037D01*
X114612743Y-65224132D01*
X115293695Y-65224132D01*
X115293695Y-63924133D02*
X115293695Y-64666990D01*
X115293695Y-64295561D02*
X113993695Y-64295561D01*
X114179410Y-64419371D01*
X114303219Y-64543180D01*
X114365124Y-64666990D01*
X113993695Y-63490800D02*
X113993695Y-62686038D01*
X114488933Y-63119371D01*
X114488933Y-62933657D01*
X114550838Y-62809847D01*
X114612743Y-62747943D01*
X114736552Y-62686038D01*
X115046076Y-62686038D01*
X115169886Y-62747943D01*
X115231790Y-62809847D01*
X115293695Y-62933657D01*
X115293695Y-63305085D01*
X115231790Y-63428895D01*
X115169886Y-63490800D01*
X113993695Y-62252705D02*
X113993695Y-61447943D01*
X114488933Y-61881276D01*
X114488933Y-61695562D01*
X114550838Y-61571752D01*
X114612743Y-61509848D01*
X114736552Y-61447943D01*
X115046076Y-61447943D01*
X115169886Y-61509848D01*
X115231790Y-61571752D01*
X115293695Y-61695562D01*
X115293695Y-62066990D01*
X115231790Y-62190800D01*
X115169886Y-62252705D01*
X113993695Y-61014610D02*
X113993695Y-60147943D01*
X115293695Y-60705086D01*
X116577029Y-71105085D02*
X116577029Y-70609847D01*
X116143695Y-70919371D02*
X117257981Y-70919371D01*
X117381790Y-70857466D01*
X117443695Y-70733657D01*
X117443695Y-70609847D01*
X117443695Y-70176514D02*
X116577029Y-70176514D01*
X116143695Y-70176514D02*
X116205600Y-70238419D01*
X116267505Y-70176514D01*
X116205600Y-70114609D01*
X116143695Y-70176514D01*
X116267505Y-70176514D01*
X116577029Y-69557466D02*
X117443695Y-69557466D01*
X116700838Y-69557466D02*
X116638933Y-69495561D01*
X116577029Y-69371752D01*
X116577029Y-69186038D01*
X116638933Y-69062228D01*
X116762743Y-69000323D01*
X117443695Y-69000323D01*
X117443695Y-68381276D02*
X116143695Y-68381276D01*
X116948457Y-68257467D02*
X117443695Y-67886038D01*
X116577029Y-67886038D02*
X117072267Y-68381276D01*
X117381790Y-66833657D02*
X117443695Y-66957467D01*
X117443695Y-67205086D01*
X117381790Y-67328895D01*
X117257981Y-67390800D01*
X116762743Y-67390800D01*
X116638933Y-67328895D01*
X116577029Y-67205086D01*
X116577029Y-66957467D01*
X116638933Y-66833657D01*
X116762743Y-66771752D01*
X116886552Y-66771752D01*
X117010362Y-67390800D01*
X117443695Y-66214609D02*
X116577029Y-66214609D01*
X116824648Y-66214609D02*
X116700838Y-66152704D01*
X116638933Y-66090800D01*
X116577029Y-65966990D01*
X116577029Y-65843181D01*
X117381790Y-64914609D02*
X117443695Y-65038419D01*
X117443695Y-65286038D01*
X117381790Y-65409847D01*
X117257981Y-65471752D01*
X116762743Y-65471752D01*
X116638933Y-65409847D01*
X116577029Y-65286038D01*
X116577029Y-65038419D01*
X116638933Y-64914609D01*
X116762743Y-64852704D01*
X116886552Y-64852704D01*
X117010362Y-65471752D01*
X117443695Y-64295561D02*
X116577029Y-64295561D01*
X116824648Y-64295561D02*
X116700838Y-64233656D01*
X116638933Y-64171752D01*
X116577029Y-64047942D01*
X116577029Y-63924133D01*
X117319886Y-63490799D02*
X117381790Y-63428894D01*
X117443695Y-63490799D01*
X117381790Y-63552704D01*
X117319886Y-63490799D01*
X117443695Y-63490799D01*
X116577029Y-62314608D02*
X117443695Y-62314608D01*
X116577029Y-62871751D02*
X117257981Y-62871751D01*
X117381790Y-62809846D01*
X117443695Y-62686037D01*
X117443695Y-62500323D01*
X117381790Y-62376513D01*
X117319886Y-62314608D01*
X117381790Y-61757466D02*
X117443695Y-61633656D01*
X117443695Y-61386037D01*
X117381790Y-61262228D01*
X117257981Y-61200323D01*
X117196076Y-61200323D01*
X117072267Y-61262228D01*
X117010362Y-61386037D01*
X117010362Y-61571752D01*
X116948457Y-61695561D01*
X116824648Y-61757466D01*
X116762743Y-61757466D01*
X116638933Y-61695561D01*
X116577029Y-61571752D01*
X116577029Y-61386037D01*
X116638933Y-61262228D01*
D12*
X98035000Y-71790000D02*
X98035000Y-72990000D01*
X96275000Y-72990000D02*
X96275000Y-71790000D01*
X95495000Y-71790000D02*
X95495000Y-72990000D01*
X93735000Y-72990000D02*
X93735000Y-71790000D01*
X92955000Y-71790000D02*
X92955000Y-72990000D01*
X91195000Y-72990000D02*
X91195000Y-71790000D01*
X90415000Y-71790000D02*
X90415000Y-72990000D01*
X88655000Y-72990000D02*
X88655000Y-71790000D01*
X87875000Y-71790000D02*
X87875000Y-72990000D01*
X86115000Y-72990000D02*
X86115000Y-71790000D01*
X85335000Y-71790000D02*
X85335000Y-72990000D01*
X83575000Y-72990000D02*
X83575000Y-71790000D01*
X82795000Y-71790000D02*
X82795000Y-72990000D01*
X81035000Y-72990000D02*
X81035000Y-71790000D01*
X80255000Y-71790000D02*
X80255000Y-72990000D01*
X78495000Y-72990000D02*
X78495000Y-71790000D01*
X77715000Y-71790000D02*
X77715000Y-72990000D01*
X75955000Y-72990000D02*
X75955000Y-71790000D01*
X96275000Y-60290000D02*
X96275000Y-59090000D01*
X98035000Y-59090000D02*
X98035000Y-60290000D01*
X93735000Y-60290000D02*
X93735000Y-59090000D01*
X95495000Y-59090000D02*
X95495000Y-60290000D01*
X91195000Y-60290000D02*
X91195000Y-59090000D01*
X92955000Y-59090000D02*
X92955000Y-60290000D01*
X88655000Y-60290000D02*
X88655000Y-59090000D01*
X90415000Y-59090000D02*
X90415000Y-60290000D01*
X81035000Y-60290000D02*
X81035000Y-59090000D01*
X82795000Y-59090000D02*
X82795000Y-60290000D01*
X78495000Y-60290000D02*
X78495000Y-59090000D01*
X80255000Y-59090000D02*
X80255000Y-60290000D01*
X75955000Y-60290000D02*
X75955000Y-59090000D01*
X77715000Y-59090000D02*
X77715000Y-60290000D01*
M02*
