G04 #@! TF.FileFunction,Soldermask,Bot*
%FSLAX46Y46*%
G04 Gerber Fmt 4.6, Leading zero omitted, Abs format (unit mm)*
G04 Created by KiCad (PCBNEW 4.0.7) date 05/03/18 08:09:56*
%MOMM*%
%LPD*%
G01*
G04 APERTURE LIST*
%ADD10C,0.100000*%
%ADD11O,1.600000X2.400000*%
%ADD12R,2.127200X2.432000*%
%ADD13O,2.127200X2.432000*%
%ADD14R,1.900000X1.000000*%
G04 APERTURE END LIST*
D10*
D11*
X71140000Y-54575000D03*
X71140000Y-77425000D03*
X73680000Y-54575000D03*
X73680000Y-77425000D03*
X76220000Y-54575000D03*
X76220000Y-77425000D03*
X78760000Y-54575000D03*
X78760000Y-77425000D03*
X81300000Y-54575000D03*
X81300000Y-77425000D03*
X83840000Y-54575000D03*
X83840000Y-77425000D03*
X86380000Y-54575000D03*
X86380000Y-77425000D03*
X88920000Y-54575000D03*
X88920000Y-77425000D03*
X91460000Y-54575000D03*
X91460000Y-77425000D03*
X94000000Y-54575000D03*
X94000000Y-77425000D03*
X96540000Y-54575000D03*
X96540000Y-77425000D03*
X99080000Y-54575000D03*
X99080000Y-77425000D03*
X101620000Y-54575000D03*
X101620000Y-77425000D03*
X104160000Y-54575000D03*
X104160000Y-77425000D03*
X106700000Y-54575000D03*
X106700000Y-77425000D03*
X109240000Y-54575000D03*
X109240000Y-77425000D03*
X111780000Y-54575000D03*
X111780000Y-77425000D03*
X114320000Y-54575000D03*
X114320000Y-77425000D03*
X116860000Y-54575000D03*
X116860000Y-77425000D03*
D12*
X102235000Y-64770000D03*
D13*
X99695000Y-64770000D03*
X97155000Y-64770000D03*
X94615000Y-64770000D03*
X92075000Y-64770000D03*
X89535000Y-64770000D03*
X86995000Y-64770000D03*
X84455000Y-64770000D03*
X81915000Y-64770000D03*
X79375000Y-64770000D03*
X76835000Y-64770000D03*
X74295000Y-64770000D03*
X71755000Y-64770000D03*
D12*
X97155000Y-67310000D03*
D13*
X94615000Y-67310000D03*
X92075000Y-67310000D03*
X89535000Y-67310000D03*
X86995000Y-67310000D03*
X84455000Y-67310000D03*
X81915000Y-67310000D03*
X79375000Y-67310000D03*
X76835000Y-67310000D03*
D14*
X110700000Y-58455000D03*
X110700000Y-59725000D03*
X110700000Y-60995000D03*
X110700000Y-62265000D03*
X110700000Y-63535000D03*
X110700000Y-64805000D03*
X110700000Y-66075000D03*
X110700000Y-67345000D03*
X105300000Y-67345000D03*
X105300000Y-66075000D03*
X105300000Y-64805000D03*
X105300000Y-63535000D03*
X105300000Y-62265000D03*
X105300000Y-60995000D03*
X105300000Y-59725000D03*
X105300000Y-58455000D03*
M02*
