G04 #@! TF.FileFunction,Profile,NP*
%FSLAX46Y46*%
G04 Gerber Fmt 4.6, Leading zero omitted, Abs format (unit mm)*
G04 Created by KiCad (PCBNEW 4.0.7) date Thursday, February 08, 2018 'PMt' 08:56:59 PM*
%MOMM*%
%LPD*%
G01*
G04 APERTURE LIST*
%ADD10C,0.100000*%
%ADD11C,0.150000*%
G04 APERTURE END LIST*
D10*
D11*
X106045000Y-100330000D02*
X139065000Y-100330000D01*
X178435000Y-100330000D02*
X211455000Y-100330000D01*
X142240000Y-100330000D02*
X175260000Y-100330000D01*
X69850000Y-100330000D02*
X102870000Y-100330000D01*
X176847500Y-98742500D02*
G75*
G03X175260000Y-100330000I0J-1587500D01*
G01*
X104457500Y-98742500D02*
G75*
G03X102870000Y-100330000I0J-1587500D01*
G01*
X106045000Y-100330000D02*
G75*
G03X104457500Y-98742500I-1587500J0D01*
G01*
X178435000Y-100330000D02*
G75*
G03X176847500Y-98742500I-1587500J0D01*
G01*
X142240000Y-67310000D02*
X175260000Y-67310000D01*
X178435000Y-67310000D02*
X211455000Y-67310000D01*
X106045000Y-67310000D02*
X139065000Y-67310000D01*
X69850000Y-67310000D02*
X102870000Y-67310000D01*
X104457500Y-68897500D02*
G75*
G03X106045000Y-67310000I0J1587500D01*
G01*
X176847500Y-68897500D02*
G75*
G03X178435000Y-67310000I0J1587500D01*
G01*
X175260000Y-67310000D02*
G75*
G03X176847500Y-68897500I1587500J0D01*
G01*
X102870000Y-67310000D02*
G75*
G03X104457500Y-68897500I1587500J0D01*
G01*
X229235000Y-100330000D02*
X214630000Y-100330000D01*
X214630000Y-67310000D02*
X229235000Y-67310000D01*
X53340000Y-67310000D02*
X53975000Y-67310000D01*
X53340000Y-100330000D02*
X53975000Y-100330000D01*
X52070000Y-100330000D02*
X53657500Y-100330000D01*
X52070000Y-67310000D02*
X53657500Y-67310000D01*
X230822500Y-98679000D02*
X230822500Y-68961000D01*
X230822500Y-98742500D02*
G75*
G03X229235000Y-100330000I0J-1587500D01*
G01*
X229235000Y-67310000D02*
G75*
G03X230822500Y-68897500I1587500J0D01*
G01*
X53721000Y-100330000D02*
X66675000Y-100330000D01*
X53721000Y-67310000D02*
X66675000Y-67310000D01*
X50482500Y-68961000D02*
X50482500Y-73660000D01*
X50482500Y-98679000D02*
X50482500Y-94615000D01*
X52070000Y-100330000D02*
G75*
G03X50482500Y-98742500I-1587500J0D01*
G01*
X50482500Y-68897500D02*
G75*
G03X52070000Y-67310000I0J1587500D01*
G01*
X139065000Y-67310000D02*
G75*
G03X140652500Y-68897500I1587500J0D01*
G01*
X211455000Y-67310000D02*
G75*
G03X213042500Y-68897500I1587500J0D01*
G01*
X213042500Y-68897500D02*
G75*
G03X214630000Y-67310000I0J1587500D01*
G01*
X213042500Y-98742500D02*
G75*
G03X211455000Y-100330000I0J-1587500D01*
G01*
X214630000Y-100330000D02*
G75*
G03X213042500Y-98742500I-1587500J0D01*
G01*
X69850000Y-100330000D02*
G75*
G03X68262500Y-98742500I-1587500J0D01*
G01*
X68262500Y-98742500D02*
G75*
G03X66675000Y-100330000I0J-1587500D01*
G01*
X68262500Y-68897500D02*
G75*
G03X69850000Y-67310000I0J1587500D01*
G01*
X66675000Y-67310000D02*
G75*
G03X68262500Y-68897500I1587500J0D01*
G01*
X50482500Y-78740000D02*
X50482500Y-73660000D01*
X50482500Y-88900000D02*
X50482500Y-94615000D01*
X140652500Y-98742500D02*
G75*
G03X139065000Y-100330000I0J-1587500D01*
G01*
X142240000Y-100330000D02*
G75*
G03X140652500Y-98742500I-1587500J0D01*
G01*
X140652500Y-68897500D02*
G75*
G03X142240000Y-67310000I0J1587500D01*
G01*
X50482500Y-78740000D02*
X50482500Y-88900000D01*
M02*
