M48
INCH,TZ
T1C0.013
T2C0.040
%
G90
G05
T1
X74250Y-23000
X74250Y-30000
X75250Y-23250
X75250Y-29750
X76250Y-23500
X76250Y-29500
X77250Y-29250
X78250Y-29000
X79250Y-23750
X79250Y-28750
X80250Y-24000
X80250Y-28500
X81250Y-24250
X81250Y-28250
X87000Y-22750
X88000Y-23000
X88000Y-30000
X89000Y-23250
X89000Y-29750
X90000Y-23500
X90000Y-29500
X91000Y-29250
X92000Y-29000
X93000Y-23750
X93000Y-28750
X94000Y-28500
X95000Y-28250
X100000Y-24000
X100500Y-24250
X101000Y-22750
X101000Y-30250
X102000Y-23000
X102000Y-30000
X103000Y-23250
X103000Y-29750
X104000Y-23500
X104000Y-29500
X105000Y-29250
X106000Y-29000
X107000Y-23750
X107000Y-28750
X108000Y-24000
X108000Y-28500
X109000Y-24250
X109000Y-28250
X115000Y-22750
X116000Y-23000
X116000Y-30000
X117000Y-23250
X117000Y-29750
X118000Y-23500
X118000Y-29500
X118750Y-24500
X119000Y-29250
X120000Y-29000
X121000Y-23750
X121000Y-28750
X122000Y-24000
X122000Y-28500
X123000Y-24250
X123000Y-28250
X129000Y-22750
X130000Y-23000
X130000Y-30000
X131000Y-23250
X131000Y-29750
X132000Y-23500
X132000Y-29500
X133000Y-29250
X134000Y-29000
X135000Y-23750
X135000Y-28750
X136000Y-24000
X136000Y-28500
X137000Y-24250
X137000Y-28250
T2
X72375Y-22169
X72375Y-30831
X73375Y-22169
X73375Y-30831
X74375Y-22169
X74375Y-30831
X75375Y-22169
X75375Y-30831
X76375Y-22169
X76375Y-30831
X77375Y-22169
X77375Y-30831
X78375Y-22169
X78375Y-30831
X79375Y-22169
X79375Y-30831
X80375Y-22169
X80375Y-30831
X86625Y-22169
X86625Y-30831
X87625Y-22169
X87625Y-30831
X88625Y-22169
X88625Y-30831
X89625Y-22169
X89625Y-30831
X90625Y-22169
X90625Y-30831
X91625Y-22169
X91625Y-30831
X92625Y-22169
X92625Y-30831
X93625Y-22169
X93625Y-30831
X94625Y-22169
X94625Y-30831
X99000Y-26000
X100000Y-26000
X100875Y-22169
X100875Y-30831
X101000Y-26000
X101000Y-27000
X101875Y-22169
X101875Y-30831
X102000Y-26000
X102000Y-27000
X102875Y-22169
X102875Y-30831
X103000Y-26000
X103000Y-27000
X103875Y-22169
X103875Y-30831
X104000Y-26000
X104000Y-27000
X104875Y-22169
X104875Y-30831
X105000Y-26000
X105000Y-27000
X105875Y-22169
X105875Y-30831
X106000Y-26000
X106000Y-27000
X106875Y-22169
X106875Y-30831
X107000Y-26000
X107000Y-27000
X107875Y-22169
X107875Y-30831
X108000Y-26000
X108000Y-27000
X108875Y-22169
X108875Y-30831
X109000Y-26000
X109000Y-27000
X110000Y-26000
X111000Y-26000
X115125Y-22169
X115125Y-30831
X116125Y-22169
X116125Y-30831
X117125Y-22169
X117125Y-30831
X118125Y-22169
X118125Y-30831
X119125Y-22169
X119125Y-30831
X120125Y-22169
X120125Y-30831
X121125Y-22169
X121125Y-30831
X122125Y-22169
X122125Y-30831
X123125Y-22169
X123125Y-30831
X129375Y-22169
X129375Y-30831
X130375Y-22169
X130375Y-30831
X131375Y-22169
X131375Y-30831
X132375Y-22169
X132375Y-30831
X133375Y-22169
X133375Y-30831
X134375Y-22169
X134375Y-30831
X135375Y-22169
X135375Y-30831
X136375Y-22169
X136375Y-30831
X137375Y-22169
X137375Y-30831
T0
M30
