G04 #@! TF.FileFunction,Profile,NP*
%FSLAX46Y46*%
G04 Gerber Fmt 4.6, Leading zero omitted, Abs format (unit mm)*
G04 Created by KiCad (PCBNEW 4.0.7) date 02/08/18 16:03:48*
%MOMM*%
%LPD*%
G01*
G04 APERTURE LIST*
%ADD10C,0.100000*%
%ADD11C,0.150000*%
G04 APERTURE END LIST*
D10*
D11*
X195580000Y-83820000D02*
X264795000Y-83820000D01*
X337185000Y-83820000D02*
X267970000Y-83820000D01*
X354965000Y-83820000D02*
X340360000Y-83820000D01*
X340360000Y-50800000D02*
X354965000Y-50800000D01*
X267970000Y-50800000D02*
X337185000Y-50800000D01*
X195580000Y-50800000D02*
X264795000Y-50800000D01*
X179070000Y-50800000D02*
X179705000Y-50800000D01*
X179070000Y-83820000D02*
X179705000Y-83820000D01*
X177800000Y-83820000D02*
X179387500Y-83820000D01*
X177800000Y-50800000D02*
X179387500Y-50800000D01*
X356552500Y-82169000D02*
X356552500Y-52451000D01*
X356552500Y-82232500D02*
G75*
G03X354965000Y-83820000I0J-1587500D01*
G01*
X354965000Y-50800000D02*
G75*
G03X356552500Y-52387500I1587500J0D01*
G01*
X179451000Y-83820000D02*
X192405000Y-83820000D01*
X179451000Y-50800000D02*
X192405000Y-50800000D01*
X176212500Y-52451000D02*
X176212500Y-57150000D01*
X176212500Y-82169000D02*
X176212500Y-78105000D01*
X177800000Y-83820000D02*
G75*
G03X176212500Y-82232500I-1587500J0D01*
G01*
X176212500Y-52387500D02*
G75*
G03X177800000Y-50800000I0J1587500D01*
G01*
X264795000Y-50800000D02*
G75*
G03X266382500Y-52387500I1587500J0D01*
G01*
X337185000Y-50800000D02*
G75*
G03X338772500Y-52387500I1587500J0D01*
G01*
X338772500Y-52387500D02*
G75*
G03X340360000Y-50800000I0J1587500D01*
G01*
X338772500Y-82232500D02*
G75*
G03X337185000Y-83820000I0J-1587500D01*
G01*
X340360000Y-83820000D02*
G75*
G03X338772500Y-82232500I-1587500J0D01*
G01*
X195580000Y-83820000D02*
G75*
G03X193992500Y-82232500I-1587500J0D01*
G01*
X193992500Y-82232500D02*
G75*
G03X192405000Y-83820000I0J-1587500D01*
G01*
X193992500Y-52387500D02*
G75*
G03X195580000Y-50800000I0J1587500D01*
G01*
X192405000Y-50800000D02*
G75*
G03X193992500Y-52387500I1587500J0D01*
G01*
X176212500Y-62230000D02*
X176212500Y-57150000D01*
X176212500Y-72390000D02*
X176212500Y-78105000D01*
X266382500Y-82232500D02*
G75*
G03X264795000Y-83820000I0J-1587500D01*
G01*
X267970000Y-83820000D02*
G75*
G03X266382500Y-82232500I-1587500J0D01*
G01*
X266382500Y-52387500D02*
G75*
G03X267970000Y-50800000I0J1587500D01*
G01*
X176212500Y-62230000D02*
X176212500Y-72390000D01*
M02*
