G04 #@! TF.FileFunction,Legend,Bot*
%FSLAX46Y46*%
G04 Gerber Fmt 4.6, Leading zero omitted, Abs format (unit mm)*
G04 Created by KiCad (PCBNEW 4.0.7) date 02/08/18 16:12:07*
%MOMM*%
%LPD*%
G01*
G04 APERTURE LIST*
%ADD10C,0.100000*%
%ADD11C,0.254000*%
%ADD12C,0.200000*%
%ADD13C,0.010000*%
%ADD14C,0.150000*%
G04 APERTURE END LIST*
D10*
D11*
X276569712Y-63227857D02*
X276618093Y-63276238D01*
X276763236Y-63324619D01*
X276859998Y-63324619D01*
X277005140Y-63276238D01*
X277101902Y-63179476D01*
X277150283Y-63082714D01*
X277198664Y-62889190D01*
X277198664Y-62744048D01*
X277150283Y-62550524D01*
X277101902Y-62453762D01*
X277005140Y-62357000D01*
X276859998Y-62308619D01*
X276763236Y-62308619D01*
X276618093Y-62357000D01*
X276569712Y-62405381D01*
X275989140Y-63324619D02*
X276085902Y-63276238D01*
X276134283Y-63227857D01*
X276182664Y-63131095D01*
X276182664Y-62840810D01*
X276134283Y-62744048D01*
X276085902Y-62695667D01*
X275989140Y-62647286D01*
X275843998Y-62647286D01*
X275747236Y-62695667D01*
X275698855Y-62744048D01*
X275650474Y-62840810D01*
X275650474Y-63131095D01*
X275698855Y-63227857D01*
X275747236Y-63276238D01*
X275843998Y-63324619D01*
X275989140Y-63324619D01*
X275215045Y-62647286D02*
X275215045Y-63324619D01*
X275215045Y-62744048D02*
X275166664Y-62695667D01*
X275069902Y-62647286D01*
X274924760Y-62647286D01*
X274827998Y-62695667D01*
X274779617Y-62792429D01*
X274779617Y-63324619D01*
X274440950Y-62647286D02*
X274053902Y-62647286D01*
X274295807Y-62308619D02*
X274295807Y-63179476D01*
X274247426Y-63276238D01*
X274150664Y-63324619D01*
X274053902Y-63324619D01*
X273715236Y-63324619D02*
X273715236Y-62647286D01*
X273715236Y-62840810D02*
X273666855Y-62744048D01*
X273618474Y-62695667D01*
X273521712Y-62647286D01*
X273424951Y-62647286D01*
X272941141Y-63324619D02*
X273037903Y-63276238D01*
X273086284Y-63227857D01*
X273134665Y-63131095D01*
X273134665Y-62840810D01*
X273086284Y-62744048D01*
X273037903Y-62695667D01*
X272941141Y-62647286D01*
X272795999Y-62647286D01*
X272699237Y-62695667D01*
X272650856Y-62744048D01*
X272602475Y-62840810D01*
X272602475Y-63131095D01*
X272650856Y-63227857D01*
X272699237Y-63276238D01*
X272795999Y-63324619D01*
X272941141Y-63324619D01*
X272021903Y-63324619D02*
X272118665Y-63276238D01*
X272167046Y-63179476D01*
X272167046Y-62308619D01*
X271489713Y-63324619D02*
X271586475Y-63276238D01*
X271634856Y-63179476D01*
X271634856Y-62308619D01*
X270715619Y-63276238D02*
X270812381Y-63324619D01*
X271005904Y-63324619D01*
X271102666Y-63276238D01*
X271151047Y-63179476D01*
X271151047Y-62792429D01*
X271102666Y-62695667D01*
X271005904Y-62647286D01*
X270812381Y-62647286D01*
X270715619Y-62695667D01*
X270667238Y-62792429D01*
X270667238Y-62889190D01*
X271151047Y-62985952D01*
X270231809Y-63324619D02*
X270231809Y-62647286D01*
X270231809Y-62840810D02*
X270183428Y-62744048D01*
X270135047Y-62695667D01*
X270038285Y-62647286D01*
X269941524Y-62647286D01*
X268828762Y-63324619D02*
X268828762Y-62308619D01*
X268828762Y-62792429D02*
X268248191Y-62792429D01*
X268248191Y-63324619D02*
X268248191Y-62308619D01*
X267377334Y-63276238D02*
X267474096Y-63324619D01*
X267667619Y-63324619D01*
X267764381Y-63276238D01*
X267812762Y-63179476D01*
X267812762Y-62792429D01*
X267764381Y-62695667D01*
X267667619Y-62647286D01*
X267474096Y-62647286D01*
X267377334Y-62695667D01*
X267328953Y-62792429D01*
X267328953Y-62889190D01*
X267812762Y-62985952D01*
X266458096Y-63324619D02*
X266458096Y-62792429D01*
X266506477Y-62695667D01*
X266603239Y-62647286D01*
X266796762Y-62647286D01*
X266893524Y-62695667D01*
X266458096Y-63276238D02*
X266554858Y-63324619D01*
X266796762Y-63324619D01*
X266893524Y-63276238D01*
X266941905Y-63179476D01*
X266941905Y-63082714D01*
X266893524Y-62985952D01*
X266796762Y-62937571D01*
X266554858Y-62937571D01*
X266458096Y-62889190D01*
X265538858Y-63324619D02*
X265538858Y-62308619D01*
X265538858Y-63276238D02*
X265635620Y-63324619D01*
X265829143Y-63324619D01*
X265925905Y-63276238D01*
X265974286Y-63227857D01*
X266022667Y-63131095D01*
X266022667Y-62840810D01*
X265974286Y-62744048D01*
X265925905Y-62695667D01*
X265829143Y-62647286D01*
X265635620Y-62647286D01*
X265538858Y-62695667D01*
X264668001Y-63276238D02*
X264764763Y-63324619D01*
X264958286Y-63324619D01*
X265055048Y-63276238D01*
X265103429Y-63179476D01*
X265103429Y-62792429D01*
X265055048Y-62695667D01*
X264958286Y-62647286D01*
X264764763Y-62647286D01*
X264668001Y-62695667D01*
X264619620Y-62792429D01*
X264619620Y-62889190D01*
X265103429Y-62985952D01*
X264184191Y-63324619D02*
X264184191Y-62647286D01*
X264184191Y-62840810D02*
X264135810Y-62744048D01*
X264087429Y-62695667D01*
X263990667Y-62647286D01*
X263893906Y-62647286D01*
X262926287Y-62308619D02*
X262345716Y-62308619D01*
X262636001Y-63324619D02*
X262636001Y-62308619D01*
X262007049Y-63324619D02*
X262007049Y-62308619D01*
X261571621Y-63324619D02*
X261571621Y-62792429D01*
X261620002Y-62695667D01*
X261716764Y-62647286D01*
X261861906Y-62647286D01*
X261958668Y-62695667D01*
X262007049Y-62744048D01*
X261087811Y-63324619D02*
X261087811Y-62647286D01*
X261087811Y-62308619D02*
X261136192Y-62357000D01*
X261087811Y-62405381D01*
X261039430Y-62357000D01*
X261087811Y-62308619D01*
X261087811Y-62405381D01*
X260652382Y-63276238D02*
X260555620Y-63324619D01*
X260362096Y-63324619D01*
X260265335Y-63276238D01*
X260216954Y-63179476D01*
X260216954Y-63131095D01*
X260265335Y-63034333D01*
X260362096Y-62985952D01*
X260507239Y-62985952D01*
X260604001Y-62937571D01*
X260652382Y-62840810D01*
X260652382Y-62792429D01*
X260604001Y-62695667D01*
X260507239Y-62647286D01*
X260362096Y-62647286D01*
X260265335Y-62695667D01*
X259055811Y-63276238D02*
X258910668Y-63324619D01*
X258668764Y-63324619D01*
X258572002Y-63276238D01*
X258523621Y-63227857D01*
X258475240Y-63131095D01*
X258475240Y-63034333D01*
X258523621Y-62937571D01*
X258572002Y-62889190D01*
X258668764Y-62840810D01*
X258862287Y-62792429D01*
X258959049Y-62744048D01*
X259007430Y-62695667D01*
X259055811Y-62598905D01*
X259055811Y-62502143D01*
X259007430Y-62405381D01*
X258959049Y-62357000D01*
X258862287Y-62308619D01*
X258620383Y-62308619D01*
X258475240Y-62357000D01*
X258039811Y-63324619D02*
X258039811Y-62647286D01*
X258039811Y-62308619D02*
X258088192Y-62357000D01*
X258039811Y-62405381D01*
X257991430Y-62357000D01*
X258039811Y-62308619D01*
X258039811Y-62405381D01*
X257120573Y-63324619D02*
X257120573Y-62308619D01*
X257120573Y-63276238D02*
X257217335Y-63324619D01*
X257410858Y-63324619D01*
X257507620Y-63276238D01*
X257556001Y-63227857D01*
X257604382Y-63131095D01*
X257604382Y-62840810D01*
X257556001Y-62744048D01*
X257507620Y-62695667D01*
X257410858Y-62647286D01*
X257217335Y-62647286D01*
X257120573Y-62695667D01*
X256249716Y-63276238D02*
X256346478Y-63324619D01*
X256540001Y-63324619D01*
X256636763Y-63276238D01*
X256685144Y-63179476D01*
X256685144Y-62792429D01*
X256636763Y-62695667D01*
X256540001Y-62647286D01*
X256346478Y-62647286D01*
X256249716Y-62695667D01*
X256201335Y-62792429D01*
X256201335Y-62889190D01*
X256685144Y-62985952D01*
D12*
X338585000Y-61863571D02*
X338585000Y-60363571D01*
X338085000Y-61435000D01*
X337585000Y-60363571D01*
X337585000Y-61863571D01*
X336227857Y-61863571D02*
X336227857Y-61077857D01*
X336299286Y-60935000D01*
X336442143Y-60863571D01*
X336727857Y-60863571D01*
X336870714Y-60935000D01*
X336227857Y-61792143D02*
X336370714Y-61863571D01*
X336727857Y-61863571D01*
X336870714Y-61792143D01*
X336942143Y-61649286D01*
X336942143Y-61506429D01*
X336870714Y-61363571D01*
X336727857Y-61292143D01*
X336370714Y-61292143D01*
X336227857Y-61220714D01*
X335513571Y-60863571D02*
X335513571Y-61863571D01*
X335513571Y-61006429D02*
X335442143Y-60935000D01*
X335299285Y-60863571D01*
X335085000Y-60863571D01*
X334942143Y-60935000D01*
X334870714Y-61077857D01*
X334870714Y-61863571D01*
X334156428Y-61863571D02*
X334156428Y-60863571D01*
X334156428Y-60363571D02*
X334227857Y-60435000D01*
X334156428Y-60506429D01*
X334085000Y-60435000D01*
X334156428Y-60363571D01*
X334156428Y-60506429D01*
X332799285Y-61863571D02*
X332799285Y-61077857D01*
X332870714Y-60935000D01*
X333013571Y-60863571D01*
X333299285Y-60863571D01*
X333442142Y-60935000D01*
X332799285Y-61792143D02*
X332942142Y-61863571D01*
X333299285Y-61863571D01*
X333442142Y-61792143D01*
X333513571Y-61649286D01*
X333513571Y-61506429D01*
X333442142Y-61363571D01*
X333299285Y-61292143D01*
X332942142Y-61292143D01*
X332799285Y-61220714D01*
X331442142Y-61792143D02*
X331584999Y-61863571D01*
X331870713Y-61863571D01*
X332013571Y-61792143D01*
X332084999Y-61720714D01*
X332156428Y-61577857D01*
X332156428Y-61149286D01*
X332084999Y-61006429D01*
X332013571Y-60935000D01*
X331870713Y-60863571D01*
X331584999Y-60863571D01*
X331442142Y-60935000D01*
X330156428Y-61863571D02*
X330156428Y-61077857D01*
X330227857Y-60935000D01*
X330370714Y-60863571D01*
X330656428Y-60863571D01*
X330799285Y-60935000D01*
X330156428Y-61792143D02*
X330299285Y-61863571D01*
X330656428Y-61863571D01*
X330799285Y-61792143D01*
X330870714Y-61649286D01*
X330870714Y-61506429D01*
X330799285Y-61363571D01*
X330656428Y-61292143D01*
X330299285Y-61292143D01*
X330156428Y-61220714D01*
X329227856Y-61863571D02*
X329370714Y-61792143D01*
X329442142Y-61649286D01*
X329442142Y-60363571D01*
X326799285Y-61863571D02*
X327513571Y-61863571D01*
X327513571Y-60363571D01*
X325656428Y-61863571D02*
X325656428Y-61077857D01*
X325727857Y-60935000D01*
X325870714Y-60863571D01*
X326156428Y-60863571D01*
X326299285Y-60935000D01*
X325656428Y-61792143D02*
X325799285Y-61863571D01*
X326156428Y-61863571D01*
X326299285Y-61792143D01*
X326370714Y-61649286D01*
X326370714Y-61506429D01*
X326299285Y-61363571D01*
X326156428Y-61292143D01*
X325799285Y-61292143D01*
X325656428Y-61220714D01*
X324942142Y-61863571D02*
X324942142Y-60363571D01*
X324942142Y-60935000D02*
X324799285Y-60863571D01*
X324513571Y-60863571D01*
X324370714Y-60935000D01*
X324299285Y-61006429D01*
X324227856Y-61149286D01*
X324227856Y-61577857D01*
X324299285Y-61720714D01*
X324370714Y-61792143D01*
X324513571Y-61863571D01*
X324799285Y-61863571D01*
X324942142Y-61792143D01*
X323656428Y-61792143D02*
X323513571Y-61863571D01*
X323227856Y-61863571D01*
X323084999Y-61792143D01*
X323013571Y-61649286D01*
X323013571Y-61577857D01*
X323084999Y-61435000D01*
X323227856Y-61363571D01*
X323442142Y-61363571D01*
X323584999Y-61292143D01*
X323656428Y-61149286D01*
X323656428Y-61077857D01*
X323584999Y-60935000D01*
X323442142Y-60863571D01*
X323227856Y-60863571D01*
X323084999Y-60935000D01*
X340370713Y-64242143D02*
X340156427Y-64313571D01*
X339799284Y-64313571D01*
X339656427Y-64242143D01*
X339584998Y-64170714D01*
X339513570Y-64027857D01*
X339513570Y-63885000D01*
X339584998Y-63742143D01*
X339656427Y-63670714D01*
X339799284Y-63599286D01*
X340084998Y-63527857D01*
X340227856Y-63456429D01*
X340299284Y-63385000D01*
X340370713Y-63242143D01*
X340370713Y-63099286D01*
X340299284Y-62956429D01*
X340227856Y-62885000D01*
X340084998Y-62813571D01*
X339727856Y-62813571D01*
X339513570Y-62885000D01*
X338227856Y-63313571D02*
X338227856Y-64313571D01*
X338870713Y-63313571D02*
X338870713Y-64099286D01*
X338799285Y-64242143D01*
X338656427Y-64313571D01*
X338442142Y-64313571D01*
X338299285Y-64242143D01*
X338227856Y-64170714D01*
X337513570Y-63313571D02*
X337513570Y-64813571D01*
X337513570Y-63385000D02*
X337370713Y-63313571D01*
X337084999Y-63313571D01*
X336942142Y-63385000D01*
X336870713Y-63456429D01*
X336799284Y-63599286D01*
X336799284Y-64027857D01*
X336870713Y-64170714D01*
X336942142Y-64242143D01*
X337084999Y-64313571D01*
X337370713Y-64313571D01*
X337513570Y-64242143D01*
X335584999Y-64242143D02*
X335727856Y-64313571D01*
X336013570Y-64313571D01*
X336156427Y-64242143D01*
X336227856Y-64099286D01*
X336227856Y-63527857D01*
X336156427Y-63385000D01*
X336013570Y-63313571D01*
X335727856Y-63313571D01*
X335584999Y-63385000D01*
X335513570Y-63527857D01*
X335513570Y-63670714D01*
X336227856Y-63813571D01*
X334870713Y-64313571D02*
X334870713Y-63313571D01*
X334870713Y-63599286D02*
X334799285Y-63456429D01*
X334727856Y-63385000D01*
X334584999Y-63313571D01*
X334442142Y-63313571D01*
X332942142Y-62813571D02*
X331942142Y-62813571D01*
X332584999Y-64313571D01*
X330299286Y-64242143D02*
X330085000Y-64313571D01*
X329727857Y-64313571D01*
X329585000Y-64242143D01*
X329513571Y-64170714D01*
X329442143Y-64027857D01*
X329442143Y-63885000D01*
X329513571Y-63742143D01*
X329585000Y-63670714D01*
X329727857Y-63599286D01*
X330013571Y-63527857D01*
X330156429Y-63456429D01*
X330227857Y-63385000D01*
X330299286Y-63242143D01*
X330299286Y-63099286D01*
X330227857Y-62956429D01*
X330156429Y-62885000D01*
X330013571Y-62813571D01*
X329656429Y-62813571D01*
X329442143Y-62885000D01*
X328227858Y-64242143D02*
X328370715Y-64313571D01*
X328656429Y-64313571D01*
X328799286Y-64242143D01*
X328870715Y-64099286D01*
X328870715Y-63527857D01*
X328799286Y-63385000D01*
X328656429Y-63313571D01*
X328370715Y-63313571D01*
X328227858Y-63385000D01*
X328156429Y-63527857D01*
X328156429Y-63670714D01*
X328870715Y-63813571D01*
X326870715Y-63313571D02*
X326870715Y-64527857D01*
X326942144Y-64670714D01*
X327013572Y-64742143D01*
X327156429Y-64813571D01*
X327370715Y-64813571D01*
X327513572Y-64742143D01*
X326870715Y-64242143D02*
X327013572Y-64313571D01*
X327299286Y-64313571D01*
X327442144Y-64242143D01*
X327513572Y-64170714D01*
X327585001Y-64027857D01*
X327585001Y-63599286D01*
X327513572Y-63456429D01*
X327442144Y-63385000D01*
X327299286Y-63313571D01*
X327013572Y-63313571D01*
X326870715Y-63385000D01*
X326156429Y-64313571D02*
X326156429Y-63313571D01*
X326156429Y-63456429D02*
X326085001Y-63385000D01*
X325942143Y-63313571D01*
X325727858Y-63313571D01*
X325585001Y-63385000D01*
X325513572Y-63527857D01*
X325513572Y-64313571D01*
X325513572Y-63527857D02*
X325442143Y-63385000D01*
X325299286Y-63313571D01*
X325085001Y-63313571D01*
X324942143Y-63385000D01*
X324870715Y-63527857D01*
X324870715Y-64313571D01*
X323585001Y-64242143D02*
X323727858Y-64313571D01*
X324013572Y-64313571D01*
X324156429Y-64242143D01*
X324227858Y-64099286D01*
X324227858Y-63527857D01*
X324156429Y-63385000D01*
X324013572Y-63313571D01*
X323727858Y-63313571D01*
X323585001Y-63385000D01*
X323513572Y-63527857D01*
X323513572Y-63670714D01*
X324227858Y-63813571D01*
X322870715Y-63313571D02*
X322870715Y-64313571D01*
X322870715Y-63456429D02*
X322799287Y-63385000D01*
X322656429Y-63313571D01*
X322442144Y-63313571D01*
X322299287Y-63385000D01*
X322227858Y-63527857D01*
X322227858Y-64313571D01*
X321727858Y-63313571D02*
X321156429Y-63313571D01*
X321513572Y-62813571D02*
X321513572Y-64099286D01*
X321442144Y-64242143D01*
X321299286Y-64313571D01*
X321156429Y-64313571D01*
X338870714Y-66763571D02*
X339727857Y-66763571D01*
X339299285Y-66763571D02*
X339299285Y-65263571D01*
X339442142Y-65477857D01*
X339585000Y-65620714D01*
X339727857Y-65692143D01*
X337942143Y-65263571D02*
X337799286Y-65263571D01*
X337656429Y-65335000D01*
X337585000Y-65406429D01*
X337513571Y-65549286D01*
X337442143Y-65835000D01*
X337442143Y-66192143D01*
X337513571Y-66477857D01*
X337585000Y-66620714D01*
X337656429Y-66692143D01*
X337799286Y-66763571D01*
X337942143Y-66763571D01*
X338085000Y-66692143D01*
X338156429Y-66620714D01*
X338227857Y-66477857D01*
X338299286Y-66192143D01*
X338299286Y-65835000D01*
X338227857Y-65549286D01*
X338156429Y-65406429D01*
X338085000Y-65335000D01*
X337942143Y-65263571D01*
X335656429Y-66763571D02*
X335656429Y-65263571D01*
X335299286Y-65263571D01*
X335085001Y-65335000D01*
X334942143Y-65477857D01*
X334870715Y-65620714D01*
X334799286Y-65906429D01*
X334799286Y-66120714D01*
X334870715Y-66406429D01*
X334942143Y-66549286D01*
X335085001Y-66692143D01*
X335299286Y-66763571D01*
X335656429Y-66763571D01*
X334156429Y-66763571D02*
X334156429Y-65763571D01*
X334156429Y-65263571D02*
X334227858Y-65335000D01*
X334156429Y-65406429D01*
X334085001Y-65335000D01*
X334156429Y-65263571D01*
X334156429Y-65406429D01*
X332799286Y-65763571D02*
X332799286Y-66977857D01*
X332870715Y-67120714D01*
X332942143Y-67192143D01*
X333085000Y-67263571D01*
X333299286Y-67263571D01*
X333442143Y-67192143D01*
X332799286Y-66692143D02*
X332942143Y-66763571D01*
X333227857Y-66763571D01*
X333370715Y-66692143D01*
X333442143Y-66620714D01*
X333513572Y-66477857D01*
X333513572Y-66049286D01*
X333442143Y-65906429D01*
X333370715Y-65835000D01*
X333227857Y-65763571D01*
X332942143Y-65763571D01*
X332799286Y-65835000D01*
X332085000Y-66763571D02*
X332085000Y-65763571D01*
X332085000Y-65263571D02*
X332156429Y-65335000D01*
X332085000Y-65406429D01*
X332013572Y-65335000D01*
X332085000Y-65263571D01*
X332085000Y-65406429D01*
X331585000Y-65763571D02*
X331013571Y-65763571D01*
X331370714Y-65263571D02*
X331370714Y-66549286D01*
X331299286Y-66692143D01*
X331156428Y-66763571D01*
X331013571Y-66763571D01*
X329370714Y-66763571D02*
X329370714Y-65263571D01*
X329013571Y-65263571D01*
X328799286Y-65335000D01*
X328656428Y-65477857D01*
X328585000Y-65620714D01*
X328513571Y-65906429D01*
X328513571Y-66120714D01*
X328585000Y-66406429D01*
X328656428Y-66549286D01*
X328799286Y-66692143D01*
X329013571Y-66763571D01*
X329370714Y-66763571D01*
X327870714Y-66763571D02*
X327870714Y-65763571D01*
X327870714Y-65263571D02*
X327942143Y-65335000D01*
X327870714Y-65406429D01*
X327799286Y-65335000D01*
X327870714Y-65263571D01*
X327870714Y-65406429D01*
X327227857Y-66692143D02*
X327085000Y-66763571D01*
X326799285Y-66763571D01*
X326656428Y-66692143D01*
X326585000Y-66549286D01*
X326585000Y-66477857D01*
X326656428Y-66335000D01*
X326799285Y-66263571D01*
X327013571Y-66263571D01*
X327156428Y-66192143D01*
X327227857Y-66049286D01*
X327227857Y-65977857D01*
X327156428Y-65835000D01*
X327013571Y-65763571D01*
X326799285Y-65763571D01*
X326656428Y-65835000D01*
X325942142Y-65763571D02*
X325942142Y-67263571D01*
X325942142Y-65835000D02*
X325799285Y-65763571D01*
X325513571Y-65763571D01*
X325370714Y-65835000D01*
X325299285Y-65906429D01*
X325227856Y-66049286D01*
X325227856Y-66477857D01*
X325299285Y-66620714D01*
X325370714Y-66692143D01*
X325513571Y-66763571D01*
X325799285Y-66763571D01*
X325942142Y-66692143D01*
X324370713Y-66763571D02*
X324513571Y-66692143D01*
X324584999Y-66549286D01*
X324584999Y-65263571D01*
X323156428Y-66763571D02*
X323156428Y-65977857D01*
X323227857Y-65835000D01*
X323370714Y-65763571D01*
X323656428Y-65763571D01*
X323799285Y-65835000D01*
X323156428Y-66692143D02*
X323299285Y-66763571D01*
X323656428Y-66763571D01*
X323799285Y-66692143D01*
X323870714Y-66549286D01*
X323870714Y-66406429D01*
X323799285Y-66263571D01*
X323656428Y-66192143D01*
X323299285Y-66192143D01*
X323156428Y-66120714D01*
X322584999Y-65763571D02*
X322227856Y-66763571D01*
X321870714Y-65763571D02*
X322227856Y-66763571D01*
X322370714Y-67120714D01*
X322442142Y-67192143D01*
X322584999Y-67263571D01*
X336692142Y-69213571D02*
X336692142Y-68213571D01*
X336692142Y-68499286D02*
X336620714Y-68356429D01*
X336549285Y-68285000D01*
X336406428Y-68213571D01*
X336263571Y-68213571D01*
X335192143Y-69142143D02*
X335335000Y-69213571D01*
X335620714Y-69213571D01*
X335763571Y-69142143D01*
X335835000Y-68999286D01*
X335835000Y-68427857D01*
X335763571Y-68285000D01*
X335620714Y-68213571D01*
X335335000Y-68213571D01*
X335192143Y-68285000D01*
X335120714Y-68427857D01*
X335120714Y-68570714D01*
X335835000Y-68713571D01*
X334477857Y-69213571D02*
X334477857Y-68213571D01*
X334477857Y-68356429D02*
X334406429Y-68285000D01*
X334263571Y-68213571D01*
X334049286Y-68213571D01*
X333906429Y-68285000D01*
X333835000Y-68427857D01*
X333835000Y-69213571D01*
X333835000Y-68427857D02*
X333763571Y-68285000D01*
X333620714Y-68213571D01*
X333406429Y-68213571D01*
X333263571Y-68285000D01*
X333192143Y-68427857D01*
X333192143Y-69213571D01*
X332477857Y-69213571D02*
X332477857Y-68213571D01*
X332477857Y-67713571D02*
X332549286Y-67785000D01*
X332477857Y-67856429D01*
X332406429Y-67785000D01*
X332477857Y-67713571D01*
X332477857Y-67856429D01*
X331906428Y-69213571D02*
X331120714Y-68213571D01*
X331906428Y-68213571D02*
X331120714Y-69213571D01*
X329977857Y-69142143D02*
X330120714Y-69213571D01*
X330406428Y-69213571D01*
X330549285Y-69142143D01*
X330620714Y-68999286D01*
X330620714Y-68427857D01*
X330549285Y-68285000D01*
X330406428Y-68213571D01*
X330120714Y-68213571D01*
X329977857Y-68285000D01*
X329906428Y-68427857D01*
X329906428Y-68570714D01*
X330620714Y-68713571D01*
X328620714Y-69213571D02*
X328620714Y-67713571D01*
X328620714Y-69142143D02*
X328763571Y-69213571D01*
X329049285Y-69213571D01*
X329192143Y-69142143D01*
X329263571Y-69070714D01*
X329335000Y-68927857D01*
X329335000Y-68499286D01*
X329263571Y-68356429D01*
X329192143Y-68285000D01*
X329049285Y-68213571D01*
X328763571Y-68213571D01*
X328620714Y-68285000D01*
X326763571Y-69213571D02*
X326763571Y-67713571D01*
X326763571Y-68285000D02*
X326620714Y-68213571D01*
X326335000Y-68213571D01*
X326192143Y-68285000D01*
X326120714Y-68356429D01*
X326049285Y-68499286D01*
X326049285Y-68927857D01*
X326120714Y-69070714D01*
X326192143Y-69142143D01*
X326335000Y-69213571D01*
X326620714Y-69213571D01*
X326763571Y-69142143D01*
X325549285Y-68213571D02*
X325192142Y-69213571D01*
X324835000Y-68213571D02*
X325192142Y-69213571D01*
X325335000Y-69570714D01*
X325406428Y-69642143D01*
X325549285Y-69713571D01*
X336620713Y-70949286D02*
X336692141Y-70877857D01*
X336834998Y-70806429D01*
X336977856Y-70806429D01*
X337120713Y-70877857D01*
X337192141Y-70949286D01*
X337263570Y-71092143D01*
X337263570Y-71235000D01*
X337192141Y-71377857D01*
X337120713Y-71449286D01*
X336977856Y-71520714D01*
X336834998Y-71520714D01*
X336692141Y-71449286D01*
X336620713Y-71377857D01*
X336620713Y-70806429D02*
X336620713Y-71377857D01*
X336549284Y-71449286D01*
X336477856Y-71449286D01*
X336334998Y-71377857D01*
X336263570Y-71235000D01*
X336263570Y-70877857D01*
X336406427Y-70663571D01*
X336620713Y-70520714D01*
X336906427Y-70449286D01*
X337192141Y-70520714D01*
X337406427Y-70663571D01*
X337549284Y-70877857D01*
X337620713Y-71163571D01*
X337549284Y-71449286D01*
X337406427Y-71663571D01*
X337192141Y-71806429D01*
X336906427Y-71877857D01*
X336620713Y-71806429D01*
X336406427Y-71663571D01*
X335620713Y-71663571D02*
X335620713Y-70163571D01*
X335263570Y-70163571D01*
X335049285Y-70235000D01*
X334906427Y-70377857D01*
X334834999Y-70520714D01*
X334763570Y-70806429D01*
X334763570Y-71020714D01*
X334834999Y-71306429D01*
X334906427Y-71449286D01*
X335049285Y-71592143D01*
X335263570Y-71663571D01*
X335620713Y-71663571D01*
X334120713Y-71663571D02*
X334120713Y-70663571D01*
X334120713Y-70163571D02*
X334192142Y-70235000D01*
X334120713Y-70306429D01*
X334049285Y-70235000D01*
X334120713Y-70163571D01*
X334120713Y-70306429D01*
X333192141Y-71663571D02*
X333334999Y-71592143D01*
X333406427Y-71449286D01*
X333406427Y-70163571D01*
X332406427Y-71663571D02*
X332549285Y-71592143D01*
X332620713Y-71449286D01*
X332620713Y-70163571D01*
X331620713Y-71663571D02*
X331763571Y-71592143D01*
X331834999Y-71520714D01*
X331906428Y-71377857D01*
X331906428Y-70949286D01*
X331834999Y-70806429D01*
X331763571Y-70735000D01*
X331620713Y-70663571D01*
X331406428Y-70663571D01*
X331263571Y-70735000D01*
X331192142Y-70806429D01*
X331120713Y-70949286D01*
X331120713Y-71377857D01*
X331192142Y-71520714D01*
X331263571Y-71592143D01*
X331406428Y-71663571D01*
X331620713Y-71663571D01*
X330477856Y-70663571D02*
X330477856Y-71663571D01*
X330477856Y-70806429D02*
X330406428Y-70735000D01*
X330263570Y-70663571D01*
X330049285Y-70663571D01*
X329906428Y-70735000D01*
X329834999Y-70877857D01*
X329834999Y-71663571D01*
X328334999Y-71663571D02*
X329192142Y-71663571D01*
X328763570Y-71663571D02*
X328763570Y-70163571D01*
X328906427Y-70377857D01*
X329049285Y-70520714D01*
X329192142Y-70592143D01*
X327834999Y-70163571D02*
X326906428Y-70163571D01*
X327406428Y-70735000D01*
X327192142Y-70735000D01*
X327049285Y-70806429D01*
X326977856Y-70877857D01*
X326906428Y-71020714D01*
X326906428Y-71377857D01*
X326977856Y-71520714D01*
X327049285Y-71592143D01*
X327192142Y-71663571D01*
X327620714Y-71663571D01*
X327763571Y-71592143D01*
X327834999Y-71520714D01*
X326406428Y-70163571D02*
X325477857Y-70163571D01*
X325977857Y-70735000D01*
X325763571Y-70735000D01*
X325620714Y-70806429D01*
X325549285Y-70877857D01*
X325477857Y-71020714D01*
X325477857Y-71377857D01*
X325549285Y-71520714D01*
X325620714Y-71592143D01*
X325763571Y-71663571D01*
X326192143Y-71663571D01*
X326335000Y-71592143D01*
X326406428Y-71520714D01*
X324977857Y-70163571D02*
X323977857Y-70163571D01*
X324620714Y-71663571D01*
X336620714Y-73113571D02*
X336049285Y-73113571D01*
X336406428Y-72613571D02*
X336406428Y-73899286D01*
X336335000Y-74042143D01*
X336192142Y-74113571D01*
X336049285Y-74113571D01*
X335549285Y-74113571D02*
X335549285Y-73113571D01*
X335549285Y-72613571D02*
X335620714Y-72685000D01*
X335549285Y-72756429D01*
X335477857Y-72685000D01*
X335549285Y-72613571D01*
X335549285Y-72756429D01*
X334834999Y-73113571D02*
X334834999Y-74113571D01*
X334834999Y-73256429D02*
X334763571Y-73185000D01*
X334620713Y-73113571D01*
X334406428Y-73113571D01*
X334263571Y-73185000D01*
X334192142Y-73327857D01*
X334192142Y-74113571D01*
X333477856Y-74113571D02*
X333477856Y-72613571D01*
X333334999Y-73542143D02*
X332906428Y-74113571D01*
X332906428Y-73113571D02*
X333477856Y-73685000D01*
X331692142Y-74042143D02*
X331834999Y-74113571D01*
X332120713Y-74113571D01*
X332263570Y-74042143D01*
X332334999Y-73899286D01*
X332334999Y-73327857D01*
X332263570Y-73185000D01*
X332120713Y-73113571D01*
X331834999Y-73113571D01*
X331692142Y-73185000D01*
X331620713Y-73327857D01*
X331620713Y-73470714D01*
X332334999Y-73613571D01*
X330977856Y-74113571D02*
X330977856Y-73113571D01*
X330977856Y-73399286D02*
X330906428Y-73256429D01*
X330834999Y-73185000D01*
X330692142Y-73113571D01*
X330549285Y-73113571D01*
X329477857Y-74042143D02*
X329620714Y-74113571D01*
X329906428Y-74113571D01*
X330049285Y-74042143D01*
X330120714Y-73899286D01*
X330120714Y-73327857D01*
X330049285Y-73185000D01*
X329906428Y-73113571D01*
X329620714Y-73113571D01*
X329477857Y-73185000D01*
X329406428Y-73327857D01*
X329406428Y-73470714D01*
X330120714Y-73613571D01*
X328763571Y-74113571D02*
X328763571Y-73113571D01*
X328763571Y-73399286D02*
X328692143Y-73256429D01*
X328620714Y-73185000D01*
X328477857Y-73113571D01*
X328335000Y-73113571D01*
X327835000Y-73970714D02*
X327763572Y-74042143D01*
X327835000Y-74113571D01*
X327906429Y-74042143D01*
X327835000Y-73970714D01*
X327835000Y-74113571D01*
X326477857Y-73113571D02*
X326477857Y-74113571D01*
X327120714Y-73113571D02*
X327120714Y-73899286D01*
X327049286Y-74042143D01*
X326906428Y-74113571D01*
X326692143Y-74113571D01*
X326549286Y-74042143D01*
X326477857Y-73970714D01*
X325835000Y-74042143D02*
X325692143Y-74113571D01*
X325406428Y-74113571D01*
X325263571Y-74042143D01*
X325192143Y-73899286D01*
X325192143Y-73827857D01*
X325263571Y-73685000D01*
X325406428Y-73613571D01*
X325620714Y-73613571D01*
X325763571Y-73542143D01*
X325835000Y-73399286D01*
X325835000Y-73327857D01*
X325763571Y-73185000D01*
X325620714Y-73113571D01*
X325406428Y-73113571D01*
X325263571Y-73185000D01*
D13*
G36*
X345794868Y-63245141D02*
X345605670Y-63245704D01*
X345423197Y-63246553D01*
X345250198Y-63247693D01*
X345089420Y-63249121D01*
X344943612Y-63250837D01*
X344815522Y-63252843D01*
X344707899Y-63255137D01*
X344623489Y-63257719D01*
X344565042Y-63260591D01*
X344535306Y-63263751D01*
X344533955Y-63264101D01*
X344460350Y-63299801D01*
X344406728Y-63352954D01*
X344373744Y-63417582D01*
X344362052Y-63487706D01*
X344372308Y-63557346D01*
X344405167Y-63620525D01*
X344461283Y-63671264D01*
X344487782Y-63685553D01*
X344550181Y-63714312D01*
X344550591Y-65196141D01*
X344551000Y-66677969D01*
X344123806Y-67418641D01*
X344033263Y-67575615D01*
X343930103Y-67754444D01*
X343817584Y-67949483D01*
X343698962Y-68155090D01*
X343577493Y-68365620D01*
X343456432Y-68575429D01*
X343339037Y-68778874D01*
X343228563Y-68970312D01*
X343179244Y-69055770D01*
X343090033Y-69210722D01*
X343005691Y-69357946D01*
X342927542Y-69495082D01*
X342856911Y-69619771D01*
X342795123Y-69729652D01*
X342743503Y-69822365D01*
X342703376Y-69895552D01*
X342676066Y-69946852D01*
X342662898Y-69973905D01*
X342661875Y-69977254D01*
X342669741Y-69997854D01*
X342692046Y-70042330D01*
X342726855Y-70107359D01*
X342772233Y-70189615D01*
X342826244Y-70285774D01*
X342886953Y-70392511D01*
X342952423Y-70506503D01*
X343020721Y-70624423D01*
X343089909Y-70742948D01*
X343158052Y-70858754D01*
X343223216Y-70968515D01*
X343283463Y-71068906D01*
X343336859Y-71156605D01*
X343381468Y-71228285D01*
X343415355Y-71280622D01*
X343436584Y-71310292D01*
X343440401Y-71314468D01*
X343487876Y-71358125D01*
X348662125Y-71358125D01*
X348709600Y-71314468D01*
X348726394Y-71292746D01*
X348756461Y-71247288D01*
X348797866Y-71181420D01*
X348848675Y-71098466D01*
X348906950Y-71001753D01*
X348970758Y-70894605D01*
X349038162Y-70780346D01*
X349107228Y-70662303D01*
X349176019Y-70543800D01*
X349242600Y-70428163D01*
X349305037Y-70318717D01*
X349361392Y-70218786D01*
X349409733Y-70131695D01*
X349448121Y-70060771D01*
X349474623Y-70009338D01*
X349487303Y-69980720D01*
X349488126Y-69976933D01*
X349481861Y-69961738D01*
X348983183Y-69961738D01*
X348708492Y-70437681D01*
X348433802Y-70913625D01*
X343716346Y-70913625D01*
X343441306Y-70436873D01*
X343166265Y-69960121D01*
X343274373Y-69774091D01*
X343322892Y-69690084D01*
X343373609Y-69601405D01*
X343420301Y-69518982D01*
X343454772Y-69457315D01*
X343527063Y-69326567D01*
X345542875Y-69326125D01*
X345247252Y-69623781D01*
X345167275Y-69704852D01*
X345094259Y-69779905D01*
X345031362Y-69845609D01*
X344981743Y-69898634D01*
X344948560Y-69935650D01*
X344935268Y-69952697D01*
X344927957Y-69990230D01*
X344940296Y-70025316D01*
X344965308Y-70061070D01*
X345005694Y-70105828D01*
X345054952Y-70153770D01*
X345106580Y-70199074D01*
X345154074Y-70235919D01*
X345190933Y-70258484D01*
X345205520Y-70262750D01*
X345227868Y-70252200D01*
X345269213Y-70220232D01*
X345330092Y-70166363D01*
X345411040Y-70090114D01*
X345512592Y-69991002D01*
X345554190Y-69949741D01*
X345868625Y-69636732D01*
X345868625Y-70071522D01*
X345868814Y-70202308D01*
X345869520Y-70305011D01*
X345870949Y-70383296D01*
X345873309Y-70440830D01*
X345876809Y-70481276D01*
X345881655Y-70508301D01*
X345888056Y-70525570D01*
X345894898Y-70535343D01*
X345911734Y-70548829D01*
X345937193Y-70557459D01*
X345977819Y-70562237D01*
X346040156Y-70564165D01*
X346084246Y-70564375D01*
X346157993Y-70563988D01*
X346206948Y-70561820D01*
X346238068Y-70556360D01*
X346258310Y-70546094D01*
X346274630Y-70529512D01*
X346280947Y-70521627D01*
X346291079Y-70507620D01*
X346298883Y-70491895D01*
X346304608Y-70470501D01*
X346308503Y-70439484D01*
X346310815Y-70394892D01*
X346311793Y-70332771D01*
X346311686Y-70249170D01*
X346310741Y-70140136D01*
X346309880Y-70061238D01*
X346308664Y-69949830D01*
X346307637Y-69849621D01*
X346306836Y-69764754D01*
X346306300Y-69699372D01*
X346306063Y-69657619D01*
X346306154Y-69643611D01*
X346317126Y-69654389D01*
X346347577Y-69684776D01*
X346394606Y-69731863D01*
X346455307Y-69792739D01*
X346526779Y-69864496D01*
X346606118Y-69944225D01*
X346607779Y-69945894D01*
X346689205Y-70026741D01*
X346765054Y-70100133D01*
X346831990Y-70162994D01*
X346886678Y-70212247D01*
X346925782Y-70244816D01*
X346945663Y-70257556D01*
X346966093Y-70258152D01*
X346990531Y-70247567D01*
X347023775Y-70222398D01*
X347070625Y-70179244D01*
X347108382Y-70142190D01*
X347170633Y-70077657D01*
X347210484Y-70029575D01*
X347230419Y-69994681D01*
X347233875Y-69977521D01*
X347228549Y-69959558D01*
X347211229Y-69932344D01*
X347179910Y-69893608D01*
X347132584Y-69841079D01*
X347067243Y-69772484D01*
X346981880Y-69685551D01*
X346928434Y-69631867D01*
X346622993Y-69326125D01*
X347050443Y-69326125D01*
X347189762Y-69326235D01*
X347300588Y-69325593D01*
X347386172Y-69322739D01*
X347449762Y-69316213D01*
X347494608Y-69304556D01*
X347523960Y-69286308D01*
X347541068Y-69260009D01*
X347549180Y-69224200D01*
X347551546Y-69177420D01*
X347551417Y-69118211D01*
X347551375Y-69101107D01*
X347551751Y-69039737D01*
X347550702Y-68990980D01*
X347544967Y-68953390D01*
X347531283Y-68925522D01*
X347506389Y-68905933D01*
X347467023Y-68893178D01*
X347409922Y-68885811D01*
X347331824Y-68882388D01*
X347229468Y-68881465D01*
X347099591Y-68881596D01*
X347055804Y-68881625D01*
X346623733Y-68881625D01*
X346936742Y-68567189D01*
X347026102Y-68476371D01*
X347103596Y-68395517D01*
X347166949Y-68327128D01*
X347213886Y-68273706D01*
X347242132Y-68237753D01*
X347249750Y-68222990D01*
X347238254Y-68196392D01*
X347207729Y-68155976D01*
X347164124Y-68107523D01*
X347113387Y-68056817D01*
X347061466Y-68009641D01*
X347014310Y-67971778D01*
X346977866Y-67949010D01*
X346963823Y-67945000D01*
X346944893Y-67951738D01*
X346913933Y-67973065D01*
X346869064Y-68010648D01*
X346808410Y-68066153D01*
X346730092Y-68141247D01*
X346632233Y-68237597D01*
X346615655Y-68254083D01*
X346305188Y-68563166D01*
X346309866Y-68138775D01*
X346311547Y-68000249D01*
X346312206Y-67890203D01*
X346310349Y-67805374D01*
X346304485Y-67742496D01*
X346293121Y-67698302D01*
X346274764Y-67669528D01*
X346247922Y-67652909D01*
X346211103Y-67645179D01*
X346162814Y-67643073D01*
X346101564Y-67643325D01*
X346083454Y-67643375D01*
X346003223Y-67644496D01*
X345948863Y-67648371D01*
X345914555Y-67655763D01*
X345894481Y-67667438D01*
X345893572Y-67668321D01*
X345886079Y-67679469D01*
X345880220Y-67698540D01*
X345875802Y-67729092D01*
X345872635Y-67774686D01*
X345870527Y-67838878D01*
X345869286Y-67925230D01*
X345868721Y-68037298D01*
X345868625Y-68132142D01*
X345868625Y-68571017D01*
X345554190Y-68258008D01*
X345450023Y-68155240D01*
X345365982Y-68074457D01*
X345300607Y-68014357D01*
X345252442Y-67973639D01*
X345220027Y-67951001D01*
X345203565Y-67945000D01*
X345171360Y-67957050D01*
X345123071Y-67991515D01*
X345063969Y-68044218D01*
X344997723Y-68110807D01*
X344954631Y-68162289D01*
X344932356Y-68202492D01*
X344928563Y-68235242D01*
X344935268Y-68255052D01*
X344950552Y-68274412D01*
X344985177Y-68312842D01*
X345035984Y-68367013D01*
X345099814Y-68433594D01*
X345173509Y-68509256D01*
X345247252Y-68583968D01*
X345542875Y-68881625D01*
X343786411Y-68881625D01*
X343817706Y-68830031D01*
X343852529Y-68771823D01*
X343898922Y-68693049D01*
X343955377Y-68596349D01*
X344020386Y-68484365D01*
X344092441Y-68359736D01*
X344170034Y-68225105D01*
X344251656Y-68083113D01*
X344335799Y-67936400D01*
X344420956Y-67787608D01*
X344505618Y-67639378D01*
X344588277Y-67494351D01*
X344667424Y-67355167D01*
X344741552Y-67224468D01*
X344809153Y-67104896D01*
X344868718Y-66999090D01*
X344918740Y-66909693D01*
X344957709Y-66839345D01*
X344984118Y-66790688D01*
X344996460Y-66766361D01*
X344997104Y-66764659D01*
X344999214Y-66741630D01*
X345001221Y-66689011D01*
X345003105Y-66608962D01*
X345004846Y-66503643D01*
X345006425Y-66375212D01*
X345007821Y-66225830D01*
X345009015Y-66057656D01*
X345009987Y-65872850D01*
X345010718Y-65673573D01*
X345011186Y-65461983D01*
X345011373Y-65240240D01*
X345011375Y-65210636D01*
X345011375Y-63706375D01*
X347138011Y-63706375D01*
X347146563Y-66778187D01*
X347490271Y-67373500D01*
X347579982Y-67528868D01*
X347679527Y-67701244D01*
X347784479Y-67882961D01*
X347890410Y-68066356D01*
X347992894Y-68243764D01*
X348087504Y-68407521D01*
X348155060Y-68524437D01*
X348300644Y-68776399D01*
X348432143Y-69004050D01*
X348549336Y-69207010D01*
X348652005Y-69384897D01*
X348739929Y-69537331D01*
X348812890Y-69663931D01*
X348870668Y-69764316D01*
X348913043Y-69838107D01*
X348939795Y-69884921D01*
X348944919Y-69893962D01*
X348983183Y-69961738D01*
X349481861Y-69961738D01*
X349480407Y-69958214D01*
X349458339Y-69915010D01*
X349423556Y-69850273D01*
X349377689Y-69766953D01*
X349322372Y-69667999D01*
X349259237Y-69556362D01*
X349189917Y-69434993D01*
X349145081Y-69357074D01*
X349058993Y-69207890D01*
X348966116Y-69046959D01*
X348870258Y-68880876D01*
X348775224Y-68716236D01*
X348684821Y-68559633D01*
X348602855Y-68417663D01*
X348536177Y-68302187D01*
X348464938Y-68178821D01*
X348381741Y-68034738D01*
X348290500Y-67876716D01*
X348195130Y-67711537D01*
X348099545Y-67545979D01*
X348007659Y-67386823D01*
X347934659Y-67260372D01*
X347599000Y-66678931D01*
X347599410Y-65196622D01*
X347599820Y-63714312D01*
X347662219Y-63685553D01*
X347727017Y-63640866D01*
X347768317Y-63581549D01*
X347786775Y-63513581D01*
X347783045Y-63442941D01*
X347757782Y-63375606D01*
X347711642Y-63317557D01*
X347645279Y-63274771D01*
X347616046Y-63264101D01*
X347589499Y-63260910D01*
X347533952Y-63258009D01*
X347452153Y-63255396D01*
X347346849Y-63253071D01*
X347220789Y-63251035D01*
X347076721Y-63249288D01*
X346917394Y-63247830D01*
X346745554Y-63246660D01*
X346563951Y-63245780D01*
X346375333Y-63245187D01*
X346182448Y-63244883D01*
X345988043Y-63244868D01*
X345794868Y-63245141D01*
X345794868Y-63245141D01*
G37*
X345794868Y-63245141D02*
X345605670Y-63245704D01*
X345423197Y-63246553D01*
X345250198Y-63247693D01*
X345089420Y-63249121D01*
X344943612Y-63250837D01*
X344815522Y-63252843D01*
X344707899Y-63255137D01*
X344623489Y-63257719D01*
X344565042Y-63260591D01*
X344535306Y-63263751D01*
X344533955Y-63264101D01*
X344460350Y-63299801D01*
X344406728Y-63352954D01*
X344373744Y-63417582D01*
X344362052Y-63487706D01*
X344372308Y-63557346D01*
X344405167Y-63620525D01*
X344461283Y-63671264D01*
X344487782Y-63685553D01*
X344550181Y-63714312D01*
X344550591Y-65196141D01*
X344551000Y-66677969D01*
X344123806Y-67418641D01*
X344033263Y-67575615D01*
X343930103Y-67754444D01*
X343817584Y-67949483D01*
X343698962Y-68155090D01*
X343577493Y-68365620D01*
X343456432Y-68575429D01*
X343339037Y-68778874D01*
X343228563Y-68970312D01*
X343179244Y-69055770D01*
X343090033Y-69210722D01*
X343005691Y-69357946D01*
X342927542Y-69495082D01*
X342856911Y-69619771D01*
X342795123Y-69729652D01*
X342743503Y-69822365D01*
X342703376Y-69895552D01*
X342676066Y-69946852D01*
X342662898Y-69973905D01*
X342661875Y-69977254D01*
X342669741Y-69997854D01*
X342692046Y-70042330D01*
X342726855Y-70107359D01*
X342772233Y-70189615D01*
X342826244Y-70285774D01*
X342886953Y-70392511D01*
X342952423Y-70506503D01*
X343020721Y-70624423D01*
X343089909Y-70742948D01*
X343158052Y-70858754D01*
X343223216Y-70968515D01*
X343283463Y-71068906D01*
X343336859Y-71156605D01*
X343381468Y-71228285D01*
X343415355Y-71280622D01*
X343436584Y-71310292D01*
X343440401Y-71314468D01*
X343487876Y-71358125D01*
X348662125Y-71358125D01*
X348709600Y-71314468D01*
X348726394Y-71292746D01*
X348756461Y-71247288D01*
X348797866Y-71181420D01*
X348848675Y-71098466D01*
X348906950Y-71001753D01*
X348970758Y-70894605D01*
X349038162Y-70780346D01*
X349107228Y-70662303D01*
X349176019Y-70543800D01*
X349242600Y-70428163D01*
X349305037Y-70318717D01*
X349361392Y-70218786D01*
X349409733Y-70131695D01*
X349448121Y-70060771D01*
X349474623Y-70009338D01*
X349487303Y-69980720D01*
X349488126Y-69976933D01*
X349481861Y-69961738D01*
X348983183Y-69961738D01*
X348708492Y-70437681D01*
X348433802Y-70913625D01*
X343716346Y-70913625D01*
X343441306Y-70436873D01*
X343166265Y-69960121D01*
X343274373Y-69774091D01*
X343322892Y-69690084D01*
X343373609Y-69601405D01*
X343420301Y-69518982D01*
X343454772Y-69457315D01*
X343527063Y-69326567D01*
X345542875Y-69326125D01*
X345247252Y-69623781D01*
X345167275Y-69704852D01*
X345094259Y-69779905D01*
X345031362Y-69845609D01*
X344981743Y-69898634D01*
X344948560Y-69935650D01*
X344935268Y-69952697D01*
X344927957Y-69990230D01*
X344940296Y-70025316D01*
X344965308Y-70061070D01*
X345005694Y-70105828D01*
X345054952Y-70153770D01*
X345106580Y-70199074D01*
X345154074Y-70235919D01*
X345190933Y-70258484D01*
X345205520Y-70262750D01*
X345227868Y-70252200D01*
X345269213Y-70220232D01*
X345330092Y-70166363D01*
X345411040Y-70090114D01*
X345512592Y-69991002D01*
X345554190Y-69949741D01*
X345868625Y-69636732D01*
X345868625Y-70071522D01*
X345868814Y-70202308D01*
X345869520Y-70305011D01*
X345870949Y-70383296D01*
X345873309Y-70440830D01*
X345876809Y-70481276D01*
X345881655Y-70508301D01*
X345888056Y-70525570D01*
X345894898Y-70535343D01*
X345911734Y-70548829D01*
X345937193Y-70557459D01*
X345977819Y-70562237D01*
X346040156Y-70564165D01*
X346084246Y-70564375D01*
X346157993Y-70563988D01*
X346206948Y-70561820D01*
X346238068Y-70556360D01*
X346258310Y-70546094D01*
X346274630Y-70529512D01*
X346280947Y-70521627D01*
X346291079Y-70507620D01*
X346298883Y-70491895D01*
X346304608Y-70470501D01*
X346308503Y-70439484D01*
X346310815Y-70394892D01*
X346311793Y-70332771D01*
X346311686Y-70249170D01*
X346310741Y-70140136D01*
X346309880Y-70061238D01*
X346308664Y-69949830D01*
X346307637Y-69849621D01*
X346306836Y-69764754D01*
X346306300Y-69699372D01*
X346306063Y-69657619D01*
X346306154Y-69643611D01*
X346317126Y-69654389D01*
X346347577Y-69684776D01*
X346394606Y-69731863D01*
X346455307Y-69792739D01*
X346526779Y-69864496D01*
X346606118Y-69944225D01*
X346607779Y-69945894D01*
X346689205Y-70026741D01*
X346765054Y-70100133D01*
X346831990Y-70162994D01*
X346886678Y-70212247D01*
X346925782Y-70244816D01*
X346945663Y-70257556D01*
X346966093Y-70258152D01*
X346990531Y-70247567D01*
X347023775Y-70222398D01*
X347070625Y-70179244D01*
X347108382Y-70142190D01*
X347170633Y-70077657D01*
X347210484Y-70029575D01*
X347230419Y-69994681D01*
X347233875Y-69977521D01*
X347228549Y-69959558D01*
X347211229Y-69932344D01*
X347179910Y-69893608D01*
X347132584Y-69841079D01*
X347067243Y-69772484D01*
X346981880Y-69685551D01*
X346928434Y-69631867D01*
X346622993Y-69326125D01*
X347050443Y-69326125D01*
X347189762Y-69326235D01*
X347300588Y-69325593D01*
X347386172Y-69322739D01*
X347449762Y-69316213D01*
X347494608Y-69304556D01*
X347523960Y-69286308D01*
X347541068Y-69260009D01*
X347549180Y-69224200D01*
X347551546Y-69177420D01*
X347551417Y-69118211D01*
X347551375Y-69101107D01*
X347551751Y-69039737D01*
X347550702Y-68990980D01*
X347544967Y-68953390D01*
X347531283Y-68925522D01*
X347506389Y-68905933D01*
X347467023Y-68893178D01*
X347409922Y-68885811D01*
X347331824Y-68882388D01*
X347229468Y-68881465D01*
X347099591Y-68881596D01*
X347055804Y-68881625D01*
X346623733Y-68881625D01*
X346936742Y-68567189D01*
X347026102Y-68476371D01*
X347103596Y-68395517D01*
X347166949Y-68327128D01*
X347213886Y-68273706D01*
X347242132Y-68237753D01*
X347249750Y-68222990D01*
X347238254Y-68196392D01*
X347207729Y-68155976D01*
X347164124Y-68107523D01*
X347113387Y-68056817D01*
X347061466Y-68009641D01*
X347014310Y-67971778D01*
X346977866Y-67949010D01*
X346963823Y-67945000D01*
X346944893Y-67951738D01*
X346913933Y-67973065D01*
X346869064Y-68010648D01*
X346808410Y-68066153D01*
X346730092Y-68141247D01*
X346632233Y-68237597D01*
X346615655Y-68254083D01*
X346305188Y-68563166D01*
X346309866Y-68138775D01*
X346311547Y-68000249D01*
X346312206Y-67890203D01*
X346310349Y-67805374D01*
X346304485Y-67742496D01*
X346293121Y-67698302D01*
X346274764Y-67669528D01*
X346247922Y-67652909D01*
X346211103Y-67645179D01*
X346162814Y-67643073D01*
X346101564Y-67643325D01*
X346083454Y-67643375D01*
X346003223Y-67644496D01*
X345948863Y-67648371D01*
X345914555Y-67655763D01*
X345894481Y-67667438D01*
X345893572Y-67668321D01*
X345886079Y-67679469D01*
X345880220Y-67698540D01*
X345875802Y-67729092D01*
X345872635Y-67774686D01*
X345870527Y-67838878D01*
X345869286Y-67925230D01*
X345868721Y-68037298D01*
X345868625Y-68132142D01*
X345868625Y-68571017D01*
X345554190Y-68258008D01*
X345450023Y-68155240D01*
X345365982Y-68074457D01*
X345300607Y-68014357D01*
X345252442Y-67973639D01*
X345220027Y-67951001D01*
X345203565Y-67945000D01*
X345171360Y-67957050D01*
X345123071Y-67991515D01*
X345063969Y-68044218D01*
X344997723Y-68110807D01*
X344954631Y-68162289D01*
X344932356Y-68202492D01*
X344928563Y-68235242D01*
X344935268Y-68255052D01*
X344950552Y-68274412D01*
X344985177Y-68312842D01*
X345035984Y-68367013D01*
X345099814Y-68433594D01*
X345173509Y-68509256D01*
X345247252Y-68583968D01*
X345542875Y-68881625D01*
X343786411Y-68881625D01*
X343817706Y-68830031D01*
X343852529Y-68771823D01*
X343898922Y-68693049D01*
X343955377Y-68596349D01*
X344020386Y-68484365D01*
X344092441Y-68359736D01*
X344170034Y-68225105D01*
X344251656Y-68083113D01*
X344335799Y-67936400D01*
X344420956Y-67787608D01*
X344505618Y-67639378D01*
X344588277Y-67494351D01*
X344667424Y-67355167D01*
X344741552Y-67224468D01*
X344809153Y-67104896D01*
X344868718Y-66999090D01*
X344918740Y-66909693D01*
X344957709Y-66839345D01*
X344984118Y-66790688D01*
X344996460Y-66766361D01*
X344997104Y-66764659D01*
X344999214Y-66741630D01*
X345001221Y-66689011D01*
X345003105Y-66608962D01*
X345004846Y-66503643D01*
X345006425Y-66375212D01*
X345007821Y-66225830D01*
X345009015Y-66057656D01*
X345009987Y-65872850D01*
X345010718Y-65673573D01*
X345011186Y-65461983D01*
X345011373Y-65240240D01*
X345011375Y-65210636D01*
X345011375Y-63706375D01*
X347138011Y-63706375D01*
X347146563Y-66778187D01*
X347490271Y-67373500D01*
X347579982Y-67528868D01*
X347679527Y-67701244D01*
X347784479Y-67882961D01*
X347890410Y-68066356D01*
X347992894Y-68243764D01*
X348087504Y-68407521D01*
X348155060Y-68524437D01*
X348300644Y-68776399D01*
X348432143Y-69004050D01*
X348549336Y-69207010D01*
X348652005Y-69384897D01*
X348739929Y-69537331D01*
X348812890Y-69663931D01*
X348870668Y-69764316D01*
X348913043Y-69838107D01*
X348939795Y-69884921D01*
X348944919Y-69893962D01*
X348983183Y-69961738D01*
X349481861Y-69961738D01*
X349480407Y-69958214D01*
X349458339Y-69915010D01*
X349423556Y-69850273D01*
X349377689Y-69766953D01*
X349322372Y-69667999D01*
X349259237Y-69556362D01*
X349189917Y-69434993D01*
X349145081Y-69357074D01*
X349058993Y-69207890D01*
X348966116Y-69046959D01*
X348870258Y-68880876D01*
X348775224Y-68716236D01*
X348684821Y-68559633D01*
X348602855Y-68417663D01*
X348536177Y-68302187D01*
X348464938Y-68178821D01*
X348381741Y-68034738D01*
X348290500Y-67876716D01*
X348195130Y-67711537D01*
X348099545Y-67545979D01*
X348007659Y-67386823D01*
X347934659Y-67260372D01*
X347599000Y-66678931D01*
X347599410Y-65196622D01*
X347599820Y-63714312D01*
X347662219Y-63685553D01*
X347727017Y-63640866D01*
X347768317Y-63581549D01*
X347786775Y-63513581D01*
X347783045Y-63442941D01*
X347757782Y-63375606D01*
X347711642Y-63317557D01*
X347645279Y-63274771D01*
X347616046Y-63264101D01*
X347589499Y-63260910D01*
X347533952Y-63258009D01*
X347452153Y-63255396D01*
X347346849Y-63253071D01*
X347220789Y-63251035D01*
X347076721Y-63249288D01*
X346917394Y-63247830D01*
X346745554Y-63246660D01*
X346563951Y-63245780D01*
X346375333Y-63245187D01*
X346182448Y-63244883D01*
X345988043Y-63244868D01*
X345794868Y-63245141D01*
D14*
X252730000Y-67310000D02*
X283210000Y-67310000D01*
X283210000Y-67310000D02*
X283210000Y-64770000D01*
X283210000Y-64770000D02*
X252730000Y-64770000D01*
X249910000Y-64490000D02*
X251460000Y-64490000D01*
X252730000Y-64770000D02*
X252730000Y-67310000D01*
X251460000Y-67590000D02*
X249910000Y-67590000D01*
X249910000Y-67590000D02*
X249910000Y-64490000D01*
X257810000Y-67310000D02*
X278130000Y-67310000D01*
X278130000Y-67310000D02*
X278130000Y-69850000D01*
X278130000Y-69850000D02*
X257810000Y-69850000D01*
X254990000Y-67030000D02*
X256540000Y-67030000D01*
X257810000Y-67310000D02*
X257810000Y-69850000D01*
X256540000Y-70130000D02*
X254990000Y-70130000D01*
X254990000Y-70130000D02*
X254990000Y-67030000D01*
M02*
