G04 #@! TF.FileFunction,Legend,Bot*
%FSLAX46Y46*%
G04 Gerber Fmt 4.6, Leading zero omitted, Abs format (unit mm)*
G04 Created by KiCad (PCBNEW 4.0.7) date Thursday, February 08, 2018 'PMt' 08:56:59 PM*
%MOMM*%
%LPD*%
G01*
G04 APERTURE LIST*
%ADD10C,0.100000*%
%ADD11C,0.254000*%
%ADD12C,0.200000*%
%ADD13C,0.010000*%
%ADD14C,0.150000*%
G04 APERTURE END LIST*
D10*
D11*
X150839712Y-79737857D02*
X150888093Y-79786238D01*
X151033236Y-79834619D01*
X151129998Y-79834619D01*
X151275140Y-79786238D01*
X151371902Y-79689476D01*
X151420283Y-79592714D01*
X151468664Y-79399190D01*
X151468664Y-79254048D01*
X151420283Y-79060524D01*
X151371902Y-78963762D01*
X151275140Y-78867000D01*
X151129998Y-78818619D01*
X151033236Y-78818619D01*
X150888093Y-78867000D01*
X150839712Y-78915381D01*
X150259140Y-79834619D02*
X150355902Y-79786238D01*
X150404283Y-79737857D01*
X150452664Y-79641095D01*
X150452664Y-79350810D01*
X150404283Y-79254048D01*
X150355902Y-79205667D01*
X150259140Y-79157286D01*
X150113998Y-79157286D01*
X150017236Y-79205667D01*
X149968855Y-79254048D01*
X149920474Y-79350810D01*
X149920474Y-79641095D01*
X149968855Y-79737857D01*
X150017236Y-79786238D01*
X150113998Y-79834619D01*
X150259140Y-79834619D01*
X149485045Y-79157286D02*
X149485045Y-79834619D01*
X149485045Y-79254048D02*
X149436664Y-79205667D01*
X149339902Y-79157286D01*
X149194760Y-79157286D01*
X149097998Y-79205667D01*
X149049617Y-79302429D01*
X149049617Y-79834619D01*
X148710950Y-79157286D02*
X148323902Y-79157286D01*
X148565807Y-78818619D02*
X148565807Y-79689476D01*
X148517426Y-79786238D01*
X148420664Y-79834619D01*
X148323902Y-79834619D01*
X147985236Y-79834619D02*
X147985236Y-79157286D01*
X147985236Y-79350810D02*
X147936855Y-79254048D01*
X147888474Y-79205667D01*
X147791712Y-79157286D01*
X147694951Y-79157286D01*
X147211141Y-79834619D02*
X147307903Y-79786238D01*
X147356284Y-79737857D01*
X147404665Y-79641095D01*
X147404665Y-79350810D01*
X147356284Y-79254048D01*
X147307903Y-79205667D01*
X147211141Y-79157286D01*
X147065999Y-79157286D01*
X146969237Y-79205667D01*
X146920856Y-79254048D01*
X146872475Y-79350810D01*
X146872475Y-79641095D01*
X146920856Y-79737857D01*
X146969237Y-79786238D01*
X147065999Y-79834619D01*
X147211141Y-79834619D01*
X146291903Y-79834619D02*
X146388665Y-79786238D01*
X146437046Y-79689476D01*
X146437046Y-78818619D01*
X145759713Y-79834619D02*
X145856475Y-79786238D01*
X145904856Y-79689476D01*
X145904856Y-78818619D01*
X144985619Y-79786238D02*
X145082381Y-79834619D01*
X145275904Y-79834619D01*
X145372666Y-79786238D01*
X145421047Y-79689476D01*
X145421047Y-79302429D01*
X145372666Y-79205667D01*
X145275904Y-79157286D01*
X145082381Y-79157286D01*
X144985619Y-79205667D01*
X144937238Y-79302429D01*
X144937238Y-79399190D01*
X145421047Y-79495952D01*
X144501809Y-79834619D02*
X144501809Y-79157286D01*
X144501809Y-79350810D02*
X144453428Y-79254048D01*
X144405047Y-79205667D01*
X144308285Y-79157286D01*
X144211524Y-79157286D01*
X143098762Y-79834619D02*
X143098762Y-78818619D01*
X143098762Y-79302429D02*
X142518191Y-79302429D01*
X142518191Y-79834619D02*
X142518191Y-78818619D01*
X141647334Y-79786238D02*
X141744096Y-79834619D01*
X141937619Y-79834619D01*
X142034381Y-79786238D01*
X142082762Y-79689476D01*
X142082762Y-79302429D01*
X142034381Y-79205667D01*
X141937619Y-79157286D01*
X141744096Y-79157286D01*
X141647334Y-79205667D01*
X141598953Y-79302429D01*
X141598953Y-79399190D01*
X142082762Y-79495952D01*
X140728096Y-79834619D02*
X140728096Y-79302429D01*
X140776477Y-79205667D01*
X140873239Y-79157286D01*
X141066762Y-79157286D01*
X141163524Y-79205667D01*
X140728096Y-79786238D02*
X140824858Y-79834619D01*
X141066762Y-79834619D01*
X141163524Y-79786238D01*
X141211905Y-79689476D01*
X141211905Y-79592714D01*
X141163524Y-79495952D01*
X141066762Y-79447571D01*
X140824858Y-79447571D01*
X140728096Y-79399190D01*
X139808858Y-79834619D02*
X139808858Y-78818619D01*
X139808858Y-79786238D02*
X139905620Y-79834619D01*
X140099143Y-79834619D01*
X140195905Y-79786238D01*
X140244286Y-79737857D01*
X140292667Y-79641095D01*
X140292667Y-79350810D01*
X140244286Y-79254048D01*
X140195905Y-79205667D01*
X140099143Y-79157286D01*
X139905620Y-79157286D01*
X139808858Y-79205667D01*
X138938001Y-79786238D02*
X139034763Y-79834619D01*
X139228286Y-79834619D01*
X139325048Y-79786238D01*
X139373429Y-79689476D01*
X139373429Y-79302429D01*
X139325048Y-79205667D01*
X139228286Y-79157286D01*
X139034763Y-79157286D01*
X138938001Y-79205667D01*
X138889620Y-79302429D01*
X138889620Y-79399190D01*
X139373429Y-79495952D01*
X138454191Y-79834619D02*
X138454191Y-79157286D01*
X138454191Y-79350810D02*
X138405810Y-79254048D01*
X138357429Y-79205667D01*
X138260667Y-79157286D01*
X138163906Y-79157286D01*
X137196287Y-78818619D02*
X136615716Y-78818619D01*
X136906001Y-79834619D02*
X136906001Y-78818619D01*
X136277049Y-79834619D02*
X136277049Y-78818619D01*
X135841621Y-79834619D02*
X135841621Y-79302429D01*
X135890002Y-79205667D01*
X135986764Y-79157286D01*
X136131906Y-79157286D01*
X136228668Y-79205667D01*
X136277049Y-79254048D01*
X135357811Y-79834619D02*
X135357811Y-79157286D01*
X135357811Y-78818619D02*
X135406192Y-78867000D01*
X135357811Y-78915381D01*
X135309430Y-78867000D01*
X135357811Y-78818619D01*
X135357811Y-78915381D01*
X134922382Y-79786238D02*
X134825620Y-79834619D01*
X134632096Y-79834619D01*
X134535335Y-79786238D01*
X134486954Y-79689476D01*
X134486954Y-79641095D01*
X134535335Y-79544333D01*
X134632096Y-79495952D01*
X134777239Y-79495952D01*
X134874001Y-79447571D01*
X134922382Y-79350810D01*
X134922382Y-79302429D01*
X134874001Y-79205667D01*
X134777239Y-79157286D01*
X134632096Y-79157286D01*
X134535335Y-79205667D01*
X133325811Y-79786238D02*
X133180668Y-79834619D01*
X132938764Y-79834619D01*
X132842002Y-79786238D01*
X132793621Y-79737857D01*
X132745240Y-79641095D01*
X132745240Y-79544333D01*
X132793621Y-79447571D01*
X132842002Y-79399190D01*
X132938764Y-79350810D01*
X133132287Y-79302429D01*
X133229049Y-79254048D01*
X133277430Y-79205667D01*
X133325811Y-79108905D01*
X133325811Y-79012143D01*
X133277430Y-78915381D01*
X133229049Y-78867000D01*
X133132287Y-78818619D01*
X132890383Y-78818619D01*
X132745240Y-78867000D01*
X132309811Y-79834619D02*
X132309811Y-79157286D01*
X132309811Y-78818619D02*
X132358192Y-78867000D01*
X132309811Y-78915381D01*
X132261430Y-78867000D01*
X132309811Y-78818619D01*
X132309811Y-78915381D01*
X131390573Y-79834619D02*
X131390573Y-78818619D01*
X131390573Y-79786238D02*
X131487335Y-79834619D01*
X131680858Y-79834619D01*
X131777620Y-79786238D01*
X131826001Y-79737857D01*
X131874382Y-79641095D01*
X131874382Y-79350810D01*
X131826001Y-79254048D01*
X131777620Y-79205667D01*
X131680858Y-79157286D01*
X131487335Y-79157286D01*
X131390573Y-79205667D01*
X130519716Y-79786238D02*
X130616478Y-79834619D01*
X130810001Y-79834619D01*
X130906763Y-79786238D01*
X130955144Y-79689476D01*
X130955144Y-79302429D01*
X130906763Y-79205667D01*
X130810001Y-79157286D01*
X130616478Y-79157286D01*
X130519716Y-79205667D01*
X130471335Y-79302429D01*
X130471335Y-79399190D01*
X130955144Y-79495952D01*
D12*
X212855000Y-78373571D02*
X212855000Y-76873571D01*
X212355000Y-77945000D01*
X211855000Y-76873571D01*
X211855000Y-78373571D01*
X210497857Y-78373571D02*
X210497857Y-77587857D01*
X210569286Y-77445000D01*
X210712143Y-77373571D01*
X210997857Y-77373571D01*
X211140714Y-77445000D01*
X210497857Y-78302143D02*
X210640714Y-78373571D01*
X210997857Y-78373571D01*
X211140714Y-78302143D01*
X211212143Y-78159286D01*
X211212143Y-78016429D01*
X211140714Y-77873571D01*
X210997857Y-77802143D01*
X210640714Y-77802143D01*
X210497857Y-77730714D01*
X209783571Y-77373571D02*
X209783571Y-78373571D01*
X209783571Y-77516429D02*
X209712143Y-77445000D01*
X209569285Y-77373571D01*
X209355000Y-77373571D01*
X209212143Y-77445000D01*
X209140714Y-77587857D01*
X209140714Y-78373571D01*
X208426428Y-78373571D02*
X208426428Y-77373571D01*
X208426428Y-76873571D02*
X208497857Y-76945000D01*
X208426428Y-77016429D01*
X208355000Y-76945000D01*
X208426428Y-76873571D01*
X208426428Y-77016429D01*
X207069285Y-78373571D02*
X207069285Y-77587857D01*
X207140714Y-77445000D01*
X207283571Y-77373571D01*
X207569285Y-77373571D01*
X207712142Y-77445000D01*
X207069285Y-78302143D02*
X207212142Y-78373571D01*
X207569285Y-78373571D01*
X207712142Y-78302143D01*
X207783571Y-78159286D01*
X207783571Y-78016429D01*
X207712142Y-77873571D01*
X207569285Y-77802143D01*
X207212142Y-77802143D01*
X207069285Y-77730714D01*
X205712142Y-78302143D02*
X205854999Y-78373571D01*
X206140713Y-78373571D01*
X206283571Y-78302143D01*
X206354999Y-78230714D01*
X206426428Y-78087857D01*
X206426428Y-77659286D01*
X206354999Y-77516429D01*
X206283571Y-77445000D01*
X206140713Y-77373571D01*
X205854999Y-77373571D01*
X205712142Y-77445000D01*
X204426428Y-78373571D02*
X204426428Y-77587857D01*
X204497857Y-77445000D01*
X204640714Y-77373571D01*
X204926428Y-77373571D01*
X205069285Y-77445000D01*
X204426428Y-78302143D02*
X204569285Y-78373571D01*
X204926428Y-78373571D01*
X205069285Y-78302143D01*
X205140714Y-78159286D01*
X205140714Y-78016429D01*
X205069285Y-77873571D01*
X204926428Y-77802143D01*
X204569285Y-77802143D01*
X204426428Y-77730714D01*
X203497856Y-78373571D02*
X203640714Y-78302143D01*
X203712142Y-78159286D01*
X203712142Y-76873571D01*
X201069285Y-78373571D02*
X201783571Y-78373571D01*
X201783571Y-76873571D01*
X199926428Y-78373571D02*
X199926428Y-77587857D01*
X199997857Y-77445000D01*
X200140714Y-77373571D01*
X200426428Y-77373571D01*
X200569285Y-77445000D01*
X199926428Y-78302143D02*
X200069285Y-78373571D01*
X200426428Y-78373571D01*
X200569285Y-78302143D01*
X200640714Y-78159286D01*
X200640714Y-78016429D01*
X200569285Y-77873571D01*
X200426428Y-77802143D01*
X200069285Y-77802143D01*
X199926428Y-77730714D01*
X199212142Y-78373571D02*
X199212142Y-76873571D01*
X199212142Y-77445000D02*
X199069285Y-77373571D01*
X198783571Y-77373571D01*
X198640714Y-77445000D01*
X198569285Y-77516429D01*
X198497856Y-77659286D01*
X198497856Y-78087857D01*
X198569285Y-78230714D01*
X198640714Y-78302143D01*
X198783571Y-78373571D01*
X199069285Y-78373571D01*
X199212142Y-78302143D01*
X197926428Y-78302143D02*
X197783571Y-78373571D01*
X197497856Y-78373571D01*
X197354999Y-78302143D01*
X197283571Y-78159286D01*
X197283571Y-78087857D01*
X197354999Y-77945000D01*
X197497856Y-77873571D01*
X197712142Y-77873571D01*
X197854999Y-77802143D01*
X197926428Y-77659286D01*
X197926428Y-77587857D01*
X197854999Y-77445000D01*
X197712142Y-77373571D01*
X197497856Y-77373571D01*
X197354999Y-77445000D01*
X214640713Y-80752143D02*
X214426427Y-80823571D01*
X214069284Y-80823571D01*
X213926427Y-80752143D01*
X213854998Y-80680714D01*
X213783570Y-80537857D01*
X213783570Y-80395000D01*
X213854998Y-80252143D01*
X213926427Y-80180714D01*
X214069284Y-80109286D01*
X214354998Y-80037857D01*
X214497856Y-79966429D01*
X214569284Y-79895000D01*
X214640713Y-79752143D01*
X214640713Y-79609286D01*
X214569284Y-79466429D01*
X214497856Y-79395000D01*
X214354998Y-79323571D01*
X213997856Y-79323571D01*
X213783570Y-79395000D01*
X212497856Y-79823571D02*
X212497856Y-80823571D01*
X213140713Y-79823571D02*
X213140713Y-80609286D01*
X213069285Y-80752143D01*
X212926427Y-80823571D01*
X212712142Y-80823571D01*
X212569285Y-80752143D01*
X212497856Y-80680714D01*
X211783570Y-79823571D02*
X211783570Y-81323571D01*
X211783570Y-79895000D02*
X211640713Y-79823571D01*
X211354999Y-79823571D01*
X211212142Y-79895000D01*
X211140713Y-79966429D01*
X211069284Y-80109286D01*
X211069284Y-80537857D01*
X211140713Y-80680714D01*
X211212142Y-80752143D01*
X211354999Y-80823571D01*
X211640713Y-80823571D01*
X211783570Y-80752143D01*
X209854999Y-80752143D02*
X209997856Y-80823571D01*
X210283570Y-80823571D01*
X210426427Y-80752143D01*
X210497856Y-80609286D01*
X210497856Y-80037857D01*
X210426427Y-79895000D01*
X210283570Y-79823571D01*
X209997856Y-79823571D01*
X209854999Y-79895000D01*
X209783570Y-80037857D01*
X209783570Y-80180714D01*
X210497856Y-80323571D01*
X209140713Y-80823571D02*
X209140713Y-79823571D01*
X209140713Y-80109286D02*
X209069285Y-79966429D01*
X208997856Y-79895000D01*
X208854999Y-79823571D01*
X208712142Y-79823571D01*
X207212142Y-79323571D02*
X206212142Y-79323571D01*
X206854999Y-80823571D01*
X204569286Y-80752143D02*
X204355000Y-80823571D01*
X203997857Y-80823571D01*
X203855000Y-80752143D01*
X203783571Y-80680714D01*
X203712143Y-80537857D01*
X203712143Y-80395000D01*
X203783571Y-80252143D01*
X203855000Y-80180714D01*
X203997857Y-80109286D01*
X204283571Y-80037857D01*
X204426429Y-79966429D01*
X204497857Y-79895000D01*
X204569286Y-79752143D01*
X204569286Y-79609286D01*
X204497857Y-79466429D01*
X204426429Y-79395000D01*
X204283571Y-79323571D01*
X203926429Y-79323571D01*
X203712143Y-79395000D01*
X202497858Y-80752143D02*
X202640715Y-80823571D01*
X202926429Y-80823571D01*
X203069286Y-80752143D01*
X203140715Y-80609286D01*
X203140715Y-80037857D01*
X203069286Y-79895000D01*
X202926429Y-79823571D01*
X202640715Y-79823571D01*
X202497858Y-79895000D01*
X202426429Y-80037857D01*
X202426429Y-80180714D01*
X203140715Y-80323571D01*
X201140715Y-79823571D02*
X201140715Y-81037857D01*
X201212144Y-81180714D01*
X201283572Y-81252143D01*
X201426429Y-81323571D01*
X201640715Y-81323571D01*
X201783572Y-81252143D01*
X201140715Y-80752143D02*
X201283572Y-80823571D01*
X201569286Y-80823571D01*
X201712144Y-80752143D01*
X201783572Y-80680714D01*
X201855001Y-80537857D01*
X201855001Y-80109286D01*
X201783572Y-79966429D01*
X201712144Y-79895000D01*
X201569286Y-79823571D01*
X201283572Y-79823571D01*
X201140715Y-79895000D01*
X200426429Y-80823571D02*
X200426429Y-79823571D01*
X200426429Y-79966429D02*
X200355001Y-79895000D01*
X200212143Y-79823571D01*
X199997858Y-79823571D01*
X199855001Y-79895000D01*
X199783572Y-80037857D01*
X199783572Y-80823571D01*
X199783572Y-80037857D02*
X199712143Y-79895000D01*
X199569286Y-79823571D01*
X199355001Y-79823571D01*
X199212143Y-79895000D01*
X199140715Y-80037857D01*
X199140715Y-80823571D01*
X197855001Y-80752143D02*
X197997858Y-80823571D01*
X198283572Y-80823571D01*
X198426429Y-80752143D01*
X198497858Y-80609286D01*
X198497858Y-80037857D01*
X198426429Y-79895000D01*
X198283572Y-79823571D01*
X197997858Y-79823571D01*
X197855001Y-79895000D01*
X197783572Y-80037857D01*
X197783572Y-80180714D01*
X198497858Y-80323571D01*
X197140715Y-79823571D02*
X197140715Y-80823571D01*
X197140715Y-79966429D02*
X197069287Y-79895000D01*
X196926429Y-79823571D01*
X196712144Y-79823571D01*
X196569287Y-79895000D01*
X196497858Y-80037857D01*
X196497858Y-80823571D01*
X195997858Y-79823571D02*
X195426429Y-79823571D01*
X195783572Y-79323571D02*
X195783572Y-80609286D01*
X195712144Y-80752143D01*
X195569286Y-80823571D01*
X195426429Y-80823571D01*
X213140714Y-83273571D02*
X213997857Y-83273571D01*
X213569285Y-83273571D02*
X213569285Y-81773571D01*
X213712142Y-81987857D01*
X213855000Y-82130714D01*
X213997857Y-82202143D01*
X212212143Y-81773571D02*
X212069286Y-81773571D01*
X211926429Y-81845000D01*
X211855000Y-81916429D01*
X211783571Y-82059286D01*
X211712143Y-82345000D01*
X211712143Y-82702143D01*
X211783571Y-82987857D01*
X211855000Y-83130714D01*
X211926429Y-83202143D01*
X212069286Y-83273571D01*
X212212143Y-83273571D01*
X212355000Y-83202143D01*
X212426429Y-83130714D01*
X212497857Y-82987857D01*
X212569286Y-82702143D01*
X212569286Y-82345000D01*
X212497857Y-82059286D01*
X212426429Y-81916429D01*
X212355000Y-81845000D01*
X212212143Y-81773571D01*
X209926429Y-83273571D02*
X209926429Y-81773571D01*
X209569286Y-81773571D01*
X209355001Y-81845000D01*
X209212143Y-81987857D01*
X209140715Y-82130714D01*
X209069286Y-82416429D01*
X209069286Y-82630714D01*
X209140715Y-82916429D01*
X209212143Y-83059286D01*
X209355001Y-83202143D01*
X209569286Y-83273571D01*
X209926429Y-83273571D01*
X208426429Y-83273571D02*
X208426429Y-82273571D01*
X208426429Y-81773571D02*
X208497858Y-81845000D01*
X208426429Y-81916429D01*
X208355001Y-81845000D01*
X208426429Y-81773571D01*
X208426429Y-81916429D01*
X207069286Y-82273571D02*
X207069286Y-83487857D01*
X207140715Y-83630714D01*
X207212143Y-83702143D01*
X207355000Y-83773571D01*
X207569286Y-83773571D01*
X207712143Y-83702143D01*
X207069286Y-83202143D02*
X207212143Y-83273571D01*
X207497857Y-83273571D01*
X207640715Y-83202143D01*
X207712143Y-83130714D01*
X207783572Y-82987857D01*
X207783572Y-82559286D01*
X207712143Y-82416429D01*
X207640715Y-82345000D01*
X207497857Y-82273571D01*
X207212143Y-82273571D01*
X207069286Y-82345000D01*
X206355000Y-83273571D02*
X206355000Y-82273571D01*
X206355000Y-81773571D02*
X206426429Y-81845000D01*
X206355000Y-81916429D01*
X206283572Y-81845000D01*
X206355000Y-81773571D01*
X206355000Y-81916429D01*
X205855000Y-82273571D02*
X205283571Y-82273571D01*
X205640714Y-81773571D02*
X205640714Y-83059286D01*
X205569286Y-83202143D01*
X205426428Y-83273571D01*
X205283571Y-83273571D01*
X203640714Y-83273571D02*
X203640714Y-81773571D01*
X203283571Y-81773571D01*
X203069286Y-81845000D01*
X202926428Y-81987857D01*
X202855000Y-82130714D01*
X202783571Y-82416429D01*
X202783571Y-82630714D01*
X202855000Y-82916429D01*
X202926428Y-83059286D01*
X203069286Y-83202143D01*
X203283571Y-83273571D01*
X203640714Y-83273571D01*
X202140714Y-83273571D02*
X202140714Y-82273571D01*
X202140714Y-81773571D02*
X202212143Y-81845000D01*
X202140714Y-81916429D01*
X202069286Y-81845000D01*
X202140714Y-81773571D01*
X202140714Y-81916429D01*
X201497857Y-83202143D02*
X201355000Y-83273571D01*
X201069285Y-83273571D01*
X200926428Y-83202143D01*
X200855000Y-83059286D01*
X200855000Y-82987857D01*
X200926428Y-82845000D01*
X201069285Y-82773571D01*
X201283571Y-82773571D01*
X201426428Y-82702143D01*
X201497857Y-82559286D01*
X201497857Y-82487857D01*
X201426428Y-82345000D01*
X201283571Y-82273571D01*
X201069285Y-82273571D01*
X200926428Y-82345000D01*
X200212142Y-82273571D02*
X200212142Y-83773571D01*
X200212142Y-82345000D02*
X200069285Y-82273571D01*
X199783571Y-82273571D01*
X199640714Y-82345000D01*
X199569285Y-82416429D01*
X199497856Y-82559286D01*
X199497856Y-82987857D01*
X199569285Y-83130714D01*
X199640714Y-83202143D01*
X199783571Y-83273571D01*
X200069285Y-83273571D01*
X200212142Y-83202143D01*
X198640713Y-83273571D02*
X198783571Y-83202143D01*
X198854999Y-83059286D01*
X198854999Y-81773571D01*
X197426428Y-83273571D02*
X197426428Y-82487857D01*
X197497857Y-82345000D01*
X197640714Y-82273571D01*
X197926428Y-82273571D01*
X198069285Y-82345000D01*
X197426428Y-83202143D02*
X197569285Y-83273571D01*
X197926428Y-83273571D01*
X198069285Y-83202143D01*
X198140714Y-83059286D01*
X198140714Y-82916429D01*
X198069285Y-82773571D01*
X197926428Y-82702143D01*
X197569285Y-82702143D01*
X197426428Y-82630714D01*
X196854999Y-82273571D02*
X196497856Y-83273571D01*
X196140714Y-82273571D02*
X196497856Y-83273571D01*
X196640714Y-83630714D01*
X196712142Y-83702143D01*
X196854999Y-83773571D01*
X210962142Y-85723571D02*
X210962142Y-84723571D01*
X210962142Y-85009286D02*
X210890714Y-84866429D01*
X210819285Y-84795000D01*
X210676428Y-84723571D01*
X210533571Y-84723571D01*
X209462143Y-85652143D02*
X209605000Y-85723571D01*
X209890714Y-85723571D01*
X210033571Y-85652143D01*
X210105000Y-85509286D01*
X210105000Y-84937857D01*
X210033571Y-84795000D01*
X209890714Y-84723571D01*
X209605000Y-84723571D01*
X209462143Y-84795000D01*
X209390714Y-84937857D01*
X209390714Y-85080714D01*
X210105000Y-85223571D01*
X208747857Y-85723571D02*
X208747857Y-84723571D01*
X208747857Y-84866429D02*
X208676429Y-84795000D01*
X208533571Y-84723571D01*
X208319286Y-84723571D01*
X208176429Y-84795000D01*
X208105000Y-84937857D01*
X208105000Y-85723571D01*
X208105000Y-84937857D02*
X208033571Y-84795000D01*
X207890714Y-84723571D01*
X207676429Y-84723571D01*
X207533571Y-84795000D01*
X207462143Y-84937857D01*
X207462143Y-85723571D01*
X206747857Y-85723571D02*
X206747857Y-84723571D01*
X206747857Y-84223571D02*
X206819286Y-84295000D01*
X206747857Y-84366429D01*
X206676429Y-84295000D01*
X206747857Y-84223571D01*
X206747857Y-84366429D01*
X206176428Y-85723571D02*
X205390714Y-84723571D01*
X206176428Y-84723571D02*
X205390714Y-85723571D01*
X204247857Y-85652143D02*
X204390714Y-85723571D01*
X204676428Y-85723571D01*
X204819285Y-85652143D01*
X204890714Y-85509286D01*
X204890714Y-84937857D01*
X204819285Y-84795000D01*
X204676428Y-84723571D01*
X204390714Y-84723571D01*
X204247857Y-84795000D01*
X204176428Y-84937857D01*
X204176428Y-85080714D01*
X204890714Y-85223571D01*
X202890714Y-85723571D02*
X202890714Y-84223571D01*
X202890714Y-85652143D02*
X203033571Y-85723571D01*
X203319285Y-85723571D01*
X203462143Y-85652143D01*
X203533571Y-85580714D01*
X203605000Y-85437857D01*
X203605000Y-85009286D01*
X203533571Y-84866429D01*
X203462143Y-84795000D01*
X203319285Y-84723571D01*
X203033571Y-84723571D01*
X202890714Y-84795000D01*
X201033571Y-85723571D02*
X201033571Y-84223571D01*
X201033571Y-84795000D02*
X200890714Y-84723571D01*
X200605000Y-84723571D01*
X200462143Y-84795000D01*
X200390714Y-84866429D01*
X200319285Y-85009286D01*
X200319285Y-85437857D01*
X200390714Y-85580714D01*
X200462143Y-85652143D01*
X200605000Y-85723571D01*
X200890714Y-85723571D01*
X201033571Y-85652143D01*
X199819285Y-84723571D02*
X199462142Y-85723571D01*
X199105000Y-84723571D02*
X199462142Y-85723571D01*
X199605000Y-86080714D01*
X199676428Y-86152143D01*
X199819285Y-86223571D01*
X210890713Y-87459286D02*
X210962141Y-87387857D01*
X211104998Y-87316429D01*
X211247856Y-87316429D01*
X211390713Y-87387857D01*
X211462141Y-87459286D01*
X211533570Y-87602143D01*
X211533570Y-87745000D01*
X211462141Y-87887857D01*
X211390713Y-87959286D01*
X211247856Y-88030714D01*
X211104998Y-88030714D01*
X210962141Y-87959286D01*
X210890713Y-87887857D01*
X210890713Y-87316429D02*
X210890713Y-87887857D01*
X210819284Y-87959286D01*
X210747856Y-87959286D01*
X210604998Y-87887857D01*
X210533570Y-87745000D01*
X210533570Y-87387857D01*
X210676427Y-87173571D01*
X210890713Y-87030714D01*
X211176427Y-86959286D01*
X211462141Y-87030714D01*
X211676427Y-87173571D01*
X211819284Y-87387857D01*
X211890713Y-87673571D01*
X211819284Y-87959286D01*
X211676427Y-88173571D01*
X211462141Y-88316429D01*
X211176427Y-88387857D01*
X210890713Y-88316429D01*
X210676427Y-88173571D01*
X209890713Y-88173571D02*
X209890713Y-86673571D01*
X209533570Y-86673571D01*
X209319285Y-86745000D01*
X209176427Y-86887857D01*
X209104999Y-87030714D01*
X209033570Y-87316429D01*
X209033570Y-87530714D01*
X209104999Y-87816429D01*
X209176427Y-87959286D01*
X209319285Y-88102143D01*
X209533570Y-88173571D01*
X209890713Y-88173571D01*
X208390713Y-88173571D02*
X208390713Y-87173571D01*
X208390713Y-86673571D02*
X208462142Y-86745000D01*
X208390713Y-86816429D01*
X208319285Y-86745000D01*
X208390713Y-86673571D01*
X208390713Y-86816429D01*
X207462141Y-88173571D02*
X207604999Y-88102143D01*
X207676427Y-87959286D01*
X207676427Y-86673571D01*
X206676427Y-88173571D02*
X206819285Y-88102143D01*
X206890713Y-87959286D01*
X206890713Y-86673571D01*
X205890713Y-88173571D02*
X206033571Y-88102143D01*
X206104999Y-88030714D01*
X206176428Y-87887857D01*
X206176428Y-87459286D01*
X206104999Y-87316429D01*
X206033571Y-87245000D01*
X205890713Y-87173571D01*
X205676428Y-87173571D01*
X205533571Y-87245000D01*
X205462142Y-87316429D01*
X205390713Y-87459286D01*
X205390713Y-87887857D01*
X205462142Y-88030714D01*
X205533571Y-88102143D01*
X205676428Y-88173571D01*
X205890713Y-88173571D01*
X204747856Y-87173571D02*
X204747856Y-88173571D01*
X204747856Y-87316429D02*
X204676428Y-87245000D01*
X204533570Y-87173571D01*
X204319285Y-87173571D01*
X204176428Y-87245000D01*
X204104999Y-87387857D01*
X204104999Y-88173571D01*
X202604999Y-88173571D02*
X203462142Y-88173571D01*
X203033570Y-88173571D02*
X203033570Y-86673571D01*
X203176427Y-86887857D01*
X203319285Y-87030714D01*
X203462142Y-87102143D01*
X202104999Y-86673571D02*
X201176428Y-86673571D01*
X201676428Y-87245000D01*
X201462142Y-87245000D01*
X201319285Y-87316429D01*
X201247856Y-87387857D01*
X201176428Y-87530714D01*
X201176428Y-87887857D01*
X201247856Y-88030714D01*
X201319285Y-88102143D01*
X201462142Y-88173571D01*
X201890714Y-88173571D01*
X202033571Y-88102143D01*
X202104999Y-88030714D01*
X200676428Y-86673571D02*
X199747857Y-86673571D01*
X200247857Y-87245000D01*
X200033571Y-87245000D01*
X199890714Y-87316429D01*
X199819285Y-87387857D01*
X199747857Y-87530714D01*
X199747857Y-87887857D01*
X199819285Y-88030714D01*
X199890714Y-88102143D01*
X200033571Y-88173571D01*
X200462143Y-88173571D01*
X200605000Y-88102143D01*
X200676428Y-88030714D01*
X199247857Y-86673571D02*
X198247857Y-86673571D01*
X198890714Y-88173571D01*
X210890714Y-89623571D02*
X210319285Y-89623571D01*
X210676428Y-89123571D02*
X210676428Y-90409286D01*
X210605000Y-90552143D01*
X210462142Y-90623571D01*
X210319285Y-90623571D01*
X209819285Y-90623571D02*
X209819285Y-89623571D01*
X209819285Y-89123571D02*
X209890714Y-89195000D01*
X209819285Y-89266429D01*
X209747857Y-89195000D01*
X209819285Y-89123571D01*
X209819285Y-89266429D01*
X209104999Y-89623571D02*
X209104999Y-90623571D01*
X209104999Y-89766429D02*
X209033571Y-89695000D01*
X208890713Y-89623571D01*
X208676428Y-89623571D01*
X208533571Y-89695000D01*
X208462142Y-89837857D01*
X208462142Y-90623571D01*
X207747856Y-90623571D02*
X207747856Y-89123571D01*
X207604999Y-90052143D02*
X207176428Y-90623571D01*
X207176428Y-89623571D02*
X207747856Y-90195000D01*
X205962142Y-90552143D02*
X206104999Y-90623571D01*
X206390713Y-90623571D01*
X206533570Y-90552143D01*
X206604999Y-90409286D01*
X206604999Y-89837857D01*
X206533570Y-89695000D01*
X206390713Y-89623571D01*
X206104999Y-89623571D01*
X205962142Y-89695000D01*
X205890713Y-89837857D01*
X205890713Y-89980714D01*
X206604999Y-90123571D01*
X205247856Y-90623571D02*
X205247856Y-89623571D01*
X205247856Y-89909286D02*
X205176428Y-89766429D01*
X205104999Y-89695000D01*
X204962142Y-89623571D01*
X204819285Y-89623571D01*
X203747857Y-90552143D02*
X203890714Y-90623571D01*
X204176428Y-90623571D01*
X204319285Y-90552143D01*
X204390714Y-90409286D01*
X204390714Y-89837857D01*
X204319285Y-89695000D01*
X204176428Y-89623571D01*
X203890714Y-89623571D01*
X203747857Y-89695000D01*
X203676428Y-89837857D01*
X203676428Y-89980714D01*
X204390714Y-90123571D01*
X203033571Y-90623571D02*
X203033571Y-89623571D01*
X203033571Y-89909286D02*
X202962143Y-89766429D01*
X202890714Y-89695000D01*
X202747857Y-89623571D01*
X202605000Y-89623571D01*
X202105000Y-90480714D02*
X202033572Y-90552143D01*
X202105000Y-90623571D01*
X202176429Y-90552143D01*
X202105000Y-90480714D01*
X202105000Y-90623571D01*
X200747857Y-89623571D02*
X200747857Y-90623571D01*
X201390714Y-89623571D02*
X201390714Y-90409286D01*
X201319286Y-90552143D01*
X201176428Y-90623571D01*
X200962143Y-90623571D01*
X200819286Y-90552143D01*
X200747857Y-90480714D01*
X200105000Y-90552143D02*
X199962143Y-90623571D01*
X199676428Y-90623571D01*
X199533571Y-90552143D01*
X199462143Y-90409286D01*
X199462143Y-90337857D01*
X199533571Y-90195000D01*
X199676428Y-90123571D01*
X199890714Y-90123571D01*
X200033571Y-90052143D01*
X200105000Y-89909286D01*
X200105000Y-89837857D01*
X200033571Y-89695000D01*
X199890714Y-89623571D01*
X199676428Y-89623571D01*
X199533571Y-89695000D01*
D13*
G36*
X220064868Y-79755141D02*
X219875670Y-79755704D01*
X219693197Y-79756553D01*
X219520198Y-79757693D01*
X219359420Y-79759121D01*
X219213612Y-79760837D01*
X219085522Y-79762843D01*
X218977899Y-79765137D01*
X218893489Y-79767719D01*
X218835042Y-79770591D01*
X218805306Y-79773751D01*
X218803955Y-79774101D01*
X218730350Y-79809801D01*
X218676728Y-79862954D01*
X218643744Y-79927582D01*
X218632052Y-79997706D01*
X218642308Y-80067346D01*
X218675167Y-80130525D01*
X218731283Y-80181264D01*
X218757782Y-80195553D01*
X218820181Y-80224312D01*
X218820591Y-81706141D01*
X218821000Y-83187969D01*
X218393806Y-83928641D01*
X218303263Y-84085615D01*
X218200103Y-84264444D01*
X218087584Y-84459483D01*
X217968962Y-84665090D01*
X217847493Y-84875620D01*
X217726432Y-85085429D01*
X217609037Y-85288874D01*
X217498563Y-85480312D01*
X217449244Y-85565770D01*
X217360033Y-85720722D01*
X217275691Y-85867946D01*
X217197542Y-86005082D01*
X217126911Y-86129771D01*
X217065123Y-86239652D01*
X217013503Y-86332365D01*
X216973376Y-86405552D01*
X216946066Y-86456852D01*
X216932898Y-86483905D01*
X216931875Y-86487254D01*
X216939741Y-86507854D01*
X216962046Y-86552330D01*
X216996855Y-86617359D01*
X217042233Y-86699615D01*
X217096244Y-86795774D01*
X217156953Y-86902511D01*
X217222423Y-87016503D01*
X217290721Y-87134423D01*
X217359909Y-87252948D01*
X217428052Y-87368754D01*
X217493216Y-87478515D01*
X217553463Y-87578906D01*
X217606859Y-87666605D01*
X217651468Y-87738285D01*
X217685355Y-87790622D01*
X217706584Y-87820292D01*
X217710401Y-87824468D01*
X217757876Y-87868125D01*
X222932125Y-87868125D01*
X222979600Y-87824468D01*
X222996394Y-87802746D01*
X223026461Y-87757288D01*
X223067866Y-87691420D01*
X223118675Y-87608466D01*
X223176950Y-87511753D01*
X223240758Y-87404605D01*
X223308162Y-87290346D01*
X223377228Y-87172303D01*
X223446019Y-87053800D01*
X223512600Y-86938163D01*
X223575037Y-86828717D01*
X223631392Y-86728786D01*
X223679733Y-86641695D01*
X223718121Y-86570771D01*
X223744623Y-86519338D01*
X223757303Y-86490720D01*
X223758126Y-86486933D01*
X223751861Y-86471738D01*
X223253183Y-86471738D01*
X222978492Y-86947681D01*
X222703802Y-87423625D01*
X217986346Y-87423625D01*
X217711306Y-86946873D01*
X217436265Y-86470121D01*
X217544373Y-86284091D01*
X217592892Y-86200084D01*
X217643609Y-86111405D01*
X217690301Y-86028982D01*
X217724772Y-85967315D01*
X217797063Y-85836567D01*
X219812875Y-85836125D01*
X219517252Y-86133781D01*
X219437275Y-86214852D01*
X219364259Y-86289905D01*
X219301362Y-86355609D01*
X219251743Y-86408634D01*
X219218560Y-86445650D01*
X219205268Y-86462697D01*
X219197957Y-86500230D01*
X219210296Y-86535316D01*
X219235308Y-86571070D01*
X219275694Y-86615828D01*
X219324952Y-86663770D01*
X219376580Y-86709074D01*
X219424074Y-86745919D01*
X219460933Y-86768484D01*
X219475520Y-86772750D01*
X219497868Y-86762200D01*
X219539213Y-86730232D01*
X219600092Y-86676363D01*
X219681040Y-86600114D01*
X219782592Y-86501002D01*
X219824190Y-86459741D01*
X220138625Y-86146732D01*
X220138625Y-86581522D01*
X220138814Y-86712308D01*
X220139520Y-86815011D01*
X220140949Y-86893296D01*
X220143309Y-86950830D01*
X220146809Y-86991276D01*
X220151655Y-87018301D01*
X220158056Y-87035570D01*
X220164898Y-87045343D01*
X220181734Y-87058829D01*
X220207193Y-87067459D01*
X220247819Y-87072237D01*
X220310156Y-87074165D01*
X220354246Y-87074375D01*
X220427993Y-87073988D01*
X220476948Y-87071820D01*
X220508068Y-87066360D01*
X220528310Y-87056094D01*
X220544630Y-87039512D01*
X220550947Y-87031627D01*
X220561079Y-87017620D01*
X220568883Y-87001895D01*
X220574608Y-86980501D01*
X220578503Y-86949484D01*
X220580815Y-86904892D01*
X220581793Y-86842771D01*
X220581686Y-86759170D01*
X220580741Y-86650136D01*
X220579880Y-86571238D01*
X220578664Y-86459830D01*
X220577637Y-86359621D01*
X220576836Y-86274754D01*
X220576300Y-86209372D01*
X220576063Y-86167619D01*
X220576154Y-86153611D01*
X220587126Y-86164389D01*
X220617577Y-86194776D01*
X220664606Y-86241863D01*
X220725307Y-86302739D01*
X220796779Y-86374496D01*
X220876118Y-86454225D01*
X220877779Y-86455894D01*
X220959205Y-86536741D01*
X221035054Y-86610133D01*
X221101990Y-86672994D01*
X221156678Y-86722247D01*
X221195782Y-86754816D01*
X221215663Y-86767556D01*
X221236093Y-86768152D01*
X221260531Y-86757567D01*
X221293775Y-86732398D01*
X221340625Y-86689244D01*
X221378382Y-86652190D01*
X221440633Y-86587657D01*
X221480484Y-86539575D01*
X221500419Y-86504681D01*
X221503875Y-86487521D01*
X221498549Y-86469558D01*
X221481229Y-86442344D01*
X221449910Y-86403608D01*
X221402584Y-86351079D01*
X221337243Y-86282484D01*
X221251880Y-86195551D01*
X221198434Y-86141867D01*
X220892993Y-85836125D01*
X221320443Y-85836125D01*
X221459762Y-85836235D01*
X221570588Y-85835593D01*
X221656172Y-85832739D01*
X221719762Y-85826213D01*
X221764608Y-85814556D01*
X221793960Y-85796308D01*
X221811068Y-85770009D01*
X221819180Y-85734200D01*
X221821546Y-85687420D01*
X221821417Y-85628211D01*
X221821375Y-85611107D01*
X221821751Y-85549737D01*
X221820702Y-85500980D01*
X221814967Y-85463390D01*
X221801283Y-85435522D01*
X221776389Y-85415933D01*
X221737023Y-85403178D01*
X221679922Y-85395811D01*
X221601824Y-85392388D01*
X221499468Y-85391465D01*
X221369591Y-85391596D01*
X221325804Y-85391625D01*
X220893733Y-85391625D01*
X221206742Y-85077189D01*
X221296102Y-84986371D01*
X221373596Y-84905517D01*
X221436949Y-84837128D01*
X221483886Y-84783706D01*
X221512132Y-84747753D01*
X221519750Y-84732990D01*
X221508254Y-84706392D01*
X221477729Y-84665976D01*
X221434124Y-84617523D01*
X221383387Y-84566817D01*
X221331466Y-84519641D01*
X221284310Y-84481778D01*
X221247866Y-84459010D01*
X221233823Y-84455000D01*
X221214893Y-84461738D01*
X221183933Y-84483065D01*
X221139064Y-84520648D01*
X221078410Y-84576153D01*
X221000092Y-84651247D01*
X220902233Y-84747597D01*
X220885655Y-84764083D01*
X220575188Y-85073166D01*
X220579866Y-84648775D01*
X220581547Y-84510249D01*
X220582206Y-84400203D01*
X220580349Y-84315374D01*
X220574485Y-84252496D01*
X220563121Y-84208302D01*
X220544764Y-84179528D01*
X220517922Y-84162909D01*
X220481103Y-84155179D01*
X220432814Y-84153073D01*
X220371564Y-84153325D01*
X220353454Y-84153375D01*
X220273223Y-84154496D01*
X220218863Y-84158371D01*
X220184555Y-84165763D01*
X220164481Y-84177438D01*
X220163572Y-84178321D01*
X220156079Y-84189469D01*
X220150220Y-84208540D01*
X220145802Y-84239092D01*
X220142635Y-84284686D01*
X220140527Y-84348878D01*
X220139286Y-84435230D01*
X220138721Y-84547298D01*
X220138625Y-84642142D01*
X220138625Y-85081017D01*
X219824190Y-84768008D01*
X219720023Y-84665240D01*
X219635982Y-84584457D01*
X219570607Y-84524357D01*
X219522442Y-84483639D01*
X219490027Y-84461001D01*
X219473565Y-84455000D01*
X219441360Y-84467050D01*
X219393071Y-84501515D01*
X219333969Y-84554218D01*
X219267723Y-84620807D01*
X219224631Y-84672289D01*
X219202356Y-84712492D01*
X219198563Y-84745242D01*
X219205268Y-84765052D01*
X219220552Y-84784412D01*
X219255177Y-84822842D01*
X219305984Y-84877013D01*
X219369814Y-84943594D01*
X219443509Y-85019256D01*
X219517252Y-85093968D01*
X219812875Y-85391625D01*
X218056411Y-85391625D01*
X218087706Y-85340031D01*
X218122529Y-85281823D01*
X218168922Y-85203049D01*
X218225377Y-85106349D01*
X218290386Y-84994365D01*
X218362441Y-84869736D01*
X218440034Y-84735105D01*
X218521656Y-84593113D01*
X218605799Y-84446400D01*
X218690956Y-84297608D01*
X218775618Y-84149378D01*
X218858277Y-84004351D01*
X218937424Y-83865167D01*
X219011552Y-83734468D01*
X219079153Y-83614896D01*
X219138718Y-83509090D01*
X219188740Y-83419693D01*
X219227709Y-83349345D01*
X219254118Y-83300688D01*
X219266460Y-83276361D01*
X219267104Y-83274659D01*
X219269214Y-83251630D01*
X219271221Y-83199011D01*
X219273105Y-83118962D01*
X219274846Y-83013643D01*
X219276425Y-82885212D01*
X219277821Y-82735830D01*
X219279015Y-82567656D01*
X219279987Y-82382850D01*
X219280718Y-82183573D01*
X219281186Y-81971983D01*
X219281373Y-81750240D01*
X219281375Y-81720636D01*
X219281375Y-80216375D01*
X221408011Y-80216375D01*
X221416563Y-83288187D01*
X221760271Y-83883500D01*
X221849982Y-84038868D01*
X221949527Y-84211244D01*
X222054479Y-84392961D01*
X222160410Y-84576356D01*
X222262894Y-84753764D01*
X222357504Y-84917521D01*
X222425060Y-85034437D01*
X222570644Y-85286399D01*
X222702143Y-85514050D01*
X222819336Y-85717010D01*
X222922005Y-85894897D01*
X223009929Y-86047331D01*
X223082890Y-86173931D01*
X223140668Y-86274316D01*
X223183043Y-86348107D01*
X223209795Y-86394921D01*
X223214919Y-86403962D01*
X223253183Y-86471738D01*
X223751861Y-86471738D01*
X223750407Y-86468214D01*
X223728339Y-86425010D01*
X223693556Y-86360273D01*
X223647689Y-86276953D01*
X223592372Y-86177999D01*
X223529237Y-86066362D01*
X223459917Y-85944993D01*
X223415081Y-85867074D01*
X223328993Y-85717890D01*
X223236116Y-85556959D01*
X223140258Y-85390876D01*
X223045224Y-85226236D01*
X222954821Y-85069633D01*
X222872855Y-84927663D01*
X222806177Y-84812187D01*
X222734938Y-84688821D01*
X222651741Y-84544738D01*
X222560500Y-84386716D01*
X222465130Y-84221537D01*
X222369545Y-84055979D01*
X222277659Y-83896823D01*
X222204659Y-83770372D01*
X221869000Y-83188931D01*
X221869410Y-81706622D01*
X221869820Y-80224312D01*
X221932219Y-80195553D01*
X221997017Y-80150866D01*
X222038317Y-80091549D01*
X222056775Y-80023581D01*
X222053045Y-79952941D01*
X222027782Y-79885606D01*
X221981642Y-79827557D01*
X221915279Y-79784771D01*
X221886046Y-79774101D01*
X221859499Y-79770910D01*
X221803952Y-79768009D01*
X221722153Y-79765396D01*
X221616849Y-79763071D01*
X221490789Y-79761035D01*
X221346721Y-79759288D01*
X221187394Y-79757830D01*
X221015554Y-79756660D01*
X220833951Y-79755780D01*
X220645333Y-79755187D01*
X220452448Y-79754883D01*
X220258043Y-79754868D01*
X220064868Y-79755141D01*
X220064868Y-79755141D01*
G37*
X220064868Y-79755141D02*
X219875670Y-79755704D01*
X219693197Y-79756553D01*
X219520198Y-79757693D01*
X219359420Y-79759121D01*
X219213612Y-79760837D01*
X219085522Y-79762843D01*
X218977899Y-79765137D01*
X218893489Y-79767719D01*
X218835042Y-79770591D01*
X218805306Y-79773751D01*
X218803955Y-79774101D01*
X218730350Y-79809801D01*
X218676728Y-79862954D01*
X218643744Y-79927582D01*
X218632052Y-79997706D01*
X218642308Y-80067346D01*
X218675167Y-80130525D01*
X218731283Y-80181264D01*
X218757782Y-80195553D01*
X218820181Y-80224312D01*
X218820591Y-81706141D01*
X218821000Y-83187969D01*
X218393806Y-83928641D01*
X218303263Y-84085615D01*
X218200103Y-84264444D01*
X218087584Y-84459483D01*
X217968962Y-84665090D01*
X217847493Y-84875620D01*
X217726432Y-85085429D01*
X217609037Y-85288874D01*
X217498563Y-85480312D01*
X217449244Y-85565770D01*
X217360033Y-85720722D01*
X217275691Y-85867946D01*
X217197542Y-86005082D01*
X217126911Y-86129771D01*
X217065123Y-86239652D01*
X217013503Y-86332365D01*
X216973376Y-86405552D01*
X216946066Y-86456852D01*
X216932898Y-86483905D01*
X216931875Y-86487254D01*
X216939741Y-86507854D01*
X216962046Y-86552330D01*
X216996855Y-86617359D01*
X217042233Y-86699615D01*
X217096244Y-86795774D01*
X217156953Y-86902511D01*
X217222423Y-87016503D01*
X217290721Y-87134423D01*
X217359909Y-87252948D01*
X217428052Y-87368754D01*
X217493216Y-87478515D01*
X217553463Y-87578906D01*
X217606859Y-87666605D01*
X217651468Y-87738285D01*
X217685355Y-87790622D01*
X217706584Y-87820292D01*
X217710401Y-87824468D01*
X217757876Y-87868125D01*
X222932125Y-87868125D01*
X222979600Y-87824468D01*
X222996394Y-87802746D01*
X223026461Y-87757288D01*
X223067866Y-87691420D01*
X223118675Y-87608466D01*
X223176950Y-87511753D01*
X223240758Y-87404605D01*
X223308162Y-87290346D01*
X223377228Y-87172303D01*
X223446019Y-87053800D01*
X223512600Y-86938163D01*
X223575037Y-86828717D01*
X223631392Y-86728786D01*
X223679733Y-86641695D01*
X223718121Y-86570771D01*
X223744623Y-86519338D01*
X223757303Y-86490720D01*
X223758126Y-86486933D01*
X223751861Y-86471738D01*
X223253183Y-86471738D01*
X222978492Y-86947681D01*
X222703802Y-87423625D01*
X217986346Y-87423625D01*
X217711306Y-86946873D01*
X217436265Y-86470121D01*
X217544373Y-86284091D01*
X217592892Y-86200084D01*
X217643609Y-86111405D01*
X217690301Y-86028982D01*
X217724772Y-85967315D01*
X217797063Y-85836567D01*
X219812875Y-85836125D01*
X219517252Y-86133781D01*
X219437275Y-86214852D01*
X219364259Y-86289905D01*
X219301362Y-86355609D01*
X219251743Y-86408634D01*
X219218560Y-86445650D01*
X219205268Y-86462697D01*
X219197957Y-86500230D01*
X219210296Y-86535316D01*
X219235308Y-86571070D01*
X219275694Y-86615828D01*
X219324952Y-86663770D01*
X219376580Y-86709074D01*
X219424074Y-86745919D01*
X219460933Y-86768484D01*
X219475520Y-86772750D01*
X219497868Y-86762200D01*
X219539213Y-86730232D01*
X219600092Y-86676363D01*
X219681040Y-86600114D01*
X219782592Y-86501002D01*
X219824190Y-86459741D01*
X220138625Y-86146732D01*
X220138625Y-86581522D01*
X220138814Y-86712308D01*
X220139520Y-86815011D01*
X220140949Y-86893296D01*
X220143309Y-86950830D01*
X220146809Y-86991276D01*
X220151655Y-87018301D01*
X220158056Y-87035570D01*
X220164898Y-87045343D01*
X220181734Y-87058829D01*
X220207193Y-87067459D01*
X220247819Y-87072237D01*
X220310156Y-87074165D01*
X220354246Y-87074375D01*
X220427993Y-87073988D01*
X220476948Y-87071820D01*
X220508068Y-87066360D01*
X220528310Y-87056094D01*
X220544630Y-87039512D01*
X220550947Y-87031627D01*
X220561079Y-87017620D01*
X220568883Y-87001895D01*
X220574608Y-86980501D01*
X220578503Y-86949484D01*
X220580815Y-86904892D01*
X220581793Y-86842771D01*
X220581686Y-86759170D01*
X220580741Y-86650136D01*
X220579880Y-86571238D01*
X220578664Y-86459830D01*
X220577637Y-86359621D01*
X220576836Y-86274754D01*
X220576300Y-86209372D01*
X220576063Y-86167619D01*
X220576154Y-86153611D01*
X220587126Y-86164389D01*
X220617577Y-86194776D01*
X220664606Y-86241863D01*
X220725307Y-86302739D01*
X220796779Y-86374496D01*
X220876118Y-86454225D01*
X220877779Y-86455894D01*
X220959205Y-86536741D01*
X221035054Y-86610133D01*
X221101990Y-86672994D01*
X221156678Y-86722247D01*
X221195782Y-86754816D01*
X221215663Y-86767556D01*
X221236093Y-86768152D01*
X221260531Y-86757567D01*
X221293775Y-86732398D01*
X221340625Y-86689244D01*
X221378382Y-86652190D01*
X221440633Y-86587657D01*
X221480484Y-86539575D01*
X221500419Y-86504681D01*
X221503875Y-86487521D01*
X221498549Y-86469558D01*
X221481229Y-86442344D01*
X221449910Y-86403608D01*
X221402584Y-86351079D01*
X221337243Y-86282484D01*
X221251880Y-86195551D01*
X221198434Y-86141867D01*
X220892993Y-85836125D01*
X221320443Y-85836125D01*
X221459762Y-85836235D01*
X221570588Y-85835593D01*
X221656172Y-85832739D01*
X221719762Y-85826213D01*
X221764608Y-85814556D01*
X221793960Y-85796308D01*
X221811068Y-85770009D01*
X221819180Y-85734200D01*
X221821546Y-85687420D01*
X221821417Y-85628211D01*
X221821375Y-85611107D01*
X221821751Y-85549737D01*
X221820702Y-85500980D01*
X221814967Y-85463390D01*
X221801283Y-85435522D01*
X221776389Y-85415933D01*
X221737023Y-85403178D01*
X221679922Y-85395811D01*
X221601824Y-85392388D01*
X221499468Y-85391465D01*
X221369591Y-85391596D01*
X221325804Y-85391625D01*
X220893733Y-85391625D01*
X221206742Y-85077189D01*
X221296102Y-84986371D01*
X221373596Y-84905517D01*
X221436949Y-84837128D01*
X221483886Y-84783706D01*
X221512132Y-84747753D01*
X221519750Y-84732990D01*
X221508254Y-84706392D01*
X221477729Y-84665976D01*
X221434124Y-84617523D01*
X221383387Y-84566817D01*
X221331466Y-84519641D01*
X221284310Y-84481778D01*
X221247866Y-84459010D01*
X221233823Y-84455000D01*
X221214893Y-84461738D01*
X221183933Y-84483065D01*
X221139064Y-84520648D01*
X221078410Y-84576153D01*
X221000092Y-84651247D01*
X220902233Y-84747597D01*
X220885655Y-84764083D01*
X220575188Y-85073166D01*
X220579866Y-84648775D01*
X220581547Y-84510249D01*
X220582206Y-84400203D01*
X220580349Y-84315374D01*
X220574485Y-84252496D01*
X220563121Y-84208302D01*
X220544764Y-84179528D01*
X220517922Y-84162909D01*
X220481103Y-84155179D01*
X220432814Y-84153073D01*
X220371564Y-84153325D01*
X220353454Y-84153375D01*
X220273223Y-84154496D01*
X220218863Y-84158371D01*
X220184555Y-84165763D01*
X220164481Y-84177438D01*
X220163572Y-84178321D01*
X220156079Y-84189469D01*
X220150220Y-84208540D01*
X220145802Y-84239092D01*
X220142635Y-84284686D01*
X220140527Y-84348878D01*
X220139286Y-84435230D01*
X220138721Y-84547298D01*
X220138625Y-84642142D01*
X220138625Y-85081017D01*
X219824190Y-84768008D01*
X219720023Y-84665240D01*
X219635982Y-84584457D01*
X219570607Y-84524357D01*
X219522442Y-84483639D01*
X219490027Y-84461001D01*
X219473565Y-84455000D01*
X219441360Y-84467050D01*
X219393071Y-84501515D01*
X219333969Y-84554218D01*
X219267723Y-84620807D01*
X219224631Y-84672289D01*
X219202356Y-84712492D01*
X219198563Y-84745242D01*
X219205268Y-84765052D01*
X219220552Y-84784412D01*
X219255177Y-84822842D01*
X219305984Y-84877013D01*
X219369814Y-84943594D01*
X219443509Y-85019256D01*
X219517252Y-85093968D01*
X219812875Y-85391625D01*
X218056411Y-85391625D01*
X218087706Y-85340031D01*
X218122529Y-85281823D01*
X218168922Y-85203049D01*
X218225377Y-85106349D01*
X218290386Y-84994365D01*
X218362441Y-84869736D01*
X218440034Y-84735105D01*
X218521656Y-84593113D01*
X218605799Y-84446400D01*
X218690956Y-84297608D01*
X218775618Y-84149378D01*
X218858277Y-84004351D01*
X218937424Y-83865167D01*
X219011552Y-83734468D01*
X219079153Y-83614896D01*
X219138718Y-83509090D01*
X219188740Y-83419693D01*
X219227709Y-83349345D01*
X219254118Y-83300688D01*
X219266460Y-83276361D01*
X219267104Y-83274659D01*
X219269214Y-83251630D01*
X219271221Y-83199011D01*
X219273105Y-83118962D01*
X219274846Y-83013643D01*
X219276425Y-82885212D01*
X219277821Y-82735830D01*
X219279015Y-82567656D01*
X219279987Y-82382850D01*
X219280718Y-82183573D01*
X219281186Y-81971983D01*
X219281373Y-81750240D01*
X219281375Y-81720636D01*
X219281375Y-80216375D01*
X221408011Y-80216375D01*
X221416563Y-83288187D01*
X221760271Y-83883500D01*
X221849982Y-84038868D01*
X221949527Y-84211244D01*
X222054479Y-84392961D01*
X222160410Y-84576356D01*
X222262894Y-84753764D01*
X222357504Y-84917521D01*
X222425060Y-85034437D01*
X222570644Y-85286399D01*
X222702143Y-85514050D01*
X222819336Y-85717010D01*
X222922005Y-85894897D01*
X223009929Y-86047331D01*
X223082890Y-86173931D01*
X223140668Y-86274316D01*
X223183043Y-86348107D01*
X223209795Y-86394921D01*
X223214919Y-86403962D01*
X223253183Y-86471738D01*
X223751861Y-86471738D01*
X223750407Y-86468214D01*
X223728339Y-86425010D01*
X223693556Y-86360273D01*
X223647689Y-86276953D01*
X223592372Y-86177999D01*
X223529237Y-86066362D01*
X223459917Y-85944993D01*
X223415081Y-85867074D01*
X223328993Y-85717890D01*
X223236116Y-85556959D01*
X223140258Y-85390876D01*
X223045224Y-85226236D01*
X222954821Y-85069633D01*
X222872855Y-84927663D01*
X222806177Y-84812187D01*
X222734938Y-84688821D01*
X222651741Y-84544738D01*
X222560500Y-84386716D01*
X222465130Y-84221537D01*
X222369545Y-84055979D01*
X222277659Y-83896823D01*
X222204659Y-83770372D01*
X221869000Y-83188931D01*
X221869410Y-81706622D01*
X221869820Y-80224312D01*
X221932219Y-80195553D01*
X221997017Y-80150866D01*
X222038317Y-80091549D01*
X222056775Y-80023581D01*
X222053045Y-79952941D01*
X222027782Y-79885606D01*
X221981642Y-79827557D01*
X221915279Y-79784771D01*
X221886046Y-79774101D01*
X221859499Y-79770910D01*
X221803952Y-79768009D01*
X221722153Y-79765396D01*
X221616849Y-79763071D01*
X221490789Y-79761035D01*
X221346721Y-79759288D01*
X221187394Y-79757830D01*
X221015554Y-79756660D01*
X220833951Y-79755780D01*
X220645333Y-79755187D01*
X220452448Y-79754883D01*
X220258043Y-79754868D01*
X220064868Y-79755141D01*
D14*
X127000000Y-83820000D02*
X157480000Y-83820000D01*
X157480000Y-83820000D02*
X157480000Y-81280000D01*
X157480000Y-81280000D02*
X127000000Y-81280000D01*
X124180000Y-81000000D02*
X125730000Y-81000000D01*
X127000000Y-81280000D02*
X127000000Y-83820000D01*
X125730000Y-84100000D02*
X124180000Y-84100000D01*
X124180000Y-84100000D02*
X124180000Y-81000000D01*
X132080000Y-83820000D02*
X152400000Y-83820000D01*
X152400000Y-83820000D02*
X152400000Y-86360000D01*
X152400000Y-86360000D02*
X132080000Y-86360000D01*
X129260000Y-83540000D02*
X130810000Y-83540000D01*
X132080000Y-83820000D02*
X132080000Y-86360000D01*
X130810000Y-86640000D02*
X129260000Y-86640000D01*
X129260000Y-86640000D02*
X129260000Y-83540000D01*
M02*
