M48
;DRILL file {KiCad 4.0.7} date Thursday, February 08, 2018 'PMt' 08:57:01 PM
;FORMAT={-:-/ absolute / inch / decimal}
FMAT,2
INCH,TZ
T1C0.013
T2C0.040
%
G90
G05
M72
T1
X2.475Y-2.95
X2.475Y-3.65
X2.575Y-2.975
X2.575Y-3.625
X2.675Y-3.
X2.675Y-3.6
X2.775Y-3.575
X2.875Y-3.55
X2.975Y-3.025
X2.975Y-3.525
X3.075Y-3.05
X3.075Y-3.5
X3.175Y-3.075
X3.175Y-3.475
X3.75Y-2.925
X3.85Y-2.95
X3.85Y-3.65
X3.95Y-2.975
X3.95Y-3.625
X4.05Y-3.
X4.05Y-3.6
X4.15Y-3.575
X4.25Y-3.55
X4.35Y-3.025
X4.35Y-3.525
X4.45Y-3.5
X4.55Y-3.475
X5.05Y-3.05
X5.1Y-3.075
X5.15Y-2.925
X5.15Y-3.675
X5.25Y-2.95
X5.25Y-3.65
X5.35Y-2.975
X5.35Y-3.625
X5.45Y-3.
X5.45Y-3.6
X5.55Y-3.575
X5.65Y-3.55
X5.75Y-3.025
X5.75Y-3.525
X5.85Y-3.05
X5.85Y-3.5
X5.95Y-3.075
X5.95Y-3.475
X6.55Y-2.925
X6.65Y-2.95
X6.65Y-3.65
X6.75Y-2.975
X6.75Y-3.625
X6.85Y-3.
X6.85Y-3.6
X6.925Y-3.1
X6.95Y-3.575
X7.05Y-3.55
X7.15Y-3.025
X7.15Y-3.525
X7.25Y-3.05
X7.25Y-3.5
X7.35Y-3.075
X7.35Y-3.475
X7.95Y-2.925
X8.05Y-2.95
X8.05Y-3.65
X8.15Y-2.975
X8.15Y-3.625
X8.25Y-3.
X8.25Y-3.6
X8.35Y-3.575
X8.45Y-3.55
X8.55Y-3.025
X8.55Y-3.525
X8.65Y-3.05
X8.65Y-3.5
X8.75Y-3.075
X8.75Y-3.475
T2
X2.2875Y-2.8669
X2.2875Y-3.7331
X2.3875Y-2.8669
X2.3875Y-3.7331
X2.4875Y-2.8669
X2.4875Y-3.7331
X2.5875Y-2.8669
X2.5875Y-3.7331
X2.6875Y-2.8669
X2.6875Y-3.7331
X2.7875Y-2.8669
X2.7875Y-3.7331
X2.8875Y-2.8669
X2.8875Y-3.7331
X2.9875Y-2.8669
X2.9875Y-3.7331
X3.0875Y-2.8669
X3.0875Y-3.7331
X3.7125Y-2.8669
X3.7125Y-3.7331
X3.8125Y-2.8669
X3.8125Y-3.7331
X3.9125Y-2.8669
X3.9125Y-3.7331
X4.0125Y-2.8669
X4.0125Y-3.7331
X4.1125Y-2.8669
X4.1125Y-3.7331
X4.2125Y-2.8669
X4.2125Y-3.7331
X4.3125Y-2.8669
X4.3125Y-3.7331
X4.4125Y-2.8669
X4.4125Y-3.7331
X4.5125Y-2.8669
X4.5125Y-3.7331
X4.95Y-3.25
X5.05Y-3.25
X5.1375Y-2.8669
X5.1375Y-3.7331
X5.15Y-3.25
X5.15Y-3.35
X5.2375Y-2.8669
X5.2375Y-3.7331
X5.25Y-3.25
X5.25Y-3.35
X5.3375Y-2.8669
X5.3375Y-3.7331
X5.35Y-3.25
X5.35Y-3.35
X5.4375Y-2.8669
X5.4375Y-3.7331
X5.45Y-3.25
X5.45Y-3.35
X5.5375Y-2.8669
X5.5375Y-3.7331
X5.55Y-3.25
X5.55Y-3.35
X5.6375Y-2.8669
X5.6375Y-3.7331
X5.65Y-3.25
X5.65Y-3.35
X5.7375Y-2.8669
X5.7375Y-3.7331
X5.75Y-3.25
X5.75Y-3.35
X5.8375Y-2.8669
X5.8375Y-3.7331
X5.85Y-3.25
X5.85Y-3.35
X5.9375Y-2.8669
X5.9375Y-3.7331
X5.95Y-3.25
X5.95Y-3.35
X6.05Y-3.25
X6.15Y-3.25
X6.5625Y-2.8669
X6.5625Y-3.7331
X6.6625Y-2.8669
X6.6625Y-3.7331
X6.7625Y-2.8669
X6.7625Y-3.7331
X6.8625Y-2.8669
X6.8625Y-3.7331
X6.9625Y-2.8669
X6.9625Y-3.7331
X7.0625Y-2.8669
X7.0625Y-3.7331
X7.1625Y-2.8669
X7.1625Y-3.7331
X7.2625Y-2.8669
X7.2625Y-3.7331
X7.3625Y-2.8669
X7.3625Y-3.7331
X7.9875Y-2.8669
X7.9875Y-3.7331
X8.0875Y-2.8669
X8.0875Y-3.7331
X8.1875Y-2.8669
X8.1875Y-3.7331
X8.2875Y-2.8669
X8.2875Y-3.7331
X8.3875Y-2.8669
X8.3875Y-3.7331
X8.4875Y-2.8669
X8.4875Y-3.7331
X8.5875Y-2.8669
X8.5875Y-3.7331
X8.6875Y-2.8669
X8.6875Y-3.7331
X8.7875Y-2.8669
X8.7875Y-3.7331
T0
M30
