G04 #@! TF.FileFunction,Legend,Top*
%FSLAX46Y46*%
G04 Gerber Fmt 4.6, Leading zero omitted, Abs format (unit mm)*
G04 Created by KiCad (PCBNEW 4.0.7) date Thursday, February 08, 2018 'PMt' 08:56:59 PM*
%MOMM*%
%LPD*%
G01*
G04 APERTURE LIST*
%ADD10C,0.100000*%
%ADD11C,0.150000*%
G04 APERTURE END LIST*
D10*
D11*
X84772500Y-91440000D02*
G75*
G03X84772500Y-91440000I-1270000J0D01*
G01*
X72072500Y-83820000D02*
X80962500Y-83820000D01*
X74612500Y-74930000D02*
X83502500Y-74930000D01*
X83502500Y-74930000D02*
X78422500Y-92710000D01*
X78422500Y-92710000D02*
X69532500Y-92710000D01*
X74612500Y-74930000D02*
X69532500Y-92710000D01*
X66992500Y-91440000D02*
G75*
G03X66992500Y-91440000I-1270000J0D01*
G01*
X54292500Y-83820000D02*
X56832500Y-74930000D01*
X56832500Y-74930000D02*
X65722500Y-74930000D01*
X65722500Y-74930000D02*
X63182500Y-83820000D01*
X51752500Y-92710000D02*
X54292500Y-83820000D01*
X54292500Y-83820000D02*
X63182500Y-83820000D01*
X63182500Y-83820000D02*
X60642500Y-92710000D01*
X60642500Y-92710000D02*
X51752500Y-92710000D01*
X50482500Y-71120000D02*
X50482500Y-96520000D01*
X50482500Y-96520000D02*
X86042500Y-96520000D01*
X86042500Y-96520000D02*
X86042500Y-71120000D01*
X50482500Y-71120000D02*
X86042500Y-71120000D01*
X120967500Y-91440000D02*
G75*
G03X120967500Y-91440000I-1270000J0D01*
G01*
X108267500Y-83820000D02*
X117157500Y-83820000D01*
X110807500Y-74930000D02*
X119697500Y-74930000D01*
X119697500Y-74930000D02*
X114617500Y-92710000D01*
X114617500Y-92710000D02*
X105727500Y-92710000D01*
X110807500Y-74930000D02*
X105727500Y-92710000D01*
X103187500Y-91440000D02*
G75*
G03X103187500Y-91440000I-1270000J0D01*
G01*
X90487500Y-83820000D02*
X93027500Y-74930000D01*
X93027500Y-74930000D02*
X101917500Y-74930000D01*
X101917500Y-74930000D02*
X99377500Y-83820000D01*
X87947500Y-92710000D02*
X90487500Y-83820000D01*
X90487500Y-83820000D02*
X99377500Y-83820000D01*
X99377500Y-83820000D02*
X96837500Y-92710000D01*
X96837500Y-92710000D02*
X87947500Y-92710000D01*
X86677500Y-71120000D02*
X86677500Y-96520000D01*
X86677500Y-96520000D02*
X122237500Y-96520000D01*
X122237500Y-96520000D02*
X122237500Y-71120000D01*
X86677500Y-71120000D02*
X122237500Y-71120000D01*
X157162500Y-91440000D02*
G75*
G03X157162500Y-91440000I-1270000J0D01*
G01*
X144462500Y-83820000D02*
X153352500Y-83820000D01*
X147002500Y-74930000D02*
X155892500Y-74930000D01*
X155892500Y-74930000D02*
X150812500Y-92710000D01*
X150812500Y-92710000D02*
X141922500Y-92710000D01*
X147002500Y-74930000D02*
X141922500Y-92710000D01*
X139382500Y-91440000D02*
G75*
G03X139382500Y-91440000I-1270000J0D01*
G01*
X126682500Y-83820000D02*
X129222500Y-74930000D01*
X129222500Y-74930000D02*
X138112500Y-74930000D01*
X138112500Y-74930000D02*
X135572500Y-83820000D01*
X124142500Y-92710000D02*
X126682500Y-83820000D01*
X126682500Y-83820000D02*
X135572500Y-83820000D01*
X135572500Y-83820000D02*
X133032500Y-92710000D01*
X133032500Y-92710000D02*
X124142500Y-92710000D01*
X122872500Y-71120000D02*
X122872500Y-96520000D01*
X122872500Y-96520000D02*
X158432500Y-96520000D01*
X158432500Y-96520000D02*
X158432500Y-71120000D01*
X122872500Y-71120000D02*
X158432500Y-71120000D01*
X193357500Y-91440000D02*
G75*
G03X193357500Y-91440000I-1270000J0D01*
G01*
X180657500Y-83820000D02*
X189547500Y-83820000D01*
X183197500Y-74930000D02*
X192087500Y-74930000D01*
X192087500Y-74930000D02*
X187007500Y-92710000D01*
X187007500Y-92710000D02*
X178117500Y-92710000D01*
X183197500Y-74930000D02*
X178117500Y-92710000D01*
X175577500Y-91440000D02*
G75*
G03X175577500Y-91440000I-1270000J0D01*
G01*
X162877500Y-83820000D02*
X165417500Y-74930000D01*
X165417500Y-74930000D02*
X174307500Y-74930000D01*
X174307500Y-74930000D02*
X171767500Y-83820000D01*
X160337500Y-92710000D02*
X162877500Y-83820000D01*
X162877500Y-83820000D02*
X171767500Y-83820000D01*
X171767500Y-83820000D02*
X169227500Y-92710000D01*
X169227500Y-92710000D02*
X160337500Y-92710000D01*
X159067500Y-71120000D02*
X159067500Y-96520000D01*
X159067500Y-96520000D02*
X194627500Y-96520000D01*
X194627500Y-96520000D02*
X194627500Y-71120000D01*
X159067500Y-71120000D02*
X194627500Y-71120000D01*
X229552500Y-91440000D02*
G75*
G03X229552500Y-91440000I-1270000J0D01*
G01*
X216852500Y-83820000D02*
X225742500Y-83820000D01*
X219392500Y-74930000D02*
X228282500Y-74930000D01*
X228282500Y-74930000D02*
X223202500Y-92710000D01*
X223202500Y-92710000D02*
X214312500Y-92710000D01*
X219392500Y-74930000D02*
X214312500Y-92710000D01*
X211772500Y-91440000D02*
G75*
G03X211772500Y-91440000I-1270000J0D01*
G01*
X199072500Y-83820000D02*
X201612500Y-74930000D01*
X201612500Y-74930000D02*
X210502500Y-74930000D01*
X210502500Y-74930000D02*
X207962500Y-83820000D01*
X196532500Y-92710000D02*
X199072500Y-83820000D01*
X199072500Y-83820000D02*
X207962500Y-83820000D01*
X207962500Y-83820000D02*
X205422500Y-92710000D01*
X205422500Y-92710000D02*
X196532500Y-92710000D01*
X195262500Y-71120000D02*
X195262500Y-96520000D01*
X195262500Y-96520000D02*
X230822500Y-96520000D01*
X230822500Y-96520000D02*
X230822500Y-71120000D01*
X195262500Y-71120000D02*
X230822500Y-71120000D01*
X52284405Y-74112381D02*
X52284405Y-73112381D01*
X52522500Y-73112381D01*
X52665358Y-73160000D01*
X52760596Y-73255238D01*
X52808215Y-73350476D01*
X52855834Y-73540952D01*
X52855834Y-73683810D01*
X52808215Y-73874286D01*
X52760596Y-73969524D01*
X52665358Y-74064762D01*
X52522500Y-74112381D01*
X52284405Y-74112381D01*
X53808215Y-74112381D02*
X53236786Y-74112381D01*
X53522500Y-74112381D02*
X53522500Y-73112381D01*
X53427262Y-73255238D01*
X53332024Y-73350476D01*
X53236786Y-73398095D01*
X88479405Y-74112381D02*
X88479405Y-73112381D01*
X88717500Y-73112381D01*
X88860358Y-73160000D01*
X88955596Y-73255238D01*
X89003215Y-73350476D01*
X89050834Y-73540952D01*
X89050834Y-73683810D01*
X89003215Y-73874286D01*
X88955596Y-73969524D01*
X88860358Y-74064762D01*
X88717500Y-74112381D01*
X88479405Y-74112381D01*
X89431786Y-73207619D02*
X89479405Y-73160000D01*
X89574643Y-73112381D01*
X89812739Y-73112381D01*
X89907977Y-73160000D01*
X89955596Y-73207619D01*
X90003215Y-73302857D01*
X90003215Y-73398095D01*
X89955596Y-73540952D01*
X89384167Y-74112381D01*
X90003215Y-74112381D01*
X124674405Y-74112381D02*
X124674405Y-73112381D01*
X124912500Y-73112381D01*
X125055358Y-73160000D01*
X125150596Y-73255238D01*
X125198215Y-73350476D01*
X125245834Y-73540952D01*
X125245834Y-73683810D01*
X125198215Y-73874286D01*
X125150596Y-73969524D01*
X125055358Y-74064762D01*
X124912500Y-74112381D01*
X124674405Y-74112381D01*
X125579167Y-73112381D02*
X126198215Y-73112381D01*
X125864881Y-73493333D01*
X126007739Y-73493333D01*
X126102977Y-73540952D01*
X126150596Y-73588571D01*
X126198215Y-73683810D01*
X126198215Y-73921905D01*
X126150596Y-74017143D01*
X126102977Y-74064762D01*
X126007739Y-74112381D01*
X125722024Y-74112381D01*
X125626786Y-74064762D01*
X125579167Y-74017143D01*
X160869405Y-74112381D02*
X160869405Y-73112381D01*
X161107500Y-73112381D01*
X161250358Y-73160000D01*
X161345596Y-73255238D01*
X161393215Y-73350476D01*
X161440834Y-73540952D01*
X161440834Y-73683810D01*
X161393215Y-73874286D01*
X161345596Y-73969524D01*
X161250358Y-74064762D01*
X161107500Y-74112381D01*
X160869405Y-74112381D01*
X162297977Y-73445714D02*
X162297977Y-74112381D01*
X162059881Y-73064762D02*
X161821786Y-73779048D01*
X162440834Y-73779048D01*
X197064405Y-74112381D02*
X197064405Y-73112381D01*
X197302500Y-73112381D01*
X197445358Y-73160000D01*
X197540596Y-73255238D01*
X197588215Y-73350476D01*
X197635834Y-73540952D01*
X197635834Y-73683810D01*
X197588215Y-73874286D01*
X197540596Y-73969524D01*
X197445358Y-74064762D01*
X197302500Y-74112381D01*
X197064405Y-74112381D01*
X198540596Y-73112381D02*
X198064405Y-73112381D01*
X198016786Y-73588571D01*
X198064405Y-73540952D01*
X198159643Y-73493333D01*
X198397739Y-73493333D01*
X198492977Y-73540952D01*
X198540596Y-73588571D01*
X198588215Y-73683810D01*
X198588215Y-73921905D01*
X198540596Y-74017143D01*
X198492977Y-74064762D01*
X198397739Y-74112381D01*
X198159643Y-74112381D01*
X198064405Y-74064762D01*
X198016786Y-74017143D01*
M02*
